<?xml version="1.0" standalone="no"?>
<!DOCTYPE svg PUBLIC "-//W3C//DTD SVG 1.1//EN" "http://www.w3.org/Graphics/SVG/1.1/DTD/svg11.dtd" >
<svg xmlns="http://www.w3.org/2000/svg" xmlns:xlink="http://www.w3.org/1999/xlink" version="1.1">
<metadata>
Created by FontForge 20170731 at Tue Oct 29 13:52:35 2013
 By Aleksey,,,
Copyright (c) 2012 S-Core. All rights reserved.
</metadata>
<defs>
<font id="CoreSansG-Italic" horiz-adv-x="390" >
  <font-face 
    font-family="Core Sans G"
    font-weight="400"
    font-style="italic"
    font-stretch="normal"
    units-per-em="1000"
    panose-1="2 11 5 3 3 3 2 2 2 2"
    ascent="800"
    descent="-200"
    x-height="468"
    cap-height="700"
    bbox="-403.351 -294 1557.22 957"
    underline-thickness="24"
    underline-position="-231"
    unicode-range="U+0008-FB06"
  />
<missing-glyph horiz-adv-x="510" 
d="M15 0v700h500v-700h-500zM227 144q-13 -14 -13 -34t13.5 -34t33.5 -14t34 14t14 34t-14 34t-34 14t-34 -14zM351 229l-34 50q-19 -21 -44 -21q-33 0 -33 29t57 55q67 32 99 67.5t32 90.5q0 58 -46 96t-117 38q-43 0 -85.5 -21t-72.5 -58l52 -40q41 56 105 56
q45 0 70.5 -20.5t25.5 -49.5q0 -33 -26 -56.5t-82 -52.5q-79 -40 -79 -102q0 -43 27 -68.5t73 -25.5q47 0 78 33z" />
    <glyph glyph-name="f_f" unicode="ff" horiz-adv-x="646" 
d="M245 548l-16 -80h219l20 102q18 91 68 141t129 50q81 0 116 -63l-73 -51q-14 38 -57 38q-75 0 -97 -116l-20 -101h139l-14 -76h-139l-131 -674h-86l131 674h-219l-131 -674h-86l131 674h-78l14 76h78l16 80q19 94 76 146t137 52q66 0 111 -37l-54 -67q-30 28 -72 28
t-71 -31t-41 -91z" />
    <glyph glyph-name="f_i" unicode="fi" horiz-adv-x="564" 
d="M143 468l19 95q18 90 81 144t144 54q53 0 91 -24t55 -68l-72 -49q-23 65 -88 65q-47 0 -80.5 -32.5t-44.5 -89.5l-19 -95h300l-90 -468h-86l76 392h-214l-131 -674h-86l131 674h-78l14 76h78z" />
    <glyph glyph-name="f_l" unicode="fl" horiz-adv-x="572" 
d="M65 468h78l24 119q15 76 79 125t140 49q75 0 114 -41l6 30h86l-145 -750h-86l124 639q-25 46 -92 46q-52 0 -93 -32.5t-51 -86.5l-20 -98h139l-14 -76h-139l-131 -674h-86l131 674h-78z" />
    <glyph glyph-name="f_f_i" unicode="ffi" horiz-adv-x="869" 
d="M448 468l19 95q18 90 81 144t144 54q53 0 91 -24t55 -68l-72 -49q-23 65 -88 65q-47 0 -80.5 -32.5t-44.5 -89.5l-19 -95h300l-90 -468h-86l76 392h-214l-131 -674h-86l131 674h-219l-131 -674h-86l131 674h-78l14 76h78l16 80q19 94 76 146t137 52q66 0 111 -37l-54 -67
q-30 28 -72 28t-71 -31t-41 -91l-16 -80h219z" />
    <glyph glyph-name="f_f_l" unicode="ffl" horiz-adv-x="877" 
d="M805 720l6 30h86l-145 -750h-86l124 639q-25 46 -92 46q-52 0 -93 -32.5t-51 -86.5l-20 -98h139l-14 -76h-139l-131 -674h-86l131 674h-219l-131 -674h-86l131 674h-78l14 76h78l16 80q19 94 76 146t137 52q66 0 111 -37l-54 -67q-30 28 -72 28t-71 -31t-41 -91l-16 -80
h219l24 119q15 76 79 125t140 49q75 0 114 -41z" />
    <glyph glyph-name=".notdef" horiz-adv-x="510" 
d="M15 0v700h500v-700h-500zM227 144q-13 -14 -13 -34t13.5 -34t33.5 -14t34 14t14 34t-14 34t-34 14t-34 -14zM351 229l-34 50q-19 -21 -44 -21q-33 0 -33 29t57 55q67 32 99 67.5t32 90.5q0 58 -46 96t-117 38q-43 0 -85.5 -21t-72.5 -58l52 -40q41 56 105 56
q45 0 70.5 -20.5t25.5 -49.5q0 -33 -26 -56.5t-82 -52.5q-79 -40 -79 -102q0 -43 27 -68.5t73 -25.5q47 0 78 33z" />
    <glyph glyph-name=".null" horiz-adv-x="0" 
 />
    <glyph glyph-name="nonmarkingreturn" horiz-adv-x="333" 
 />
    <glyph glyph-name="NULL" horiz-adv-x="0" 
 />
    <glyph glyph-name="NULL" horiz-adv-x="0" 
 />
    <glyph glyph-name="uni0008" horiz-adv-x="0" 
 />
    <glyph glyph-name="CR.001" unicode="&#x9;" horiz-adv-x="237" 
 />
    <glyph glyph-name="_13" unicode="&#xd;" horiz-adv-x="237" 
 />
    <glyph glyph-name="uni001D" horiz-adv-x="0" 
 />
    <glyph glyph-name="space" unicode=" " horiz-adv-x="300" 
 />
    <glyph glyph-name="exclam" unicode="!" horiz-adv-x="296" 
d="M193 700h92l-104 -531h-92zM51 49q5 26 26.5 43.5t46.5 17.5q26 0 40 -18t9 -43q-5 -26 -26.5 -43.5t-46.5 -17.5q-26 0 -40 18t-9 43z" />
    <glyph glyph-name="quotedbl" unicode="&#x22;" horiz-adv-x="488" 
d="M147 428l34 272h102l-72 -272h-64zM343 428l34 272h102l-72 -272h-64z" />
    <glyph glyph-name="numbersign" unicode="#" horiz-adv-x="665" 
d="M475 526l34 174h82l-34 -174h100l-15 -75h-100l-39 -199h100l-14 -75h-100l-34 -177h-82l34 177h-183l-34 -177h-82l34 177h-98l14 75h98l39 199h-98l15 75h98l34 174h82l-34 -174h183zM277 451l-39 -199h183l39 199h-183z" />
    <glyph glyph-name="dollar" unicode="$" horiz-adv-x="529" 
d="M15 131l82 53q10 -52 44 -83t83 -31q56 0 97.5 33t52.5 89q10 55 -12 92.5t-91 66.5q-77 32 -108 80t-18 119q11 56 50.5 97.5t97.5 56.5l16 79h79l-14 -72q43 -5 75 -29t45 -61l-74 -48q-23 57 -84 57q-37 0 -64.5 -22.5t-33.5 -56.5q-8 -40 12.5 -69t78.5 -54
q89 -38 121.5 -94t15.5 -140q-15 -79 -72 -134t-140 -68l-16 -80h-79l16 79q-61 8 -104.5 45t-55.5 95z" />
    <glyph glyph-name="percent" unicode="%" horiz-adv-x="933" 
d="M140 551q13 67 70.5 114t125.5 47q67 0 107 -46.5t27 -114.5t-71 -114.5t-126 -46.5q-67 0 -106.5 46.5t-26.5 114.5zM226 551q-7 -33 11.5 -56t51.5 -23t60.5 23t34.5 56q6 33 -12.5 56t-51.5 23t-60.5 -23t-33.5 -56zM854 149q-13 -67 -70.5 -114t-125.5 -47
q-67 0 -107 46.5t-27 114.5t71 114.5t126 46.5q67 0 106.5 -46.5t26.5 -114.5zM768 149q7 33 -11.5 56t-51.5 23t-60.5 -23t-34.5 -56q-6 -33 12.5 -56t51.5 -23t60.5 23t33.5 56zM833 665l-615 -677l-58 46l616 678z" />
    <glyph glyph-name="ampersand" unicode="&#x26;" horiz-adv-x="629" 
d="M563 255l38 -67q-52 -48 -103 -82l53 -91l-79 -49l-52 90q-58 -35 -105.5 -51.5t-109.5 -16.5q-78 0 -124.5 55t-30.5 133q22 113 181 215q-31 56 -41 90t-3 71q14 70 68 115t130 45q65 0 103.5 -45.5t25.5 -115.5q-11 -57 -55 -98.5t-113 -81.5l113 -198q61 44 104 82z
M137 176q-10 -46 14.5 -78t78.5 -32q64 0 153 56l-116 203q-63 -39 -92.5 -74t-37.5 -75zM428 557q6 34 -10 56.5t-49 22.5q-39 0 -63.5 -23t-31.5 -60q-7 -36 34 -116q33 19 54 32.5t41 37.5t25 50z" />
    <glyph glyph-name="quotesingle" unicode="'" horiz-adv-x="292" 
d="M147 428l34 272h102l-72 -272h-64z" />
    <glyph glyph-name="parenleft" unicode="(" horiz-adv-x="359" 
d="M156 310q45 235 215 440l59 -39q-141 -186 -182 -401q-42 -216 26 -401l-74 -39q-90 205 -44 440z" />
    <glyph glyph-name="parenright" unicode=")" horiz-adv-x="359" 
d="M269 310q-47 -238 -216 -440l-58 39q141 189 182 401q41 214 -26 401l73 39q90 -202 45 -440z" />
    <glyph glyph-name="asterisk" unicode="*" horiz-adv-x="546" 
d="M346 316l62 -67l46 -62l-73 -54l-46 62l-52 91l-52 -91l-46 -62l-73 54l46 62l61 67l-89 19l-73 24l28 86l73 -24l90 -41l-10 101v77h90v-77l-11 -101l91 41l73 24l28 -86l-73 -24z" />
    <glyph glyph-name="plus" unicode="+" horiz-adv-x="618" 
d="M274 85v208h-194v78h194v208h90v-208h194v-78h-194v-208h-90z" />
    <glyph glyph-name="comma" unicode="," horiz-adv-x="300" 
d="M-27 -138l121 264l91 -33l-155 -251z" />
    <glyph glyph-name="hyphen" unicode="-" horiz-adv-x="406" 
d="M352 289h-286l16 86h286z" />
    <glyph glyph-name="period" unicode="." horiz-adv-x="300" 
d="M48 49q5 26 26.5 43.5t46.5 17.5q26 0 40 -18t9 -43q-5 -26 -26.5 -43.5t-46.5 -17.5q-26 0 -40 18t-9 43z" />
    <glyph glyph-name="slash" unicode="/" horiz-adv-x="500" 
d="M-52 -76l566 824l62 -34l-567 -824z" />
    <glyph glyph-name="zero" unicode="0" horiz-adv-x="600" 
d="M86 350q30 159 108 260.5t194 101.5q78 0 122.5 -49.5t50.5 -130t-11 -182.5q-20 -103 -59 -182.5t-102.5 -129.5t-141.5 -50q-59 0 -99 28.5t-57 78t-19 115t14 140.5zM178 350q-27 -118 -6.5 -199t91.5 -81t120.5 76.5t74.5 203.5q26 118 5.5 199t-91.5 81t-120.5 -77
t-73.5 -203z" />
    <glyph glyph-name="one" unicode="1" horiz-adv-x="600" 
d="M427 712l18 -6l-137 -706h-92l111 573l-136 -65l-26 69z" />
    <glyph glyph-name="two" unicode="2" horiz-adv-x="600" 
d="M29 0l-6 18l310 330q95 102 109 168q11 56 -18.5 85t-87.5 29q-34 0 -71 -21t-66 -59l-58 44q43 55 101 86.5t113 31.5q99 0 147.5 -54t31.5 -143q-19 -93 -134 -212l-212 -221h270l-15 -82h-414z" />
    <glyph glyph-name="three" unicode="3" horiz-adv-x="600" 
d="M237 368l-6 24l187 226h-259l16 82h386l9 -19l-215 -256q75 -20 111 -79.5t21 -135.5q-17 -90 -92 -156t-188 -66q-65 0 -116 30.5t-76 91.5l77 55q41 -95 132 -95q63 0 111 39t60 99q13 68 -25.5 113.5t-132.5 46.5z" />
    <glyph glyph-name="four" unicode="4" horiz-adv-x="600" 
d="M1 136l-6 19l521 557l18 -5l-95 -489h78l-16 -82h-78l-26 -136h-92l26 136h-330zM149 218h198l53 274z" />
    <glyph glyph-name="five" unicode="5" horiz-adv-x="600" 
d="M147 343l-15 10l120 347h316l-16 -82h-241l-62 -176q28 8 60 8q94 0 151.5 -64.5t38.5 -162.5q-20 -100 -95.5 -167.5t-187.5 -67.5q-66 0 -117 31.5t-75 90.5l77 55q16 -44 49 -69.5t77 -25.5q74 0 120 43t59 104q13 69 -26 110t-115 41q-57 0 -118 -25z" />
    <glyph glyph-name="six" unicode="6" horiz-adv-x="600" 
d="M551 219q-19 -99 -102 -165t-179 -66t-153 65.5t-38 165.5q7 37 25.5 70t63.5 88l274 335l61 -43l-185 -226q21 7 51 7q87 0 144 -65.5t38 -165.5zM397 113q50 43 62 106t-21 106t-94 43t-111 -43t-62 -106t21 -106t94 -43t111 43z" />
    <glyph glyph-name="seven" unicode="7" horiz-adv-x="600" 
d="M606 681l-430 -693l-76 34l373 596h-324l16 82h432z" />
    <glyph glyph-name="eight" unicode="8" horiz-adv-x="600" 
d="M168 532q15 77 77.5 128.5t142.5 51.5q81 0 123.5 -51.5t27.5 -128.5q-16 -84 -100 -133q51 -26 75.5 -75.5t12.5 -112.5q-19 -93 -100 -158t-180 -65q-100 0 -155.5 65t-36.5 158q12 63 55 112t105 76q-63 49 -47 133zM147 214q-11 -58 22.5 -101t93.5 -43t110.5 43.5
t61.5 100.5q12 61 -21.5 102t-94.5 41t-110.5 -41t-61.5 -102zM260 534q-7 -39 13.5 -67t61.5 -28q42 0 73.5 28t38.5 67q8 40 -12.5 68t-62.5 28q-41 0 -72.5 -28t-39.5 -68z" />
    <glyph glyph-name="nine" unicode="9" horiz-adv-x="600" 
d="M122 481q19 99 102 165t179 66t153 -65.5t38 -165.5q-7 -37 -25.5 -70t-63.5 -88l-274 -335l-60 43l184 226q-21 -7 -51 -7q-87 0 -144 65.5t-38 165.5zM276 587q-50 -43 -62 -106t21 -106t94 -43t111 43t62 106t-21 106t-94 43t-111 -43z" />
    <glyph glyph-name="colon" unicode=":" horiz-adv-x="300" 
d="M48 49q5 26 26.5 43.5t46.5 17.5q26 0 40 -18t9 -43q-5 -26 -26.5 -43.5t-46.5 -17.5q-26 0 -40 18t-9 43zM130 471q5 26 26.5 43.5t46.5 17.5q26 0 40 -18t9 -43q-5 -26 -26.5 -43.5t-46.5 -17.5q-26 0 -40 18t-9 43z" />
    <glyph glyph-name="semicolon" unicode=";" horiz-adv-x="296" 
d="M128 471q5 26 26.5 43.5t46.5 17.5q26 0 40 -18t9 -43q-5 -26 -26.5 -43.5t-46.5 -17.5q-26 0 -40 18t-9 43zM-35 -138l121 264l91 -33l-155 -251z" />
    <glyph glyph-name="less" unicode="&#x3c;" horiz-adv-x="618" 
d="M80 322v20l440 260l38 -73l-339 -197l339 -197l-38 -73z" />
    <glyph glyph-name="equal" unicode="=" horiz-adv-x="618" 
d="M558 409h-478v78h478v-78zM558 177h-478v78h478v-78z" />
    <glyph glyph-name="greater" unicode="&#x3e;" horiz-adv-x="618" 
d="M558 342v-20l-440 -260l-38 73l339 197l-339 197l38 73z" />
    <glyph glyph-name="question" unicode="?" horiz-adv-x="477" 
d="M123 49q5 26 26.5 43.5t46.5 17.5q26 0 40 -18t9 -43q-5 -26 -26.5 -43.5t-46.5 -17.5q-26 0 -40 18t-9 43zM296 260l31 -64q-50 -42 -108 -42q-59 0 -87 33t-17 87q14 78 126 130q78 37 117.5 67t47.5 72q7 37 -21 63t-85 26q-79 0 -147 -71l-57 50q48 47 107.5 74
t113.5 27q91 0 140 -48t35 -122q-14 -70 -63.5 -115.5t-142.5 -85.5q-79 -35 -86 -70q-7 -37 35 -37q30 0 61 26z" />
    <glyph glyph-name="at" unicode="@" horiz-adv-x="964" 
d="M656 413l10 53h77l-52 -269q-7 -33 6 -47.5t35 -14.5q52 0 89 42t52 119q29 148 -55.5 252t-241.5 104q-148 0 -274.5 -111t-156.5 -267q-20 -101 11.5 -187t107.5 -137.5t179 -51.5q133 0 252 69l16 -54q-139 -75 -280 -75q-121 0 -211 61.5t-127.5 161.5t-15.5 213
q34 174 184.5 306t326.5 132q91 0 165.5 -34.5t120.5 -91.5t64.5 -133t2.5 -157q-19 -99 -83.5 -164t-152.5 -65q-39 0 -65 19t-31 54q-32 -34 -75.5 -53t-87.5 -19q-84 0 -132 60.5t-31 144.5q16 84 86.5 144t155.5 60q83 0 131 -64zM629 273l1 5q8 53 -24.5 91.5
t-85.5 38.5q-55 0 -102 -40t-58 -95t20.5 -95t86.5 -40t103 40t59 95z" />
    <glyph glyph-name="A" unicode="A" horiz-adv-x="628" 
d="M392 712h20l153 -700l-91 -24l-38 188h-277l-111 -188l-81 24zM365 524l-157 -266h211z" />
    <glyph glyph-name="B" unicode="B" horiz-adv-x="531" 
d="M214 0h-184l136 700h143q102 0 150.5 -48t34.5 -120q-10 -54 -48.5 -96.5t-90.5 -59.5q71 -15 101 -65t17 -118q-16 -85 -86 -139t-173 -54zM137 80h84q65 0 108.5 35.5t54.5 90.5q10 55 -22 91t-100 36h-76zM202 413h58q58 0 94 29t45 74q8 45 -16.5 74.5t-84.5 29.5
h-56z" />
    <glyph glyph-name="C" unicode="C" horiz-adv-x="711" 
d="M68 350q29 152 157 257t279 105q148 0 235 -101l-74 -62q-64 81 -177 81t-209.5 -81t-118.5 -199q-23 -118 41.5 -199t177.5 -81q114 0 209 81l50 -62q-127 -101 -275 -101q-151 0 -238 104.5t-57 257.5z" />
    <glyph glyph-name="D" unicode="D" horiz-adv-x="681" 
d="M166 700h189q153 0 238.5 -97t55.5 -253q-31 -156 -154 -253t-276 -97h-189zM137 82h97q117 0 208 74t115 194q23 120 -39 194t-179 74h-97z" />
    <glyph glyph-name="E" unicode="E" horiz-adv-x="480" 
d="M395 82l-15 -82h-350l136 700h340l-16 -82h-248l-36 -185h223l-16 -80h-223l-53 -271h258z" />
    <glyph glyph-name="F" unicode="F" horiz-adv-x="445" 
d="M122 0h-92l136 700h335l-16 -82h-243l-38 -195h218l-16 -80h-218z" />
    <glyph glyph-name="G" unicode="G" horiz-adv-x="788" 
d="M387 -12q-148 0 -233.5 105t-55.5 257q29 152 157 257t279 105q88 0 157.5 -38.5t107.5 -105.5l-81 -53q-28 53 -80.5 84t-119.5 31q-113 0 -209.5 -81t-118.5 -199q-23 -117 40 -198.5t173 -81.5q99 0 171 56t102 146h-189l16 82h288l-5 -29q-29 -150 -143 -243.5
t-256 -93.5z" />
    <glyph glyph-name="H" unicode="H" horiz-adv-x="640" 
d="M554 700h92l-136 -700h-92l66 342h-296l-66 -342h-92l136 700h92l-54 -276h296z" />
    <glyph glyph-name="I" unicode="I" horiz-adv-x="272" 
d="M176 700h92l-136 -700h-92z" />
    <glyph glyph-name="J" unicode="J" horiz-adv-x="416" 
d="M-35 66l79 54q17 -50 72 -50q42 0 73.5 36.5t44.5 101.5l96 492h92l-95 -489q-22 -111 -83 -167t-144 -56q-45 0 -80.5 21t-54.5 57z" />
    <glyph glyph-name="K" unicode="K" horiz-adv-x="586" 
d="M448 -12l-257 369l362 355l59 -57l-308 -298l227 -304zM258 700l-136 -700h-92l136 700h92z" />
    <glyph glyph-name="L" unicode="L" horiz-adv-x="460" 
d="M166 700h92l-121 -618h268l-15 -82h-360z" />
    <glyph glyph-name="M" unicode="M" horiz-adv-x="928" 
d="M421 -12h-20l-107 512l-237 -512l-85 25l340 699h20l120 -513l320 513h20l68 -699l-95 -25l-37 512z" />
    <glyph glyph-name="N" unicode="N" horiz-adv-x="737" 
d="M580 -12l-360 521l-98 -509h-92l137 705l25 7l360 -521l99 509h92l-137 -705z" />
    <glyph glyph-name="O" unicode="O" horiz-adv-x="832" 
d="M98 350q29 152 157 257t279 105t238 -104.5t58 -257.5q-30 -152 -158 -257t-279 -105t-238 104.5t-57 257.5zM190 350q-23 -118 41.5 -199t177.5 -81t209.5 81t119.5 199q22 118 -42.5 199t-177.5 81t-209.5 -81t-118.5 -199z" />
    <glyph glyph-name="P" unicode="P" horiz-adv-x="506" 
d="M193 368h63q66 0 111.5 33.5t56.5 91.5t-21.5 91.5t-97.5 33.5h-63zM177 286l-55 -286h-92l136 700h157q107 0 159 -58.5t34 -148.5q-17 -90 -92 -148.5t-182 -58.5h-65z" />
    <glyph glyph-name="Q" unicode="Q" horiz-adv-x="832" 
d="M98 350q29 152 157 257t279 105t238 -104.5t58 -257.5q-27 -132 -127 -229l63 -77l-69 -56l-62 77q-112 -77 -242 -77q-151 0 -238 104.5t-57 257.5zM490 248l66 54l96 -119q67 73 86 167q22 118 -42.5 199t-177.5 81t-209.5 -81t-118.5 -199q-23 -118 41.5 -199
t177.5 -81q91 0 177 57z" />
    <glyph glyph-name="R" unicode="R" horiz-adv-x="535" 
d="M242 618l-120 -618h-92l136 700h137q107 0 156.5 -54t32.5 -145q-26 -130 -157 -179l137 -283l-85 -51l-171 372l13 26h9q62 0 107 32.5t55 83.5q10 52 -23 84t-98 32h-37z" />
    <glyph glyph-name="S" unicode="S" horiz-adv-x="529" 
d="M15 131l82 53q10 -52 44 -83t83 -31q56 0 97.5 33t52.5 89q10 55 -12 92.5t-91 66.5q-77 32 -108 80t-18 119q14 69 71 115.5t136 46.5q51 0 89 -24.5t53 -66.5l-74 -48q-23 57 -84 57q-37 0 -64.5 -22.5t-33.5 -56.5q-8 -40 12.5 -69t78.5 -54q89 -38 121.5 -94
t15.5 -140q-17 -90 -87 -148t-171 -58q-73 0 -126.5 38.5t-66.5 104.5z" />
    <glyph glyph-name="T" unicode="T" horiz-adv-x="472" 
d="M90 618l16 82h432l-16 -82h-170l-120 -618h-92l120 618h-170z" />
    <glyph glyph-name="U" unicode="U" horiz-adv-x="642" 
d="M490 244l89 456h92l-89 -457q-23 -117 -107 -186t-184 -69t-157 69t-34 186l89 457h92l-89 -456q-16 -82 16.5 -128t98.5 -46t116.5 46t66.5 128z" />
    <glyph glyph-name="V" unicode="V" horiz-adv-x="628" 
d="M271 -12h-20l-153 700l91 24l109 -536l317 536l81 -24z" />
    <glyph glyph-name="W" unicode="W" horiz-adv-x="988" 
d="M572 712h20l92 -515l284 515l88 -25l-403 -699h-20l-95 496l-289 -496h-20l-131 699l98 25l84 -515z" />
    <glyph glyph-name="X" unicode="X" horiz-adv-x="615" 
d="M114 665l81 47l147 -273l254 273l63 -47l-277 -298l179 -331l-82 -48l-165 306l-284 -306l-64 48l309 331z" />
    <glyph glyph-name="Y" unicode="Y" horiz-adv-x="594" 
d="M348 286l-55 -286h-92l55 286l-167 382l83 44l147 -339l279 339l65 -44z" />
    <glyph glyph-name="Z" unicode="Z" horiz-adv-x="505" 
d="M-24 0l-8 19l437 599h-278l16 82h403l7 -19l-438 -599h335l-15 -82h-459z" />
    <glyph glyph-name="bracketleft" unicode="[" horiz-adv-x="346" 
d="M44 -130l171 880h196l-13 -70h-110l-144 -740h110l-14 -70h-196z" />
    <glyph glyph-name="backslash" unicode="\" horiz-adv-x="501" 
d="M177 748l247 -824l-76 -34l-247 824z" />
    <glyph glyph-name="bracketright" unicode="]" horiz-adv-x="346" 
d="M321 750l-171 -880h-196l14 70h110l144 740h-110l13 70h196z" />
    <glyph glyph-name="asciicircum" unicode="^" horiz-adv-x="618" 
d="M309 700h20l211 -279l-70 -52l-151 204l-151 -204l-70 52z" />
    <glyph glyph-name="underscore" unicode="_" horiz-adv-x="500" 
d="M-83 -170l14 68h499l-14 -68h-499z" />
    <glyph glyph-name="grave" unicode="`" horiz-adv-x="400" 
d="M187 693l61 51l115 -139l-61 -51z" />
    <glyph glyph-name="a" unicode="a" horiz-adv-x="632" 
d="M498 400l13 68h86l-90 -468h-86l13 68q-80 -80 -196 -80q-102 0 -160 71t-38 175t106 175t188 71q116 0 164 -80zM126 234q-14 -71 26.5 -120.5t110.5 -49.5t129.5 49t73.5 121q14 71 -26.5 120.5t-110.5 49.5t-129.5 -49t-73.5 -121z" />
    <glyph glyph-name="b" unicode="b" horiz-adv-x="632" 
d="M256 750l-68 -350q82 80 196 80q102 0 160 -71t38 -175t-106 -175t-188 -71q-117 0 -164 80l-13 -68h-86l145 750h86zM496 234q14 71 -26.5 120.5t-110.5 49.5t-129.5 -49t-73.5 -121q-14 -71 26.5 -120.5t110.5 -49.5t129.5 49t73.5 121z" />
    <glyph glyph-name="c" unicode="c" horiz-adv-x="504" 
d="M341 480q100 0 161 -67l-68 -57q-38 48 -108 48t-128 -49.5t-72 -120.5t25 -120.5t109 -49.5q68 0 126 48l46 -57q-86 -67 -187 -67q-104 0 -164.5 71.5t-40.5 174.5t108.5 174.5t192.5 71.5z" />
    <glyph glyph-name="d" unicode="d" horiz-adv-x="632" 
d="M518 400l68 350h86l-145 -750h-86l13 68q-80 -80 -196 -80q-102 0 -160 71t-38 175t106 175t188 71q116 0 164 -80zM146 234q-14 -71 26.5 -120.5t110.5 -49.5t129.5 49t73.5 121q14 71 -26.5 120.5t-110.5 49.5t-129.5 -49t-73.5 -121z" />
    <glyph glyph-name="e" unicode="e" horiz-adv-x="580" 
d="M283 64q93 0 158 75l58 -46q-102 -105 -231 -105q-109 0 -168.5 68.5t-38.5 177.5q19 102 106 174t188 72t159 -69.5t39 -176.5q-2 -15 -7 -26h-402q-4 -66 36.5 -105t102.5 -39zM163 284h308q-4 55 -39.5 87.5t-91.5 32.5q-49 0 -100 -32t-77 -88z" />
    <glyph glyph-name="f" unicode="f" horiz-adv-x="341" 
d="M51 392l14 76h78l20 102q18 91 68 141t129 50q81 0 116 -63l-73 -51q-14 38 -57 38q-75 0 -97 -116l-20 -101h139l-14 -76h-139l-131 -674h-86l131 674h-78z" />
    <glyph glyph-name="g" unicode="g" horiz-adv-x="632" 
d="M498 400l13 68h86l-88 -455q-57 -295 -324 -295q-132 0 -189 112l76 47q37 -83 128 -83q181 0 221 208l13 66q-80 -80 -196 -80q-102 0 -160 71t-38 175t106 175t188 71q116 0 164 -80zM126 234q-14 -71 26.5 -120.5t110.5 -49.5t129.5 49t73.5 121q14 71 -26.5 120.5
t-110.5 49.5t-129.5 -49t-73.5 -121z" />
    <glyph glyph-name="h" unicode="h" horiz-adv-x="537" 
d="M331 0l55 285q11 55 -16 87t-72 32q-46 0 -83.5 -32.5t-47.5 -81.5l-56 -290h-86l145 750h86l-63 -324q64 54 141 54q73 0 115 -48.5t27 -125.5l-59 -306h-86z" />
    <glyph glyph-name="i" unicode="i" horiz-adv-x="246" 
d="M206 468l-90 -468h-86l90 468h86zM139 649q4 25 25 42.5t46 17.5t39.5 -17.5t9.5 -42.5t-26 -42.5t-46 -17.5t-39 17.5t-9 42.5z" />
    <glyph glyph-name="j" unicode="j" horiz-adv-x="244" 
d="M-211 -219l73 51q14 -38 57 -38q74 0 96 116l108 558h86l-108 -559q-18 -91 -68 -141t-128 -50q-81 0 -116 63zM141 649q4 25 25 42.5t46 17.5t39.5 -17.5t9.5 -42.5t-26 -42.5t-46 -17.5t-39 17.5t-9 42.5z" />
    <glyph glyph-name="k" unicode="k" horiz-adv-x="501" 
d="M159 251l283 229l49 -62l-218 -169l172 -199l-74 -62l-212 263l-48 -251h-86l145 750h86z" />
    <glyph glyph-name="l" unicode="l" horiz-adv-x="246" 
d="M261 750l-145 -750h-86l145 750h86z" />
    <glyph glyph-name="m" unicode="m" horiz-adv-x="843" 
d="M331 0l55 287q10 52 -15.5 84.5t-72.5 32.5q-45 0 -83 -32.5t-48 -81.5l-56 -290h-86l90 468h86l-8 -42q64 54 141 54q97 0 133 -76q79 76 173 76q76 0 116.5 -48.5t24.5 -129.5l-58 -302h-86l55 287q10 52 -15.5 84.5t-72.5 32.5q-44 0 -82.5 -31.5t-47.5 -77.5
l-57 -295h-86z" />
    <glyph glyph-name="n" unicode="n" horiz-adv-x="537" 
d="M331 0l55 285q11 55 -16 87t-72 32q-46 0 -83.5 -32.5t-47.5 -81.5l-56 -290h-86l90 468h86l-8 -42q64 54 141 54q73 0 115 -48.5t27 -125.5l-59 -306h-86z" />
    <glyph glyph-name="o" unicode="o" horiz-adv-x="596" 
d="M100 59q-60 72 -40 175t108.5 174.5t192.5 71.5t164.5 -71.5t40.5 -174.5t-108.5 -174.5t-192.5 -71.5t-165 71zM218 354q-58 -49 -72 -120t25 -120.5t109 -49.5t128 49.5t72 120.5t-25 120.5t-109 49.5t-128 -50z" />
    <glyph glyph-name="p" unicode="p" horiz-adv-x="632" 
d="M124 68l-68 -350h-86l145 750h86l-13 -68q80 80 196 80q102 0 160 -71t38 -175t-106 -175t-188 -71q-116 0 -164 80zM496 234q14 71 -26.5 120.5t-110.5 49.5t-129.5 -49t-73.5 -121q-14 -71 26.5 -120.5t110.5 -49.5t129.5 49t73.5 121z" />
    <glyph glyph-name="q" unicode="q" horiz-adv-x="632" 
d="M386 -282l68 350q-82 -80 -196 -80q-102 0 -160 71t-38 175t106 175t188 71q117 0 164 -80l13 68h86l-145 -750h-86zM146 234q-14 -71 26.5 -120.5t110.5 -49.5t129.5 49t73.5 121q14 71 -26.5 120.5t-110.5 49.5t-129.5 -49t-73.5 -121z" />
    <glyph glyph-name="r" unicode="r" horiz-adv-x="377" 
d="M402 465l-39 -79q-30 18 -66 18q-48 0 -86 -39t-49 -98l-51 -267h-86l90 468h86l-9 -49q64 61 134 61q45 0 76 -15z" />
    <glyph glyph-name="s" unicode="s" horiz-adv-x="391" 
d="M154 64q34 0 57.5 19t28.5 48q6 31 -10.5 52t-61.5 41q-108 48 -91 132q10 53 55.5 88.5t101.5 35.5q36 0 65.5 -18.5t41.5 -50.5l-67 -44q-11 37 -53 37q-21 0 -37.5 -12.5t-19.5 -29.5q-4 -23 11 -39.5t54 -34.5q117 -52 98 -151q-13 -65 -62.5 -107t-125.5 -42
q-48 0 -86 28t-51 76l74 47q19 -75 78 -75z" />
    <glyph glyph-name="t" unicode="t" horiz-adv-x="328" 
d="M51 392l14 76h78l26 132h86l-26 -132h119l-14 -76h-119l-76 -392h-86l76 392h-78z" />
    <glyph glyph-name="u" unicode="u" horiz-adv-x="542" 
d="M216 468l-55 -285q-11 -55 16 -87t72 -32q46 0 83.5 32.5t47.5 81.5l56 290h86l-90 -468h-86l8 42q-64 -54 -141 -54q-73 0 -115 48.5t-27 125.5l59 306h86z" />
    <glyph glyph-name="v" unicode="v" horiz-adv-x="480" 
d="M197 -12h-20l-119 466l84 26l77 -330l205 330l74 -26z" />
    <glyph glyph-name="w" unicode="w" horiz-adv-x="762" 
d="M414 480h20l81 -315l197 315l78 -26l-301 -466h-20l-78 325l-204 -325h-20l-119 466l88 26l75 -315z" />
    <glyph glyph-name="x" unicode="x" horiz-adv-x="463" 
d="M66 433l75 47l100 -170l167 170l57 -47l-185 -189l124 -208l-77 -48l-112 190l-185 -190l-59 48l205 208z" />
    <glyph glyph-name="y" unicode="y" horiz-adv-x="495" 
d="M60 -294l-75 34l167 276l-89 437l87 27l65 -358l217 358l76 -27z" />
    <glyph glyph-name="z" unicode="z" horiz-adv-x="413" 
d="M-18 0l-4 18l291 374h-183l14 76h308l4 -18l-294 -374h234l-14 -76h-356z" />
    <glyph glyph-name="braceleft" unicode="{" horiz-adv-x="385" 
d="M88 300l4 20q93 34 111 131l29 150q13 65 61.5 107t109.5 42h44l-14 -72h-26q-73 0 -92 -96l-23 -115q-20 -106 -118 -157q77 -50 57 -157l-22 -115q-9 -45 4.5 -70.5t50.5 -25.5h26l-14 -72h-44q-62 0 -94 42.5t-19 106.5l29 150q10 49 -3 80.5t-57 50.5z" />
    <glyph glyph-name="bar" unicode="|" horiz-adv-x="292" 
d="M120 -200v969h72v-969h-72z" />
    <glyph glyph-name="braceright" unicode="}" horiz-adv-x="385" 
d="M317 320l-4 -20q-51 -19 -76.5 -50.5t-35.5 -80.5l-29 -150q-13 -65 -61.5 -107t-109.5 -42h-44l14 72h26q74 0 93 96l22 115q20 105 119 157q-78 51 -58 157l23 115q9 44 -5 70t-51 26h-26l14 72h44q62 0 94 -42.5t19 -106.5l-29 -150q-9 -49 4.5 -80.5t56.5 -50.5z" />
    <glyph glyph-name="asciitilde" unicode="~" horiz-adv-x="618" 
d="M284 308q-37 32 -69 32q-58 0 -69 -94l-78 24q12 67 50 106.5t97 39.5q68 0 138 -61q37 -32 69 -32q58 0 69 94l78 -24q-12 -67 -50 -106.5t-97 -39.5q-68 0 -138 61z" />
    <glyph glyph-name="uni00A0" unicode="&#xa0;" horiz-adv-x="300" 
 />
    <glyph glyph-name="exclamdown" unicode="&#xa1;" horiz-adv-x="296" 
d="M98 -236h-92l103 531h92zM239 415q-4 -25 -25.5 -43t-47.5 -18q-25 0 -39.5 17.5t-9.5 43.5t26.5 43.5t46.5 17.5q26 0 40 -18t9 -43z" />
    <glyph glyph-name="cent" unicode="&#xa2;" horiz-adv-x="496" 
d="M313 476l16 80h70l-15 -77q84 -9 137 -67l-66 -60q-45 48 -110 48q-67 0 -125 -47t-72 -119t26 -119t107 -47q65 0 128 48l42 -60q-75 -58 -163 -67l-16 -83h-70l17 86q-88 15 -133.5 82t-27.5 160t89.5 160t165.5 82z" />
    <glyph glyph-name="sterling" unicode="&#xa3;" horiz-adv-x="585" 
d="M174 372l29 152q16 83 74.5 135.5t145.5 52.5q61 0 98 -21t64 -70l-80 -52q-37 61 -98 61q-44 0 -73.5 -31t-38.5 -79l-29 -148h156l-13 -68h-156l-11 -53q-19 -99 -68 -169h326l-15 -82h-460l-4 17q103 98 126 219l14 68h-84l13 68h84z" />
    <glyph glyph-name="currency" unicode="&#xa4;" horiz-adv-x="707" 
d="M267 433q-37 -39 -37 -101t37 -101t96 -39t96 39t37 101t-37 101t-96 39t-96 -39zM180 449l-90 90l63 64l88 -89q55 37 122 37t122 -37l88 89l63 -64l-90 -90q32 -52 32 -117t-32 -117l90 -90l-63 -64l-88 89q-55 -37 -122 -37t-122 37l-88 -89l-63 64l90 90
q-32 52 -32 117t32 117z" />
    <glyph glyph-name="yen" unicode="&#xa5;" horiz-adv-x="594" 
d="M233 166h-189l11 58h189l11 57h-189l11 58h155l-143 329l83 44l147 -339l279 339l65 -44l-272 -329h157l-11 -58h-190l-11 -57h190l-11 -58h-190l-32 -166h-92z" />
    <glyph glyph-name="brokenbar" unicode="&#xa6;" horiz-adv-x="292" 
d="M120 220h72v-320h-72v320zM120 688h72v-320h-72v320z" />
    <glyph glyph-name="section" unicode="&#xa7;" horiz-adv-x="516" 
d="M99 319q8 45 44.5 80t87.5 51q-72 52 -57 130q11 56 58 94t111 38q42 0 73 -21.5t44 -58.5l-74 -41q-16 42 -58 42q-24 0 -42.5 -15t-23.5 -37q-10 -50 71 -88q63 -30 91.5 -77.5t16.5 -108.5q-20 -105 -131 -134q74 -51 58 -134q-11 -55 -62 -96.5t-115 -41.5
q-42 0 -76 22t-47 58l75 40q15 -41 64 -41q26 0 47 15.5t26 41.5q6 31 -13 53t-61 43q-132 63 -107 186zM220 375q-30 -24 -37 -62t13 -62.5t57 -24.5t67 24.5t37 62.5t-13 62.5t-57 24.5t-67 -25z" />
    <glyph glyph-name="dieresis" unicode="&#xa8;" horiz-adv-x="400" 
d="M126 649q4 23 24 39.5t43 16.5t36.5 -16.5t8.5 -39.5q-4 -23 -24 -39.5t-43 -16.5t-36.5 16.5t-8.5 39.5zM314 649q4 23 24 39.5t43 16.5t36.5 -16.5t8.5 -39.5q-4 -23 -24 -39.5t-43 -16.5t-36.5 16.5t-8.5 39.5z" />
    <glyph glyph-name="copyright" unicode="&#xa9;" horiz-adv-x="830" 
d="M440 545q78 0 138 -55l-47 -48q-38 40 -91 40q-52 0 -88.5 -38t-36.5 -92t36.5 -92t88.5 -38q53 0 91 40l47 -49q-61 -54 -138 -54q-81 0 -140.5 57t-59.5 136t59.5 136t140.5 57zM169 94q-106 106 -106 256t106 256t256 106t256 -106t106 -256t-106 -256t-256 -106
t-256 106zM208 569q-89 -90 -89 -219t89.5 -219.5t216.5 -90.5t216.5 90.5t89.5 219.5t-89.5 219.5t-216.5 90.5t-217 -91z" />
    <glyph glyph-name="ordfeminine" unicode="&#xaa;" horiz-adv-x="440" 
d="M411 650l7 36h76l-66 -339h-76l7 36q-56 -45 -126 -45q-73 0 -114.5 52.5t-27.5 126.5t76.5 126t135.5 52q68 0 108 -45zM167 517q-9 -45 17.5 -77.5t70.5 -32.5q43 0 81 31t48 74l1 5q8 44 -18 76t-70 32t-83 -32t-47 -76z" />
    <glyph glyph-name="guillemotleft" unicode="&#xab;" horiz-adv-x="570" 
d="M59 304l3 16l256 169l31 -56l-189 -121l142 -121l-53 -56zM264 304l3 16l256 169l31 -56l-189 -121l142 -121l-53 -56z" />
    <glyph glyph-name="logicalnot" unicode="&#xac;" horiz-adv-x="618" 
d="M65 366v78h498v-281h-90v203h-408z" />
    <glyph glyph-name="uni00AD" unicode="&#xad;" horiz-adv-x="406" 
d="M352 293h-286l16 78h286z" />
    <glyph glyph-name="registered" unicode="&#xae;" horiz-adv-x="830" 
d="M386 484v-321h-72v380h122q61 0 96.5 -30t35.5 -84q0 -67 -67 -91l105 -147l-57 -40l-138 208l5 18h18q26 0 44 13.5t18 38.5q0 55 -61 55h-49zM169 94q-106 106 -106 256t106 256t256 106t256 -106t106 -256t-106 -256t-256 -106t-256 106zM208 569q-89 -90 -89 -219
t89.5 -219.5t216.5 -90.5t216.5 90.5t89.5 219.5t-89.5 219.5t-216.5 90.5t-217 -91z" />
    <glyph glyph-name="macron" unicode="&#xaf;" horiz-adv-x="500" 
d="M69 615l13 68h500l-13 -68h-500z" />
    <glyph glyph-name="degree" unicode="&#xb0;" horiz-adv-x="400" 
d="M114 481q-39 40 -39 96t39.5 95.5t95.5 39.5t95.5 -39.5t39.5 -95.5t-39.5 -95.5t-95.5 -39.5t-96 39zM160 628q-19 -20 -19 -51t19.5 -51.5t49.5 -20.5t49.5 20.5t19.5 51.5t-19.5 51.5t-49.5 20.5t-50 -21z" />
    <glyph glyph-name="plusminus" unicode="&#xb1;" horiz-adv-x="618" 
d="M274 157v199h-194v78h194v199h90v-199h194v-78h-194v-199h-90zM558 36h-478v78h478v-78z" />
    <glyph glyph-name="twosuperior" unicode="&#xb2;" 
d="M57 242l-7 18l200 215q58 63 66 103q5 30 -9 48.5t-45 18.5q-47 0 -90 -55l-49 36q67 86 148 86q65 0 97 -37.5t21 -97.5q-12 -61 -88 -140l-122 -128h164l-13 -67h-273z" />
    <glyph glyph-name="threesuperior" unicode="&#xb3;" 
d="M184 473l-10 20l118 140h-157l13 67h253l9 -19l-132 -159q101 -37 80 -143q-11 -59 -62.5 -104t-125.5 -45q-42 0 -76 21.5t-51 62.5l63 46q13 -32 30.5 -47.5t47.5 -15.5q37 0 65 23t35 58q8 42 -16 68.5t-84 26.5z" />
    <glyph glyph-name="acute" unicode="&#xb4;" horiz-adv-x="400" 
d="M339 744l41 -51l-169 -139l-41 51z" />
    <glyph glyph-name="mu" unicode="&#xb5;" horiz-adv-x="588" 
d="M66 -193h-86l128 661h86l-57 -295q-10 -53 29 -81t93 -28q52 0 101 33t58 81l56 290h86l-90 -468h-86l8 42q-64 -54 -159 -54q-76 0 -123 45z" />
    <glyph glyph-name="paragraph" unicode="&#xb6;" horiz-adv-x="572" 
d="M275 700h215v-831h-73v756h-45v-756h-76v398h-9q-98 0 -166 59t-68 159t62 157.5t160 57.5z" />
    <glyph glyph-name="periodcentered" unicode="&#xb7;" horiz-adv-x="300" 
d="M181 395q26 0 40 -18t9 -43q-4 -25 -25 -43t-47 -18q-25 0 -40 17.5t-10 43.5t26.5 43.5t46.5 17.5z" />
    <glyph glyph-name="cedilla" unicode="&#xb8;" horiz-adv-x="400" 
d="M67 -83l-1 13l48 72h67l-31 -44q37 -9 55 -34.5t11 -60.5q-8 -41 -47 -71t-101 -30q-45 0 -83 30l44 47q22 -17 50 -17q25 0 42 12.5t21 32.5q4 24 -15.5 37t-59.5 13z" />
    <glyph glyph-name="onesuperior" unicode="&#xb9;" 
d="M319 712l19 -7l-90 -463h-73l70 361l-80 -38l-22 57z" />
    <glyph glyph-name="ordmasculine" unicode="&#xba;" horiz-adv-x="440" 
d="M134 408q-44 53 -30 126t79 125.5t139 52.5t118 -52.5t30 -125.5t-78.5 -125.5t-138.5 -52.5t-119 52zM179 534q-9 -46 16 -78t71 -32q45 0 82.5 32t46.5 78q9 45 -16.5 77t-70.5 32t-82.5 -32t-46.5 -77z" />
    <glyph glyph-name="guillemotright" unicode="&#xbb;" horiz-adv-x="570" 
d="M532 320l-3 -16l-256 -169l-31 56l188 121l-141 121l53 56zM327 320l-3 -16l-256 -169l-31 56l188 121l-141 121l53 56z" />
    <glyph glyph-name="onequarter" unicode="&#xbc;" horiz-adv-x="950" 
d="M319 712l19 -7l-90 -463h-73l70 361l-80 -38l-22 57zM523 91l-7 20l337 365l21 -5l-61 -313h50l-13 -67h-50l-16 -85h-73l16 85h-204zM639 158h101l28 145zM700 715l54 -33l-509 -697l-54 33z" />
    <glyph glyph-name="onehalf" unicode="&#xbd;" horiz-adv-x="950" 
d="M552 6l-7 18l200 215q58 63 66 103q6 30 -8 48.5t-46 18.5q-47 0 -90 -55l-49 36q68 86 148 86q65 0 97 -37.5t21 -97.5q-12 -60 -87 -140l-123 -128h164l-13 -67h-273zM700 715l54 -33l-509 -697l-54 33zM319 712l19 -7l-90 -463h-73l70 361l-80 -38l-22 57z" />
    <glyph glyph-name="threequarters" unicode="&#xbe;" horiz-adv-x="950" 
d="M523 91l-7 20l337 365l21 -5l-61 -313h50l-13 -67h-50l-16 -85h-73l16 85h-204zM639 158h101l28 145zM184 473l-10 20l118 140h-157l13 67h253l9 -19l-132 -159q101 -37 80 -143q-11 -59 -62.5 -104t-125.5 -45q-42 0 -76 21.5t-51 62.5l63 46q13 -32 30.5 -47.5
t47.5 -15.5q37 0 65 23t35 58q8 42 -16 68.5t-84 26.5zM700 715l54 -33l-509 -697l-54 33z" />
    <glyph glyph-name="questiondown" unicode="&#xbf;" horiz-adv-x="477" 
d="M357 415q-4 -25 -25.5 -43t-47.5 -18q-25 0 -39.5 17.5t-9.5 43.5t26.5 43.5t46.5 17.5q26 0 40 -18t9 -43zM184 204l-30 64q50 42 107 42q59 0 87 -33t17 -87q-14 -78 -126 -130q-78 -37 -117.5 -67t-47.5 -72q-7 -37 21 -63t85 -26q80 0 148 71l56 -50
q-47 -47 -106.5 -74t-114.5 -27q-91 0 -140 48t-35 122q13 70 63 115.5t143 85.5q79 35 86 70q7 37 -35 37q-30 0 -61 -26z" />
    <glyph glyph-name="Agrave" unicode="&#xc0;" horiz-adv-x="628" 
d="M392 712h20l153 -700l-91 -24l-38 188h-277l-111 -188l-81 24zM365 524l-157 -266h211zM308 897l61 51l115 -139l-61 -51z" />
    <glyph glyph-name="Aacute" unicode="&#xc1;" horiz-adv-x="628" 
d="M392 712h20l153 -700l-91 -24l-38 188h-277l-111 -188l-81 24zM365 524l-157 -266h211zM540 948l41 -51l-169 -139l-41 51z" />
    <glyph glyph-name="Acircumflex" unicode="&#xc2;" horiz-adv-x="628" 
d="M392 712h20l153 -700l-91 -24l-38 188h-277l-111 -188l-81 24zM365 524l-157 -266h211zM269 809l169 139h20l115 -139l-61 -51l-82 99l-120 -99z" />
    <glyph glyph-name="Atilde" unicode="&#xc3;" horiz-adv-x="628" 
d="M392 712h20l153 -700l-91 -24l-38 188h-277l-111 -188l-81 24zM365 524l-157 -266h211zM406 823q-19 21 -38 21q-29 0 -44 -49l-66 21q15 46 49 73.5t72 27.5q42 0 74 -34q21 -21 39 -21q29 0 44 49l65 -21q-15 -46 -48.5 -73.5t-71.5 -27.5q-43 0 -75 34z" />
    <glyph glyph-name="Adieresis" unicode="&#xc4;" horiz-adv-x="628" 
d="M392 712h20l153 -700l-91 -24l-38 188h-277l-111 -188l-81 24zM365 524l-157 -266h211zM279 853q4 23 24 39.5t43 16.5t36.5 -16.5t8.5 -39.5q-4 -23 -24 -39.5t-43 -16.5t-36.5 16.5t-8.5 39.5zM467 853q4 23 24 39.5t43 16.5t36.5 -16.5t8.5 -39.5q-4 -23 -24 -39.5
t-43 -16.5t-36.5 16.5t-8.5 39.5z" />
    <glyph glyph-name="Aring" unicode="&#xc5;" horiz-adv-x="628" 
d="M392 712h20l153 -700l-91 -24l-38 188h-277l-111 -188l-81 24zM365 524l-157 -266h211zM382 853q-4 -20 7 -34t31 -14t36 14t20 34q5 20 -6 34t-31 14t-36 -14t-21 -34zM323 853q9 44 46 74t81 30t69 -30t16 -74q-8 -44 -45 -74t-81 -30t-69 29.5t-17 74.5z" />
    <glyph glyph-name="AE" unicode="&#xc6;" horiz-adv-x="818" 
d="M733 82l-15 -82h-350l34 176h-217l-145 -188l-66 43l521 669h349l-16 -82h-248l-36 -185h223l-16 -80h-223l-53 -271h258zM249 258h169l56 292z" />
    <glyph glyph-name="Ccedilla" unicode="&#xc7;" horiz-adv-x="711" 
d="M289 -83l-1 13l41 63q-126 21 -193.5 121t-40.5 236q29 152 157 257t279 105q148 0 235 -101l-74 -62q-64 81 -177 81t-209.5 -81t-118.5 -199q-23 -118 41.5 -199t177.5 -81q114 0 209 81l50 -62q-125 -99 -272 -101l-21 -30q37 -9 55 -34.5t11 -60.5q-8 -41 -47 -71
t-101 -30q-45 0 -83 30l44 47q22 -17 50 -17q25 0 42 12.5t21 32.5q4 24 -15.5 37t-59.5 13z" />
    <glyph glyph-name="Egrave" unicode="&#xc8;" horiz-adv-x="480" 
d="M395 82l-15 -82h-350l136 700h340l-16 -82h-248l-36 -185h223l-16 -80h-223l-53 -271h258zM274 897l61 51l115 -139l-61 -51z" />
    <glyph glyph-name="Eacute" unicode="&#xc9;" horiz-adv-x="480" 
d="M395 82l-15 -82h-350l136 700h340l-16 -82h-248l-36 -185h223l-16 -80h-223l-53 -271h258zM439 948l41 -51l-169 -139l-41 51z" />
    <glyph glyph-name="Ecircumflex" unicode="&#xca;" horiz-adv-x="480" 
d="M395 82l-15 -82h-350l136 700h340l-16 -82h-248l-36 -185h223l-16 -80h-223l-53 -271h258zM204 809l169 139h20l115 -139l-61 -51l-82 99l-120 -99z" />
    <glyph glyph-name="Edieresis" unicode="&#xcb;" horiz-adv-x="480" 
d="M395 82l-15 -82h-350l136 700h340l-16 -82h-248l-36 -185h223l-16 -80h-223l-53 -271h258zM214 853q4 23 24 39.5t43 16.5t36.5 -16.5t8.5 -39.5q-4 -23 -24 -39.5t-43 -16.5t-36.5 16.5t-8.5 39.5zM402 853q4 23 24 39.5t43 16.5t36.5 -16.5t8.5 -39.5q-4 -23 -24 -39.5
t-43 -16.5t-36.5 16.5t-8.5 39.5z" />
    <glyph glyph-name="Igrave" unicode="&#xcc;" horiz-adv-x="272" 
d="M176 700h92l-136 -700h-92zM120 897l61 51l115 -139l-61 -51z" />
    <glyph glyph-name="Iacute" unicode="&#xcd;" horiz-adv-x="272" 
d="M176 700h92l-136 -700h-92zM359 948l41 -51l-169 -139l-41 51z" />
    <glyph glyph-name="Icircumflex" unicode="&#xce;" horiz-adv-x="272" 
d="M91 809l169 139h20l115 -139l-61 -51l-82 99l-120 -99zM176 700h92l-136 -700h-92z" />
    <glyph glyph-name="Idieresis" unicode="&#xcf;" horiz-adv-x="272" 
d="M101 853q4 23 24 39.5t43 16.5t36.5 -16.5t8.5 -39.5q-4 -23 -24 -39.5t-43 -16.5t-36.5 16.5t-8.5 39.5zM289 853q4 23 24 39.5t43 16.5t36.5 -16.5t8.5 -39.5q-4 -23 -24 -39.5t-43 -16.5t-36.5 16.5t-8.5 39.5zM176 700h92l-136 -700h-92z" />
    <glyph glyph-name="Eth" unicode="&#xd0;" horiz-adv-x="681" 
d="M91 315h-75l13 68h75l62 317h189q153 0 238.5 -97t55.5 -253q-31 -156 -154 -253t-276 -97h-189zM137 82h97q117 0 208 74t115 194q23 120 -39 194t-179 74h-97l-46 -235h161l-13 -68h-161z" />
    <glyph glyph-name="Ntilde" unicode="&#xd1;" horiz-adv-x="737" 
d="M580 -12l-360 521l-98 -509h-92l137 705l25 7l360 -521l99 509h92l-137 -705zM460 823q-19 21 -38 21q-29 0 -44 -49l-66 21q15 46 49 73.5t72 27.5q42 0 74 -34q21 -21 39 -21q29 0 44 49l65 -21q-15 -46 -48.5 -73.5t-71.5 -27.5q-43 0 -75 34z" />
    <glyph glyph-name="Ograve" unicode="&#xd2;" horiz-adv-x="832" 
d="M68 350q29 152 157 257t279 105t238 -104.5t58 -257.5q-30 -152 -158 -257t-279 -105t-238 104.5t-57 257.5zM160 350q-23 -118 41.5 -199t177.5 -81t209.5 81t119.5 199q22 118 -42.5 199t-177.5 81t-209.5 -81t-118.5 -199zM413 897l61 51l115 -139l-61 -51z" />
    <glyph glyph-name="Oacute" unicode="&#xd3;" horiz-adv-x="832" 
d="M68 350q29 152 157 257t279 105t238 -104.5t58 -257.5q-30 -152 -158 -257t-279 -105t-238 104.5t-57 257.5zM160 350q-23 -118 41.5 -199t177.5 -81t209.5 81t119.5 199q22 118 -42.5 199t-177.5 81t-209.5 -81t-118.5 -199zM620 948l41 -51l-169 -139l-41 51z" />
    <glyph glyph-name="Ocircumflex" unicode="&#xd4;" horiz-adv-x="832" 
d="M68 350q29 152 157 257t279 105t238 -104.5t58 -257.5q-30 -152 -158 -257t-279 -105t-238 104.5t-57 257.5zM160 350q-23 -118 41.5 -199t177.5 -81t209.5 81t119.5 199q22 118 -42.5 199t-177.5 81t-209.5 -81t-118.5 -199zM371 809l169 139h20l115 -139l-61 -51
l-82 99l-120 -99z" />
    <glyph glyph-name="Otilde" unicode="&#xd5;" horiz-adv-x="832" 
d="M98 350q29 152 157 257t279 105t238 -104.5t58 -257.5q-30 -152 -158 -257t-279 -105t-238 104.5t-57 257.5zM190 350q-23 -118 41.5 -199t177.5 -81t209.5 81t119.5 199q22 118 -42.5 199t-177.5 81t-209.5 -81t-118.5 -199zM538 823q-19 21 -38 21q-29 0 -44 -49
l-66 21q15 46 49 73.5t72 27.5q42 0 74 -34q21 -21 39 -21q29 0 44 49l65 -21q-15 -46 -48.5 -73.5t-71.5 -27.5q-43 0 -75 34z" />
    <glyph glyph-name="Odieresis" unicode="&#xd6;" horiz-adv-x="832" 
d="M98 350q29 152 157 257t279 105t238 -104.5t58 -257.5q-30 -152 -158 -257t-279 -105t-238 104.5t-57 257.5zM190 350q-23 -118 41.5 -199t177.5 -81t209.5 81t119.5 199q22 118 -42.5 199t-177.5 81t-209.5 -81t-118.5 -199zM411 853q4 23 24 39.5t43 16.5t36.5 -16.5
t8.5 -39.5q-4 -23 -24 -39.5t-43 -16.5t-36.5 16.5t-8.5 39.5zM599 853q4 23 24 39.5t43 16.5t36.5 -16.5t8.5 -39.5q-4 -23 -24 -39.5t-43 -16.5t-36.5 16.5t-8.5 39.5z" />
    <glyph glyph-name="multiply" unicode="&#xd7;" horiz-adv-x="618" 
d="M380 332l159 -159l-61 -61l-159 159l-159 -159l-61 61l159 159l-159 159l61 61l159 -159l159 159l61 -61z" />
    <glyph glyph-name="Oslash" unicode="&#xd8;" horiz-adv-x="832" 
d="M664 681l91 119l54 -33l-92 -119q64 -50 91.5 -127.5t9.5 -170.5q-30 -152 -158 -257t-279 -105q-79 0 -144 31l-90 -119l-52 34l90 118q-64 49 -90.5 127t-8.5 171q29 152 157 257t279 105q78 0 142 -31zM397 70q113 0 209.5 81t119.5 199q13 68 -5 126.5t-60 96.5
l-368 -481q49 -22 104 -22zM178 350q-14 -68 3.5 -126t59.5 -97l368 481q-49 22 -103 22q-113 0 -209.5 -81t-118.5 -199z" />
    <glyph glyph-name="Ugrave" unicode="&#xd9;" horiz-adv-x="642" 
d="M467 244l89 456h92l-89 -457q-23 -117 -107 -186t-184 -69t-157 69t-34 186l89 457h92l-89 -456q-16 -82 16.5 -128t98.5 -46t116.5 46t66.5 128zM325 897l61 51l115 -139l-61 -51z" />
    <glyph glyph-name="Uacute" unicode="&#xda;" horiz-adv-x="642" 
d="M467 244l89 456h92l-89 -457q-23 -117 -107 -186t-184 -69t-157 69t-34 186l89 457h92l-89 -456q-16 -82 16.5 -128t98.5 -46t116.5 46t66.5 128zM526 948l41 -51l-169 -139l-41 51z" />
    <glyph glyph-name="Ucircumflex" unicode="&#xdb;" horiz-adv-x="642" 
d="M467 245l89 456h92l-89 -457q-23 -117 -107 -186t-184 -69t-157 69t-34 186l89 457h92l-89 -456q-16 -82 16.5 -128t98.5 -46t116.5 46t66.5 128zM276 809l169 139h20l115 -139l-61 -51l-82 99l-120 -99z" />
    <glyph glyph-name="Udieresis" unicode="&#xdc;" horiz-adv-x="642" 
d="M490 244l89 456h92l-89 -457q-23 -117 -107 -186t-184 -69t-157 69t-34 186l89 457h92l-89 -456q-16 -82 16.5 -128t98.5 -46t116.5 46t66.5 128zM309 853q4 23 24 39.5t43 16.5t36.5 -16.5t8.5 -39.5q-4 -23 -24 -39.5t-43 -16.5t-36.5 16.5t-8.5 39.5zM497 853
q4 23 24 39.5t43 16.5t36.5 -16.5t8.5 -39.5q-4 -23 -24 -39.5t-43 -16.5t-36.5 16.5t-8.5 39.5z" />
    <glyph glyph-name="Yacute" unicode="&#xdd;" horiz-adv-x="604" 
d="M353 286l-55 -286h-92l55 286l-167 382l83 44l147 -339l279 339l65 -44zM521 948l41 -51l-169 -139l-41 51z" />
    <glyph glyph-name="Thorn" unicode="&#xde;" horiz-adv-x="506" 
d="M168 712h92l-29 -147h65q107 0 159.5 -58.5t34.5 -148.5t-93 -148.5t-181 -58.5h-65l-29 -151h-92zM167 233h63q66 0 111.5 33.5t56.5 91.5q11 57 -21.5 91t-98.5 34h-63z" />
    <glyph glyph-name="germandbls" unicode="&#xdf;" horiz-adv-x="559" 
d="M26 0l107 552q17 86 79 142t147 56q86 0 129.5 -52.5t28.5 -131.5q-11 -53 -46 -94t-90 -62q78 -15 111 -68t18 -129q-19 -97 -90.5 -161t-170.5 -64q-56 0 -103 35l48 72q29 -25 70 -25q53 0 100.5 40t59.5 101q13 71 -27.5 113.5t-137.5 47.5l20 70q59 6 100.5 40
t50.5 81q10 50 -14 80.5t-73 30.5q-43 0 -77.5 -31t-44.5 -79l-109 -564h-86z" />
    <glyph glyph-name="agrave" unicode="&#xe0;" horiz-adv-x="632" 
d="M498 400l13 68h86l-90 -468h-86l13 68q-80 -80 -196 -80q-102 0 -160 71t-38 175t106 175t188 71q116 0 164 -80zM126 234q-14 -71 26.5 -120.5t110.5 -49.5t129.5 49t73.5 121q14 71 -26.5 120.5t-110.5 49.5t-129.5 -49t-73.5 -121zM288 673l61 51l115 -139l-61 -51z
" />
    <glyph glyph-name="aacute" unicode="&#xe1;" horiz-adv-x="632" 
d="M498 400l13 68h86l-90 -468h-86l13 68q-80 -80 -196 -80q-102 0 -160 71t-38 175t106 175t188 71q116 0 164 -80zM126 234q-14 -71 26.5 -120.5t110.5 -49.5t129.5 49t73.5 121q14 71 -26.5 120.5t-110.5 49.5t-129.5 -49t-73.5 -121zM450 724l41 -51l-169 -139l-41 51z
" />
    <glyph glyph-name="acircumflex" unicode="&#xe2;" horiz-adv-x="632" 
d="M518 400l13 68h86l-90 -468h-86l13 68q-80 -80 -196 -80q-102 0 -160 71t-38 175t106 175t188 71q116 0 164 -80zM146 234q-14 -71 26.5 -120.5t110.5 -49.5t129.5 49t73.5 121q14 71 -26.5 120.5t-110.5 49.5t-129.5 -49t-73.5 -121zM245 585l169 139h20l115 -139
l-61 -51l-81 99l-121 -99z" />
    <glyph glyph-name="atilde" unicode="&#xe3;" horiz-adv-x="632" 
d="M518 400l13 68h86l-90 -468h-86l13 68q-80 -80 -196 -80q-102 0 -160 71t-38 175t106 175t188 71q116 0 164 -80zM146 234q-14 -71 26.5 -120.5t110.5 -49.5t129.5 49t73.5 121q14 71 -26.5 120.5t-110.5 49.5t-129.5 -49t-73.5 -121zM383 599q-21 21 -39 21
q-27 0 -44 -49l-65 21q15 46 48.5 73.5t71.5 27.5q43 0 75 -34q19 -21 39 -21q28 0 43 49l66 -21q-15 -46 -49 -73.5t-72 -27.5q-42 0 -74 34z" />
    <glyph glyph-name="adieresis" unicode="&#xe4;" horiz-adv-x="632" 
d="M518 400l13 68h86l-90 -468h-86l13 68q-80 -80 -196 -80q-102 0 -160 71t-38 175t106 175t188 71q116 0 164 -80zM146 234q-14 -71 26.5 -120.5t110.5 -49.5t129.5 49t73.5 121q14 71 -26.5 120.5t-110.5 49.5t-129.5 -49t-73.5 -121zM256 629q4 23 24 39.5t43 16.5
t36.5 -16.5t8.5 -39.5q-4 -23 -24 -39.5t-43 -16.5t-36.5 16.5t-8.5 39.5zM444 629q4 23 24 39.5t43 16.5t36.5 -16.5t8.5 -39.5q-4 -23 -24 -39.5t-43 -16.5t-36.5 16.5t-8.5 39.5z" />
    <glyph glyph-name="aring" unicode="&#xe5;" horiz-adv-x="632" 
d="M518 400l13 68h86l-90 -468h-86l13 68q-80 -80 -196 -80q-102 0 -160 71t-38 175t106 175t188 71q116 0 164 -80zM146 234q-14 -71 26.5 -120.5t110.5 -49.5t129.5 49t73.5 121q14 71 -26.5 120.5t-110.5 49.5t-129.5 -49t-73.5 -121zM379 663q-16 -14 -20 -34t6.5 -34
t30.5 -14t36.5 14t20.5 34t-7 34t-31 14t-36 -14zM300 629q8 44 45 74t81 30t69 -29.5t17 -74.5q-9 -45 -45.5 -74.5t-80.5 -29.5t-69.5 30t-16.5 74z" />
    <glyph glyph-name="ae" unicode="&#xe6;" horiz-adv-x="925" 
d="M604 -12q-132 0 -181 87q-46 -47 -96.5 -67t-119.5 -20q-79 0 -129.5 44.5t-38.5 111.5q14 68 79 113t139 45q92 0 143 -54l2 13q14 70 -15.5 106.5t-96.5 36.5q-81 0 -142 -56l-44 54q92 78 201 78q146 0 173 -100q91 100 213 100q101 0 159 -69.5t39 -176.5
q-2 -15 -7 -26h-396q-3 -61 35 -102.5t98 -41.5q93 0 158 75l58 -46q-102 -105 -231 -105zM175 206q-40 -23 -47 -61t23.5 -61.5t84.5 -23.5t94.5 23.5t47.5 61.5t-24 61.5t-85 23.5t-94 -24zM505 284h302q-4 55 -39.5 87.5t-91.5 32.5q-54 0 -100.5 -33t-70.5 -87z" />
    <glyph glyph-name="ccedilla" unicode="&#xe7;" horiz-adv-x="504" 
d="M180 -83l-1 13l41 62q-87 14 -133.5 82t-28.5 160q20 103 108.5 174.5t192.5 71.5q100 0 161 -67l-68 -57q-38 48 -108 48t-128 -49.5t-72 -120.5t25 -120.5t109 -49.5q68 0 126 48l46 -57q-73 -58 -166 -66l-21 -31q37 -9 55 -34.5t11 -60.5q-8 -41 -47 -71t-101 -30
q-45 0 -83 30l44 47q22 -17 50 -17q25 0 42 12.5t21 32.5q4 24 -15.5 37t-59.5 13z" />
    <glyph glyph-name="egrave" unicode="&#xe8;" horiz-adv-x="580" 
d="M283 64q93 0 158 75l58 -46q-102 -105 -231 -105q-109 0 -168.5 68.5t-38.5 177.5q19 102 106 174t188 72t159 -69.5t39 -176.5q-2 -15 -7 -26h-402q-4 -66 36.5 -105t102.5 -39zM163 284h308q-4 55 -39.5 87.5t-91.5 32.5q-49 0 -100 -32t-77 -88zM283 673l61 51
l115 -139l-61 -51z" />
    <glyph glyph-name="eacute" unicode="&#xe9;" horiz-adv-x="580" 
d="M262 64q93 0 158 75l58 -46q-102 -105 -231 -105q-109 0 -168.5 68.5t-38.5 177.5q19 102 106 174t188 72t159 -69.5t39 -176.5q-2 -15 -7 -26h-402q-4 -66 36.5 -105t102.5 -39zM142 284h308q-4 55 -39.5 87.5t-91.5 32.5q-49 0 -100 -32t-77 -88zM430 724l41 -51
l-169 -139l-41 51z" />
    <glyph glyph-name="ecircumflex" unicode="&#xea;" horiz-adv-x="580" 
d="M283 64q93 0 158 75l58 -46q-102 -105 -231 -105q-109 0 -168.5 68.5t-38.5 177.5q19 102 106 174t188 72t159 -69.5t39 -176.5q-2 -15 -7 -26h-402q-4 -66 36.5 -105t102.5 -39zM163 284h308q-4 55 -39.5 87.5t-91.5 32.5q-49 0 -100 -32t-77 -88zM217 585l169 139h20
l115 -139l-61 -51l-81 99l-121 -99z" />
    <glyph glyph-name="edieresis" unicode="&#xeb;" horiz-adv-x="580" 
d="M283 64q93 0 158 75l58 -46q-102 -105 -231 -105q-109 0 -168.5 68.5t-38.5 177.5q19 102 106 174t188 72t159 -69.5t39 -176.5q-2 -15 -7 -26h-402q-4 -66 36.5 -105t102.5 -39zM163 284h308q-4 55 -39.5 87.5t-91.5 32.5q-49 0 -100 -32t-77 -88zM228 629q4 23 24 39.5
t43 16.5t36.5 -16.5t8.5 -39.5q-4 -23 -24 -39.5t-43 -16.5t-36.5 16.5t-8.5 39.5zM416 629q4 23 24 39.5t43 16.5t36.5 -16.5t8.5 -39.5q-4 -23 -24 -39.5t-43 -16.5t-36.5 16.5t-8.5 39.5z" />
    <glyph glyph-name="igrave" unicode="&#xec;" horiz-adv-x="246" 
d="M60 673l61 51l115 -139l-61 -51zM206 468l-90 -468h-86l90 468h86z" />
    <glyph glyph-name="iacute" unicode="&#xed;" horiz-adv-x="246" 
d="M305 724l41 -51l-169 -139l-41 51zM206 468l-90 -468h-86l90 468h86z" />
    <glyph glyph-name="icircumflex" unicode="&#xee;" horiz-adv-x="246" 
d="M206 468l-90 -468h-86l90 468h86zM34 585l169 139h20l115 -139l-61 -51l-81 99l-121 -99z" />
    <glyph glyph-name="idieresis" unicode="&#xef;" horiz-adv-x="246" 
d="M206 468l-90 -468h-86l90 468h86zM45 629q4 23 24 39.5t43 16.5t36.5 -16.5t8.5 -39.5q-4 -23 -24 -39.5t-43 -16.5t-36.5 16.5t-8.5 39.5zM233 629q4 23 24 39.5t43 16.5t36.5 -16.5t8.5 -39.5q-4 -23 -24 -39.5t-43 -16.5t-36.5 16.5t-8.5 39.5z" />
    <glyph glyph-name="eth" unicode="&#xf0;" horiz-adv-x="593" 
d="M360 480q68 0 100 -37q-35 69 -105 129l-136 -68l-23 59l101 51q-41 26 -79 46l53 70q55 -29 112 -72l133 67l22 -60l-103 -52q169 -166 128 -379q-20 -103 -109.5 -174.5t-189.5 -71.5t-162 71.5t-42 174.5t109.5 174.5t190.5 71.5zM280 70q70 0 123.5 45.5t67.5 118.5
t-21.5 119t-105.5 46t-124 -46t-68 -119t21.5 -118.5t106.5 -45.5z" />
    <glyph glyph-name="ntilde" unicode="&#xf1;" horiz-adv-x="537" 
d="M331 0l55 285q11 55 -16 87t-72 32q-46 0 -83.5 -32.5t-47.5 -81.5l-56 -290h-86l90 468h86l-8 -42q64 54 141 54q73 0 115 -48.5t27 -125.5l-59 -306h-86zM320 599q-21 21 -39 21q-27 0 -44 -49l-65 21q15 46 48.5 73.5t71.5 27.5q43 0 75 -34q19 -21 39 -21q28 0 43 49
l66 -21q-15 -46 -49 -73.5t-72 -27.5q-42 0 -74 34z" />
    <glyph glyph-name="ograve" unicode="&#xf2;" horiz-adv-x="596" 
d="M80 59q-60 72 -40 175t108.5 174.5t192.5 71.5t164.5 -71.5t40.5 -174.5t-108.5 -174.5t-192.5 -71.5t-165 71zM198 354q-58 -49 -72 -120t25 -120.5t109 -49.5t128 49.5t72 120.5t-25 120.5t-109 49.5t-128 -50zM272 673l61 51l115 -139l-61 -51z" />
    <glyph glyph-name="oacute" unicode="&#xf3;" horiz-adv-x="596" 
d="M80 59q-60 72 -40 175t108.5 174.5t192.5 71.5t164.5 -71.5t40.5 -174.5t-108.5 -174.5t-192.5 -71.5t-165 71zM198 354q-58 -49 -72 -120t25 -120.5t109 -49.5t128 49.5t72 120.5t-25 120.5t-109 49.5t-128 -50zM470 724l41 -51l-169 -139l-41 51z" />
    <glyph glyph-name="ocircumflex" unicode="&#xf4;" horiz-adv-x="596" 
d="M100 59q-60 72 -40 175t108.5 174.5t192.5 71.5t164.5 -71.5t40.5 -174.5t-108.5 -174.5t-192.5 -71.5t-165 71zM218 354q-58 -49 -72 -120t25 -120.5t109 -49.5t128 49.5t72 120.5t-25 120.5t-109 49.5t-128 -50zM229 585l169 139h20l115 -139l-61 -51l-81 99l-121 -99z
" />
    <glyph glyph-name="otilde" unicode="&#xf5;" horiz-adv-x="596" 
d="M100 59q-60 72 -40 175t108.5 174.5t192.5 71.5t164.5 -71.5t40.5 -174.5t-108.5 -174.5t-192.5 -71.5t-165 71zM218 354q-58 -49 -72 -120t25 -120.5t109 -49.5t128 49.5t72 120.5t-25 120.5t-109 49.5t-128 -50zM367 599q-21 21 -39 21q-27 0 -44 -49l-65 21
q15 46 48.5 73.5t71.5 27.5q43 0 75 -34q19 -21 39 -21q28 0 43 49l66 -21q-15 -46 -49 -73.5t-72 -27.5q-42 0 -74 34z" />
    <glyph glyph-name="odieresis" unicode="&#xf6;" horiz-adv-x="596" 
d="M100 59q-60 72 -40 175t108.5 174.5t192.5 71.5t164.5 -71.5t40.5 -174.5t-108.5 -174.5t-192.5 -71.5t-165 71zM218 354q-58 -49 -72 -120t25 -120.5t109 -49.5t128 49.5t72 120.5t-25 120.5t-109 49.5t-128 -50zM240 629q4 23 24 39.5t43 16.5t36.5 -16.5t8.5 -39.5
q-4 -23 -24 -39.5t-43 -16.5t-36.5 16.5t-8.5 39.5zM428 629q4 23 24 39.5t43 16.5t36.5 -16.5t8.5 -39.5q-4 -23 -24 -39.5t-43 -16.5t-36.5 16.5t-8.5 39.5z" />
    <glyph glyph-name="divide" unicode="&#xf7;" horiz-adv-x="618" 
d="M275 486q-17 18 -17 44t17.5 43.5t43.5 17.5t43.5 -17.5t17.5 -43.5t-17.5 -43.5t-43.5 -17.5t-44 17zM275 90q-17 18 -17 44t17.5 43.5t43.5 17.5t43.5 -17.5t17.5 -43.5t-17.5 -43.5t-43.5 -17.5t-44 17zM558 293h-478v78h478v-78z" />
    <glyph glyph-name="oslash" unicode="&#xf8;" horiz-adv-x="596" 
d="M40 234q20 103 108.5 174.5t192.5 71.5q47 0 87 -17l90 118l54 -33l-90 -117q88 -72 64 -197q-20 -103 -108.5 -174.5t-192.5 -71.5q-49 0 -89 17l-89 -118l-53 34l89 116q-41 34 -58 85.5t-5 111.5zM260 64q70 0 128 49.5t72 120.5q15 77 -31 127l-222 -289q27 -8 53 -8
zM126 234q-15 -77 30 -127l220 289q-24 8 -50 8q-70 0 -128 -49.5t-72 -120.5z" />
    <glyph glyph-name="ugrave" unicode="&#xf9;" horiz-adv-x="542" 
d="M201 468l-55 -285q-11 -55 16 -87t72 -32q46 0 83.5 32.5t47.5 81.5l56 290h86l-90 -468h-86l8 42q-64 -54 -141 -54q-73 0 -115 48.5t-27 125.5l59 306h86zM242 673l61 51l115 -139l-61 -51z" />
    <glyph glyph-name="uacute" unicode="&#xfa;" horiz-adv-x="542" 
d="M201 468l-55 -285q-11 -55 16 -87t72 -32q46 0 83.5 32.5t47.5 81.5l56 290h86l-90 -468h-86l8 42q-64 -54 -141 -54q-73 0 -115 48.5t-27 125.5l59 306h86zM419 724l41 -51l-169 -139l-41 51z" />
    <glyph glyph-name="ucircumflex" unicode="&#xfb;" horiz-adv-x="542" 
d="M216 468l-55 -285q-11 -55 16 -87t72 -32q46 0 83.5 32.5t47.5 81.5l56 290h86l-90 -468h-86l8 42q-64 -54 -141 -54q-73 0 -115 48.5t-27 125.5l59 306h86zM198 585l169 139h20l115 -139l-61 -51l-81 99l-121 -99z" />
    <glyph glyph-name="udieresis" unicode="&#xfc;" horiz-adv-x="542" 
d="M216 468l-55 -285q-11 -55 16 -87t72 -32q46 0 83.5 32.5t47.5 81.5l56 290h86l-90 -468h-86l8 42q-64 -54 -141 -54q-73 0 -115 48.5t-27 125.5l59 306h86zM209 629q4 23 24 39.5t43 16.5t36.5 -16.5t8.5 -39.5q-4 -23 -24 -39.5t-43 -16.5t-36.5 16.5t-8.5 39.5z
M397 629q4 23 24 39.5t43 16.5t36.5 -16.5t8.5 -39.5q-4 -23 -24 -39.5t-43 -16.5t-36.5 16.5t-8.5 39.5z" />
    <glyph glyph-name="yacute" unicode="&#xfd;" horiz-adv-x="495" 
d="M60 -294l-75 34l167 276l-89 437l87 27l65 -358l217 358l76 -27zM392 724l41 -51l-169 -139l-41 51z" />
    <glyph glyph-name="thorn" unicode="&#xfe;" horiz-adv-x="632" 
d="M256 750l-69 -354q87 84 197 84q102 0 160 -72t38 -174q-19 -102 -105.5 -174t-188.5 -72q-111 0 -164 84l-68 -354h-86l200 1032h86zM496 234q14 70 -26.5 120t-110.5 50q-68 0 -127 -47.5t-75 -115.5l-1 -7q-14 -70 26.5 -120t110.5 -50t130 50t73 120z" />
    <glyph glyph-name="ydieresis" unicode="&#xff;" horiz-adv-x="495" 
d="M60 -294l-75 34l167 276l-89 437l87 27l65 -358l217 358l76 -27zM168 629q4 23 24 39.5t43 16.5t36.5 -16.5t8.5 -39.5q-4 -23 -24 -39.5t-43 -16.5t-36.5 16.5t-8.5 39.5zM356 629q4 23 24 39.5t43 16.5t36.5 -16.5t8.5 -39.5q-4 -23 -24 -39.5t-43 -16.5t-36.5 16.5
t-8.5 39.5z" />
    <glyph glyph-name="Amacron" unicode="&#x100;" horiz-adv-x="628" 
d="M392 712h20l153 -700l-91 -24l-38 188h-277l-111 -188l-81 24zM365 524l-157 -266h211zM286 817l14 72h272l-14 -72h-272z" />
    <glyph glyph-name="amacron" unicode="&#x101;" horiz-adv-x="632" 
d="M498 400l13 68h86l-90 -468h-86l13 68q-80 -80 -196 -80q-102 0 -160 71t-38 175t106 175t188 71q116 0 164 -80zM126 234q-14 -71 26.5 -120.5t110.5 -49.5t129.5 49t73.5 121q14 71 -26.5 120.5t-110.5 49.5t-129.5 -49t-73.5 -121zM243 593l14 72h272l-14 -72h-272z
" />
    <glyph glyph-name="Abreve" unicode="&#x102;" horiz-adv-x="628" 
d="M392 712h20l153 -700l-91 -24l-38 188h-277l-111 -188l-81 24zM365 524l-157 -266h211zM301 929h76q-6 -32 7 -56.5t44 -24.5t54 25t29 56h76q-12 -63 -62 -108t-111 -45t-93 45t-20 108z" />
    <glyph glyph-name="abreve" unicode="&#x103;" horiz-adv-x="632" 
d="M518 400l13 68h86l-90 -468h-86l13 68q-80 -80 -196 -80q-102 0 -160 71t-38 175t106 175t188 71q116 0 164 -80zM146 234q-14 -71 26.5 -120.5t110.5 -49.5t129.5 49t73.5 121q14 71 -26.5 120.5t-110.5 49.5t-129.5 -49t-73.5 -121zM278 705h76q-7 -31 6.5 -56
t44.5 -25t53.5 24.5t29.5 56.5h76q-13 -63 -62.5 -108t-110.5 -45t-93.5 45t-19.5 108z" />
    <glyph glyph-name="Aogonek" unicode="&#x104;" horiz-adv-x="628" 
d="M392 712h20l153 -700l-19 -5q-34 -25 -58.5 -55t-29.5 -55q-5 -27 8 -40t37 -13q20 0 40 14l12 -56q-38 -21 -82 -21q-51 0 -75.5 30.5t-16.5 71.5q13 67 91 117l-36 176h-277l-111 -188l-81 24zM365 524l-157 -266h211z" />
    <glyph glyph-name="aogonek" unicode="&#x105;" horiz-adv-x="632" 
d="M518 400l13 68h86l-90 -468h-13q-68 -51 -79 -103q-5 -27 8 -40t37 -13q20 0 40 14l12 -56q-38 -21 -82 -21q-51 0 -75.5 30.5t-16.5 71.5q13 67 90 117h-7l13 68q-80 -80 -196 -80q-102 0 -160 71t-38 175t106 175t188 71q116 0 164 -80zM146 234q-14 -71 26.5 -120.5
t110.5 -49.5t129.5 49t73.5 121q14 71 -26.5 120.5t-110.5 49.5t-129.5 -49t-73.5 -121z" />
    <glyph glyph-name="Cacute" unicode="&#x106;" horiz-adv-x="711" 
d="M68 350q29 152 157 257t279 105q148 0 235 -101l-74 -62q-64 81 -177 81t-209.5 -81t-118.5 -199q-23 -118 41.5 -199t177.5 -81q114 0 209 81l50 -62q-127 -101 -275 -101q-151 0 -238 104.5t-57 257.5zM590 948l41 -51l-169 -139l-41 51z" />
    <glyph glyph-name="cacute" unicode="&#x107;" horiz-adv-x="504" 
d="M341 480q100 0 161 -67l-68 -57q-38 48 -108 48t-128 -49.5t-72 -120.5t25 -120.5t109 -49.5q68 0 126 48l46 -57q-86 -67 -187 -67q-104 0 -164.5 71.5t-40.5 174.5t108.5 174.5t192.5 71.5zM418 724l41 -51l-169 -139l-41 51z" />
    <glyph glyph-name="Ccircumflex" unicode="&#x108;" horiz-adv-x="711" 
d="M68 350q29 152 157 257t279 105q148 0 235 -101l-74 -62q-64 81 -177 81t-209.5 -81t-118.5 -199q-23 -118 41.5 -199t177.5 -81q114 0 209 81l50 -62q-127 -101 -275 -101q-151 0 -238 104.5t-57 257.5zM337 809l169 139h20l115 -139l-61 -51l-82 99l-120 -99z" />
    <glyph glyph-name="ccircumflex" unicode="&#x109;" horiz-adv-x="504" 
d="M361 480q100 0 161 -67l-68 -57q-38 48 -108 48t-128 -49.5t-72 -120.5t25 -120.5t109 -49.5q68 0 126 48l46 -57q-86 -67 -187 -67q-104 0 -164.5 71.5t-40.5 174.5t108.5 174.5t192.5 71.5zM203 585l169 139h20l115 -139l-61 -51l-81 99l-121 -99z" />
    <glyph glyph-name="Cdotaccent" unicode="&#x10a;" horiz-adv-x="711" 
d="M68 350q29 152 157 257t279 105q148 0 235 -101l-74 -62q-64 81 -177 81t-209.5 -81t-118.5 -199q-23 -118 41.5 -199t177.5 -81q114 0 209 81l50 -62q-127 -101 -275 -101q-151 0 -238 104.5t-57 257.5zM441 853q4 23 24 39.5t43 16.5t36.5 -16.5t8.5 -39.5
q-4 -23 -24 -39.5t-43 -16.5t-36.5 16.5t-8.5 39.5z" />
    <glyph glyph-name="cdotaccent" unicode="&#x10b;" horiz-adv-x="504" 
d="M341 480q100 0 161 -67l-68 -57q-38 48 -108 48t-128 -49.5t-72 -120.5t25 -120.5t109 -49.5q68 0 126 48l46 -57q-86 -67 -187 -67q-104 0 -164.5 71.5t-40.5 174.5t108.5 174.5t192.5 71.5zM288 629q4 23 24 39.5t43 16.5t36.5 -16.5t8.5 -39.5q-4 -23 -24 -39.5
t-43 -16.5t-36.5 16.5t-8.5 39.5z" />
    <glyph glyph-name="Ccaron" unicode="&#x10c;" horiz-adv-x="711" 
d="M68 350q29 152 157 257t279 105q148 0 235 -101l-74 -62q-64 81 -177 81t-209.5 -81t-118.5 -199q-23 -118 41.5 -199t177.5 -81q114 0 209 81l50 -62q-127 -101 -275 -101q-151 0 -238 104.5t-57 257.5zM469 758l-115 139l61 51l82 -99l120 99l41 -51l-169 -139h-20z
" />
    <glyph glyph-name="ccaron" unicode="&#x10d;" horiz-adv-x="504" 
d="M341 480q100 0 161 -67l-68 -57q-38 48 -108 48t-128 -49.5t-72 -120.5t25 -120.5t109 -49.5q68 0 126 48l46 -57q-86 -67 -187 -67q-104 0 -164.5 71.5t-40.5 174.5t108.5 174.5t192.5 71.5zM315 534l-115 139l61 51l82 -99l120 99l41 -51l-169 -139h-20z" />
    <glyph glyph-name="Dcaron" unicode="&#x10e;" horiz-adv-x="681" 
d="M166 700h189q153 0 238.5 -97t55.5 -253q-31 -156 -154 -253t-276 -97h-189zM137 82h97q117 0 208 74t115 194q23 120 -39 194t-179 74h-97zM369 758l-115 139l61 51l82 -99l120 99l41 -51l-169 -139h-20z" />
    <glyph glyph-name="dcaron" unicode="&#x10f;" horiz-adv-x="754" 
d="M518 400l68 350h86l-145 -750h-86l13 68q-80 -80 -196 -80q-102 0 -160 71t-38 175t106 175t188 71q116 0 164 -80zM146 234q-14 -71 26.5 -120.5t110.5 -49.5t129.5 49t73.5 121q14 71 -26.5 120.5t-110.5 49.5t-129.5 -49t-73.5 -121zM667 508l105 234l80 -27
l-136 -223z" />
    <glyph glyph-name="Dcroat" unicode="&#x110;" horiz-adv-x="681" 
d="M91 315h-75l13 68h75l62 317h189q153 0 238.5 -97t55.5 -253q-31 -156 -154 -253t-276 -97h-189zM137 82h97q117 0 208 74t115 194q23 120 -39 194t-179 74h-97l-46 -235h161l-13 -68h-161z" />
    <glyph glyph-name="dcroat" unicode="&#x111;" horiz-adv-x="627" 
d="M715 661l-13 -68h-60l-115 -593h-86l13 72q-86 -84 -196 -84q-102 0 -160 72t-38 174q19 102 105.5 174t188.5 72q109 0 163 -84l39 197h-242l13 68h242l17 89h86l-17 -89h60zM146 234q-14 -70 26.5 -120t110.5 -50q67 0 126 47.5t76 115.5l1 7q14 70 -26.5 120
t-110.5 50t-130 -50t-73 -120z" />
    <glyph glyph-name="Emacron" unicode="&#x112;" horiz-adv-x="480" 
d="M395 82l-15 -82h-350l136 700h340l-16 -82h-248l-36 -185h223l-16 -80h-223l-53 -271h258zM221 817l14 72h272l-14 -72h-272z" />
    <glyph glyph-name="emacron" unicode="&#x113;" horiz-adv-x="580" 
d="M262 64q93 0 158 75l58 -46q-102 -105 -231 -105q-109 0 -168.5 68.5t-38.5 177.5q19 102 106 174t188 72t159 -69.5t39 -176.5q-2 -15 -7 -26h-402q-4 -66 36.5 -105t102.5 -39zM142 284h308q-4 55 -39.5 87.5t-91.5 32.5q-49 0 -100 -32t-77 -88zM214 593l14 72h272
l-14 -72h-272z" />
    <glyph glyph-name="Ebreve" unicode="&#x114;" horiz-adv-x="480" 
d="M395 82l-15 -82h-350l136 700h340l-16 -82h-248l-36 -185h223l-16 -80h-223l-53 -271h258zM236 929h76q-6 -32 7 -56.5t44 -24.5t54 25t29 56h76q-12 -63 -62 -108t-111 -45t-93 45t-20 108z" />
    <glyph glyph-name="ebreve" unicode="&#x115;" horiz-adv-x="580" 
d="M283 64q93 0 158 75l58 -46q-102 -105 -231 -105q-109 0 -168.5 68.5t-38.5 177.5q19 102 106 174t188 72t159 -69.5t39 -176.5q-2 -15 -7 -26h-402q-4 -66 36.5 -105t102.5 -39zM163 284h308q-4 55 -39.5 87.5t-91.5 32.5q-49 0 -100 -32t-77 -88zM250 705h76
q-7 -31 6.5 -56t44.5 -25t53.5 24.5t29.5 56.5h76q-13 -63 -62.5 -108t-110.5 -45t-93.5 45t-19.5 108z" />
    <glyph glyph-name="Edotaccent" unicode="&#x116;" horiz-adv-x="480" 
d="M395 82l-15 -82h-350l136 700h340l-16 -82h-248l-36 -185h223l-16 -80h-223l-53 -271h258zM308 853q4 23 24 39.5t43 16.5t36.5 -16.5t8.5 -39.5q-4 -23 -24 -39.5t-43 -16.5t-36.5 16.5t-8.5 39.5z" />
    <glyph glyph-name="edotaccent" unicode="&#x117;" horiz-adv-x="580" 
d="M262 64q93 0 158 75l58 -46q-102 -105 -231 -105q-109 0 -168.5 68.5t-38.5 177.5q19 102 106 174t188 72t159 -69.5t39 -176.5q-2 -15 -7 -26h-402q-4 -66 36.5 -105t102.5 -39zM142 284h308q-4 55 -39.5 87.5t-91.5 32.5q-49 0 -100 -32t-77 -88zM301 629q4 23 24 39.5
t43 16.5t36.5 -16.5t8.5 -39.5q-4 -23 -24 -39.5t-43 -16.5t-36.5 16.5t-8.5 39.5z" />
    <glyph glyph-name="Eogonek" unicode="&#x118;" horiz-adv-x="480" 
d="M395 82l-15 -82h-49q-68 -51 -79 -103q-5 -27 8 -40t37 -13q20 0 40 14l12 -56q-38 -21 -82 -21q-51 0 -75.5 30.5t-16.5 71.5q13 67 90 117h-235l136 700h340l-16 -82h-248l-36 -185h223l-16 -80h-223l-53 -271h258z" />
    <glyph glyph-name="eogonek" unicode="&#x119;" horiz-adv-x="580" 
d="M282 64q93 0 158 75l58 -46q-87 -89 -193 -102q-58 -50 -67 -94q-5 -27 8 -40t37 -13q20 0 40 14l12 -56q-38 -21 -82 -21q-51 0 -75.5 30.5t-16.5 71.5q11 60 75 107q-96 10 -146 76.5t-30 167.5q19 102 106 174t188 72t159 -69.5t39 -176.5q-2 -15 -7 -26h-402
q-4 -66 36.5 -105t102.5 -39zM162 284h308q-4 55 -39.5 87.5t-91.5 32.5q-49 0 -100 -32t-77 -88z" />
    <glyph glyph-name="Ecaron" unicode="&#x11a;" horiz-adv-x="480" 
d="M395 82l-15 -82h-350l136 700h340l-16 -82h-248l-36 -185h223l-16 -80h-223l-53 -271h258zM336 758l-115 139l61 51l82 -99l120 99l41 -51l-169 -139h-20z" />
    <glyph glyph-name="ecaron" unicode="&#x11b;" horiz-adv-x="580" 
d="M262 64q93 0 158 75l58 -46q-102 -105 -231 -105q-109 0 -168.5 68.5t-38.5 177.5q19 102 106 174t188 72t159 -69.5t39 -176.5q-2 -15 -7 -26h-402q-4 -66 36.5 -105t102.5 -39zM142 284h308q-4 55 -39.5 87.5t-91.5 32.5q-49 0 -100 -32t-77 -88zM328 534l-115 139
l61 51l82 -99l120 99l41 -51l-169 -139h-20z" />
    <glyph glyph-name="Gcircumflex" unicode="&#x11c;" horiz-adv-x="788" 
d="M357 -12q-148 0 -233.5 105t-55.5 257q29 152 157 257t279 105q88 0 157.5 -38.5t107.5 -105.5l-81 -53q-28 53 -80.5 84t-119.5 31q-113 0 -209.5 -81t-118.5 -199q-23 -117 40 -198.5t173 -81.5q99 0 171 56t102 146h-189l16 82h288l-5 -29q-29 -150 -143 -243.5
t-256 -93.5zM352 809l169 139h20l115 -139l-61 -51l-82 99l-120 -99z" />
    <glyph glyph-name="gcircumflex" unicode="&#x11d;" horiz-adv-x="627" 
d="M498 400l13 68h86l-88 -455q-57 -295 -324 -295q-132 0 -189 112l76 47q37 -83 128 -83q181 0 221 208l13 66q-80 -80 -196 -80q-102 0 -160 71t-38 175t106 175t188 71q116 0 164 -80zM126 234q-14 -71 26.5 -120.5t110.5 -49.5t129.5 49t73.5 121q14 71 -26.5 120.5
t-110.5 49.5t-129.5 -49t-73.5 -121zM207 585l169 139h20l115 -139l-61 -51l-81 99l-121 -99z" />
    <glyph glyph-name="Gbreve" unicode="&#x11e;" horiz-adv-x="788" 
d="M387 -12q-148 0 -233.5 105t-55.5 257q29 152 157 257t279 105q88 0 157.5 -38.5t107.5 -105.5l-81 -53q-28 53 -80.5 84t-119.5 31q-113 0 -209.5 -81t-118.5 -199q-23 -117 40 -198.5t173 -81.5q99 0 171 56t102 146h-189l16 82h288l-5 -29q-29 -150 -143 -243.5
t-256 -93.5zM414 929h76q-6 -32 7 -56.5t44 -24.5t54 25t29 56h76q-12 -63 -62 -108t-111 -45t-93 45t-20 108z" />
    <glyph glyph-name="gbreve" unicode="&#x11f;" horiz-adv-x="627" 
d="M498 400l13 68h86l-88 -455q-57 -295 -324 -295q-132 0 -189 112l76 47q37 -83 128 -83q181 0 221 208l13 66q-80 -80 -196 -80q-102 0 -160 71t-38 175t106 175t188 71q116 0 164 -80zM126 234q-14 -71 26.5 -120.5t110.5 -49.5t129.5 49t73.5 121q14 71 -26.5 120.5
t-110.5 49.5t-129.5 -49t-73.5 -121zM235 705h76q-7 -31 6.5 -56t44.5 -25t53.5 24.5t29.5 56.5h76q-13 -63 -62.5 -108t-110.5 -45t-93.5 45t-19.5 108z" />
    <glyph glyph-name="Gdotaccent" unicode="&#x120;" horiz-adv-x="788" 
d="M357 -12q-148 0 -233.5 105t-55.5 257q29 152 157 257t279 105q88 0 157.5 -38.5t107.5 -105.5l-81 -53q-28 53 -80.5 84t-119.5 31q-113 0 -209.5 -81t-118.5 -199q-23 -117 40 -198.5t173 -81.5q99 0 171 56t102 146h-189l16 82h288l-5 -29q-29 -150 -143 -243.5
t-256 -93.5zM456 853q4 23 24 39.5t43 16.5t36.5 -16.5t8.5 -39.5q-4 -23 -24 -39.5t-43 -16.5t-36.5 16.5t-8.5 39.5z" />
    <glyph glyph-name="gdotaccent" unicode="&#x121;" horiz-adv-x="627" 
d="M498 400l13 68h86l-88 -455q-57 -295 -324 -295q-132 0 -189 112l76 47q37 -83 128 -83q181 0 221 208l13 66q-80 -80 -196 -80q-102 0 -160 71t-38 175t106 175t188 71q116 0 164 -80zM126 234q-14 -71 26.5 -120.5t110.5 -49.5t129.5 49t73.5 121q14 71 -26.5 120.5
t-110.5 49.5t-129.5 -49t-73.5 -121zM301 629q4 23 24 39.5t43 16.5t36.5 -16.5t8.5 -39.5q-4 -23 -24 -39.5t-43 -16.5t-36.5 16.5t-8.5 39.5z" />
    <glyph glyph-name="Gcommaaccent" unicode="&#x122;" horiz-adv-x="788" 
d="M266 -267l88 200l81 -27l-116 -189zM387 -12q-148 0 -233.5 105t-55.5 257q29 152 157 257t279 105q88 0 157.5 -38.5t107.5 -105.5l-81 -53q-28 53 -80.5 84t-119.5 31q-113 0 -209.5 -81t-118.5 -199q-23 -117 40 -198.5t173 -81.5q99 0 171 56t102 146h-189l16 82h288
l-5 -29q-29 -150 -143 -243.5t-256 -93.5z" />
    <glyph glyph-name="gcommaaccent" unicode="&#x123;" horiz-adv-x="627" 
d="M498 400l13 68h86l-88 -455q-57 -295 -324 -295q-132 0 -189 112l76 47q37 -83 128 -83q181 0 221 208l13 66q-80 -80 -196 -80q-102 0 -160 71t-38 175t106 175t188 71q116 0 164 -80zM126 234q-14 -71 26.5 -120.5t110.5 -49.5t129.5 49t73.5 121q14 71 -26.5 120.5
t-110.5 49.5t-129.5 -49t-73.5 -121zM453 721l-89 -200l-81 27l116 189z" />
    <glyph glyph-name="Hcircumflex" unicode="&#x124;" horiz-adv-x="640" 
d="M554 700h92l-136 -700h-92l66 342h-296l-66 -342h-92l136 700h92l-54 -276h296zM275 809l169 139h20l115 -139l-61 -51l-82 99l-120 -99z" />
    <glyph glyph-name="hcircumflex" unicode="&#x125;" horiz-adv-x="532" 
d="M326 0l55 285q11 55 -16 87t-72 32t-83 -32.5t-48 -81.5l-56 -290h-86l145 750h86l-63 -324q65 54 141 54q73 0 115 -48.5t27 -125.5l-59 -306h-86zM68 809l169 139h20l115 -139l-61 -51l-82 99l-120 -99z" />
    <glyph glyph-name="Hbar" unicode="&#x126;" horiz-adv-x="640" 
d="M133 535h-60l14 68h60l19 97h92l-19 -97h296l19 97h92l-19 -97h60l-14 -68h-60l-103 -535h-92l66 342h-296l-66 -342h-92zM204 424h296l21 111h-296z" />
    <glyph glyph-name="hbar" unicode="&#x127;" horiz-adv-x="532" 
d="M135 595h-60l13 68h60l17 87h86l-17 -87h149l-13 -68h-149l-33 -169q65 54 141 54q73 0 115 -48.5t27 -125.5l-59 -306h-86l55 285q11 55 -16 87t-72 32t-83 -32.5t-48 -81.5l-56 -290h-86z" />
    <glyph glyph-name="Itilde" unicode="&#x128;" horiz-adv-x="272" 
d="M228 823q-19 21 -38 21q-29 0 -44 -49l-66 21q15 46 49 73.5t72 27.5q42 0 74 -34q21 -21 39 -21q29 0 44 49l65 -21q-15 -46 -48.5 -73.5t-71.5 -27.5q-43 0 -75 34zM176 700h92l-136 -700h-92z" />
    <glyph glyph-name="itilde" unicode="&#x129;" horiz-adv-x="246" 
d="M206 468l-90 -468h-86l90 468h86zM172 599q-21 21 -39 21q-27 0 -44 -49l-65 21q15 46 48.5 73.5t71.5 27.5q43 0 75 -34q19 -21 39 -21q28 0 43 49l66 -21q-15 -46 -49 -73.5t-72 -27.5q-42 0 -74 34z" />
    <glyph glyph-name="Imacron" unicode="&#x12a;" horiz-adv-x="272" 
d="M176 700h92l-136 -700h-92zM108 817l14 72h272l-14 -72h-272z" />
    <glyph glyph-name="imacron" unicode="&#x12b;" horiz-adv-x="246" 
d="M206 468l-90 -468h-86l90 468h86zM52 593l14 72h272l-14 -72h-272z" />
    <glyph glyph-name="Ibreve" unicode="&#x12c;" horiz-adv-x="272" 
d="M176 700h92l-136 -700h-92zM123 929h76q-6 -32 7 -56.5t44 -24.5t54 25t29 56h76q-12 -63 -62 -108t-111 -45t-93 45t-20 108z" />
    <glyph glyph-name="ibreve" unicode="&#x12d;" horiz-adv-x="246" 
d="M206 468l-90 -468h-86l90 468h86zM67 705h76q-7 -31 6.5 -56t44.5 -25t53.5 24.5t29.5 56.5h76q-13 -63 -62.5 -108t-110.5 -45t-93.5 45t-19.5 108z" />
    <glyph glyph-name="Iogonek" unicode="&#x12e;" horiz-adv-x="272" 
d="M183 700h92l-136 -700h-17q-68 -51 -79 -103q-5 -27 8 -40t37 -13q20 0 40 14l12 -56q-38 -21 -82 -21q-51 0 -75 30t-17 72q13 67 90 117h-9z" />
    <glyph glyph-name="iogonek" unicode="&#x12f;" horiz-adv-x="246" 
d="M214 468l-90 -468h-15q-68 -51 -79 -103q-5 -27 8 -40t37 -13q20 0 40 14l12 -56q-38 -21 -82 -21q-51 0 -75 30.5t-16 71.5q12 67 89 117h-5l90 468h86zM147 649q4 25 25 42.5t46 17.5t39.5 -17.5t9.5 -42.5t-26 -42.5t-46 -17.5t-39 17.5t-9 42.5z" />
    <glyph glyph-name="Idotaccent" unicode="&#x130;" horiz-adv-x="272" 
d="M195 853q4 23 24 39.5t43 16.5t36.5 -16.5t8.5 -39.5q-4 -23 -24 -39.5t-43 -16.5t-36.5 16.5t-8.5 39.5zM176 700h92l-136 -700h-92z" />
    <glyph glyph-name="dotlessi" unicode="&#x131;" horiz-adv-x="246" 
d="M206 468l-90 -468h-86l90 468h86z" />
    <glyph glyph-name="IJ" unicode="&#x132;" horiz-adv-x="668" 
d="M188 66l79 54q17 -50 72 -50q42 0 73.5 36.5t44.5 101.5l96 492h92l-95 -489q-22 -111 -83 -167t-144 -56q-45 0 -80.5 21t-54.5 57zM181 700h92l-136 -700h-92z" />
    <glyph glyph-name="ij" unicode="&#x133;" horiz-adv-x="500" 
d="M201 468l-90 -468h-86l90 468h86zM134 649q4 25 25 42.5t46 17.5t39.5 -17.5t9.5 -42.5t-26 -42.5t-46 -17.5t-39 17.5t-9 42.5zM44 -219l73 51q14 -38 57 -38q75 0 97 116l108 558h86l-108 -559q-18 -91 -68 -141t-129 -50q-81 0 -116 63zM397 649q4 25 25 42.5t46 17.5
t39.5 -17.5t9.5 -42.5t-26 -42.5t-46 -17.5t-39 17.5t-9 42.5z" />
    <glyph glyph-name="Jcircumflex" unicode="&#x134;" horiz-adv-x="416" 
d="M-35 66l79 54q17 -50 72 -50q42 0 73.5 36.5t44.5 101.5l96 492h92l-95 -489q-22 -111 -83 -167t-144 -56q-45 0 -80.5 21t-54.5 57zM246 809l169 139h20l115 -139l-61 -51l-82 99l-120 -99z" />
    <glyph glyph-name="jcircumflex" unicode="&#x135;" horiz-adv-x="244" 
d="M37 585l169 139h20l115 -139l-61 -51l-81 99l-121 -99zM-211 -219l73 51q14 -38 57 -38q74 0 96 116l108 558h86l-108 -559q-18 -91 -68 -141t-128 -50q-81 0 -116 63z" />
    <glyph glyph-name="Kcommaaccent" unicode="&#x136;" horiz-adv-x="586" 
d="M448 -12l-257 369l362 355l59 -57l-308 -298l227 -304zM258 700l-136 -700h-92l136 700h92zM139 -267l88 200l81 -27l-116 -189z" />
    <glyph glyph-name="kcommaaccent" unicode="&#x137;" horiz-adv-x="501" 
d="M159 251l283 229l49 -62l-218 -169l172 -199l-74 -62l-212 263l-48 -251h-86l145 750h86zM86 -267l88 200l81 -27l-116 -189z" />
    <glyph glyph-name="kgreenlandic" unicode="&#x138;" horiz-adv-x="501" 
d="M159 251l283 229l49 -62l-218 -169l172 -199l-74 -62l-212 263l-48 -251h-86l90 468h86z" />
    <glyph glyph-name="Lacute" unicode="&#x139;" horiz-adv-x="460" 
d="M176 700h92l-121 -618h268l-15 -82h-360zM354 948l41 -51l-169 -139l-41 51z" />
    <glyph glyph-name="lacute" unicode="&#x13a;" horiz-adv-x="246" 
d="M256 721l-140 -721h-86l140 721h86zM349 948l41 -51l-169 -139l-41 51z" />
    <glyph glyph-name="Lcommaaccent" unicode="&#x13b;" horiz-adv-x="460" 
d="M166 700h92l-121 -618h268l-15 -82h-360zM76 -267l88 200l81 -27l-116 -189z" />
    <glyph glyph-name="lcommaaccent" unicode="&#x13c;" horiz-adv-x="246" 
d="M261 750l-145 -750h-86l145 750h86zM-70 -267l87 200l81 -27l-116 -189z" />
    <glyph glyph-name="Lcaron" unicode="&#x13d;" horiz-adv-x="460" 
d="M166 700h92l-121 -618h268l-15 -82h-360zM317 508l105 234l80 -27l-136 -223z" />
    <glyph glyph-name="lcaron" unicode="&#x13e;" horiz-adv-x="363" 
d="M256 508l105 234l80 -27l-136 -223zM261 750l-145 -750h-86l145 750h86z" />
    <glyph glyph-name="Ldot" unicode="&#x13f;" horiz-adv-x="460" 
d="M297 379q4 23 24 39.5t43 16.5t36.5 -16.5t8.5 -39.5q-4 -23 -24 -39.5t-43 -16.5t-36.5 16.5t-8.5 39.5zM166 700h92l-121 -618h268l-15 -82h-360z" />
    <glyph glyph-name="ldot" unicode="&#x140;" horiz-adv-x="408" 
d="M299 379q4 23 24 39.5t43 16.5t36.5 -16.5t8.5 -39.5q-4 -23 -24 -39.5t-43 -16.5t-36.5 16.5t-8.5 39.5zM261 750l-145 -750h-86l145 750h86z" />
    <glyph glyph-name="Lslash" unicode="&#x141;" horiz-adv-x="460" 
d="M166 700h92l-60 -305l239 142l27 -56l-282 -168l-45 -231h268l-15 -82h-360l48 251l-54 -32l-27 56l97 58z" />
    <glyph glyph-name="lslash" unicode="&#x142;" horiz-adv-x="378" 
d="M157 318l-133 -79l-27 56l176 105l68 350h86l-56 -292l133 80l27 -56l-176 -106l-73 -376h-86z" />
    <glyph glyph-name="Nacute" unicode="&#x143;" horiz-adv-x="737" 
d="M580 -12l-360 521l-98 -509h-92l137 705l25 7l360 -521l99 509h92l-137 -705zM547 948l41 -51l-169 -139l-41 51z" />
    <glyph glyph-name="nacute" unicode="&#x144;" horiz-adv-x="537" 
d="M331 0l55 285q11 55 -16 87t-72 32q-46 0 -83.5 -32.5t-47.5 -81.5l-56 -290h-86l90 468h86l-8 -42q64 54 141 54q73 0 115 -48.5t27 -125.5l-59 -306h-86zM419 724l41 -51l-169 -139l-41 51z" />
    <glyph glyph-name="Ncommaaccent" unicode="&#x145;" horiz-adv-x="737" 
d="M580 -12l-360 521l-98 -509h-92l137 705l25 7l360 -521l99 509h92l-137 -705zM212 -267l88 200l81 -27l-116 -189z" />
    <glyph glyph-name="ncommaaccent" unicode="&#x146;" horiz-adv-x="537" 
d="M331 0l55 285q11 55 -16 87t-72 32q-46 0 -83.5 -32.5t-47.5 -81.5l-56 -290h-86l90 468h86l-8 -42q64 54 141 54q73 0 115 -48.5t27 -125.5l-59 -306h-86zM102 -267l88 200l81 -27l-116 -189z" />
    <glyph glyph-name="Ncaron" unicode="&#x147;" horiz-adv-x="737" 
d="M580 -12l-360 521l-98 -509h-92l137 705l25 7l360 -521l99 509h92l-137 -705zM455 758l-115 139l61 51l82 -99l120 99l41 -51l-169 -139h-20z" />
    <glyph glyph-name="ncaron" unicode="&#x148;" horiz-adv-x="537" 
d="M331 0l55 285q11 55 -16 87t-72 32q-46 0 -83.5 -32.5t-47.5 -81.5l-56 -290h-86l90 468h86l-8 -42q64 54 141 54q73 0 115 -48.5t27 -125.5l-59 -306h-86zM314 534l-115 139l61 51l82 -99l120 99l41 -51l-169 -139h-20z" />
    <glyph glyph-name="napostrophe" unicode="&#x149;" horiz-adv-x="593" 
d="M58 508l105 234l80 -27l-136 -223zM387 0l55 285q11 55 -16 87t-72 32t-83 -32.5t-48 -81.5l-56 -290h-86l90 468h86l-8 -42q65 54 141 54q73 0 115 -48.5t27 -125.5l-59 -306h-86z" />
    <glyph glyph-name="Eng" unicode="&#x14a;" horiz-adv-x="737" 
d="M514 -1l-295 502l-97 -501h-92l137 705l25 7l347 -585l112 573h92l-154 -791q-37 -191 -192 -191q-74 0 -111 63l73 52q15 -39 54 -39q62 0 84 116z" />
    <glyph glyph-name="eng" unicode="&#x14b;" horiz-adv-x="537" 
d="M476 306l-77 -397q-37 -191 -187 -191q-69 0 -106 63l71 50q14 -37 51 -37q63 0 85 116l73 375q11 55 -16 87t-72 32q-46 0 -83.5 -32.5t-47.5 -81.5l-56 -290h-86l90 468h86l-8 -42q64 54 141 54q73 0 115 -48.5t27 -125.5z" />
    <glyph glyph-name="Omacron" unicode="&#x14c;" horiz-adv-x="832" 
d="M68 350q29 152 157 257t279 105t238 -104.5t58 -257.5q-30 -152 -158 -257t-279 -105t-238 104.5t-57 257.5zM160 350q-23 -118 41.5 -199t177.5 -81t209.5 81t119.5 199q22 118 -42.5 199t-177.5 81t-209.5 -81t-118.5 -199zM388 817l14 72h272l-14 -72h-272z" />
    <glyph glyph-name="omacron" unicode="&#x14d;" horiz-adv-x="596" 
d="M80 59q-60 72 -40 175t108.5 174.5t192.5 71.5t164.5 -71.5t40.5 -174.5t-108.5 -174.5t-192.5 -71.5t-165 71zM198 354q-58 -49 -72 -120t25 -120.5t109 -49.5t128 49.5t72 120.5t-25 120.5t-109 49.5t-128 -50zM227 593l14 72h272l-14 -72h-272z" />
    <glyph glyph-name="Obreve" unicode="&#x14e;" horiz-adv-x="832" 
d="M98 350q29 152 157 257t279 105t238 -104.5t58 -257.5q-30 -152 -158 -257t-279 -105t-238 104.5t-57 257.5zM190 350q-23 -118 41.5 -199t177.5 -81t209.5 81t119.5 199q22 118 -42.5 199t-177.5 81t-209.5 -81t-118.5 -199zM433 929h76q-6 -32 7 -56.5t44 -24.5t54 25
t29 56h76q-12 -63 -62 -108t-111 -45t-93 45t-20 108z" />
    <glyph glyph-name="obreve" unicode="&#x14f;" horiz-adv-x="596" 
d="M100 59q-60 72 -40 175t108.5 174.5t192.5 71.5t164.5 -71.5t40.5 -174.5t-108.5 -174.5t-192.5 -71.5t-165 71zM218 354q-58 -49 -72 -120t25 -120.5t109 -49.5t128 49.5t72 120.5t-25 120.5t-109 49.5t-128 -50zM262 705h76q-7 -31 6.5 -56t44.5 -25t53.5 24.5
t29.5 56.5h76q-13 -63 -62.5 -108t-110.5 -45t-93.5 45t-19.5 108z" />
    <glyph glyph-name="Ohungarumlaut" unicode="&#x150;" horiz-adv-x="832" 
d="M98 350q29 152 157 257t279 105t238 -104.5t58 -257.5q-30 -152 -158 -257t-279 -105t-238 104.5t-57 257.5zM190 350q-23 -118 41.5 -199t177.5 -81t209.5 81t119.5 199q22 118 -42.5 199t-177.5 81t-209.5 -81t-118.5 -199zM560 948l41 -51l-169 -139l-41 51zM733 948
l41 -51l-169 -139l-41 51z" />
    <glyph glyph-name="ohungarumlaut" unicode="&#x151;" horiz-adv-x="596" 
d="M100 59q-60 72 -40 175t108.5 174.5t192.5 71.5t164.5 -71.5t40.5 -174.5t-108.5 -174.5t-192.5 -71.5t-165 71zM218 354q-58 -49 -72 -120t25 -120.5t109 -49.5t128 49.5t72 120.5t-25 120.5t-109 49.5t-128 -50zM397 724l41 -51l-169 -139l-41 51zM570 724l41 -51
l-169 -139l-41 51z" />
    <glyph glyph-name="OE" unicode="&#x152;" horiz-adv-x="814" 
d="M759 82l-15 -82h-350q-155 0 -240.5 97.5t-55.5 252.5q20 103 84.5 183.5t155.5 123.5t192 43h340l-16 -82h-248l-36 -185h223l-16 -80h-223l-53 -271h258zM190 350q-24 -120 40 -193.5t179 -74.5l105 536q-116 -1 -208.5 -74t-115.5 -194z" />
    <glyph glyph-name="oe" unicode="&#x153;" horiz-adv-x="997" 
d="M687 -12q-139 0 -193 107q-45 -50 -105 -78.5t-124 -28.5q-105 0 -165 71.5t-40 174.5t108 174.5t193 71.5q64 0 113 -29t75 -80q44 51 103 80t122 29q102 0 160 -69t38 -177q-2 -15 -7 -26h-396q-3 -61 35 -102.5t98 -41.5q93 0 158 75l58 -46q-102 -105 -231 -105z
M218 354q-58 -49 -72 -120t25 -120.5t109 -49.5t128 49.5t72 120.5t-25 120.5t-109 49.5t-128 -50zM588 284h302q-4 55 -39.5 87.5t-91.5 32.5q-54 0 -100.5 -33t-70.5 -87z" />
    <glyph glyph-name="Racute" unicode="&#x154;" horiz-adv-x="535" 
d="M242 618l-120 -618h-92l136 700h137q107 0 156.5 -54t32.5 -145q-26 -130 -157 -179l137 -283l-85 -51l-171 372l13 26h9q62 0 107 32.5t55 83.5q10 52 -23 84t-98 32h-37zM430 948l41 -51l-169 -139l-41 51z" />
    <glyph glyph-name="racute" unicode="&#x155;" horiz-adv-x="382" 
d="M397 465l-39 -79q-30 18 -66 18q-48 0 -86 -39t-49 -98l-51 -267h-86l90 468h86l-9 -49q64 61 134 61q45 0 76 -15zM339 724l41 -51l-169 -139l-41 51z" />
    <glyph glyph-name="Rcommaaccent" unicode="&#x156;" horiz-adv-x="535" 
d="M242 618l-120 -618h-92l136 700h137q107 0 156.5 -54t32.5 -145q-26 -130 -157 -179l137 -283l-85 -51l-171 372l13 26h9q62 0 107 32.5t55 83.5q10 52 -23 84t-98 32h-37zM103 -267l88 200l81 -27l-116 -189z" />
    <glyph glyph-name="rcommaaccent" unicode="&#x157;" horiz-adv-x="382" 
d="M397 465l-39 -79q-30 18 -66 18q-48 0 -86 -39t-49 -98l-51 -267h-86l90 468h86l-9 -49q64 61 134 61q45 0 76 -15zM-77 -267l87 200l81 -27l-116 -189z" />
    <glyph glyph-name="Rcaron" unicode="&#x158;" horiz-adv-x="535" 
d="M242 618l-120 -618h-92l136 700h137q107 0 156.5 -54t32.5 -145q-26 -130 -157 -179l137 -283l-85 -51l-171 372l13 26h9q62 0 107 32.5t55 83.5q10 52 -23 84t-98 32h-37zM324 758l-115 139l61 51l82 -99l120 99l41 -51l-169 -139h-20z" />
    <glyph glyph-name="rcaron" unicode="&#x159;" horiz-adv-x="382" 
d="M397 465l-39 -79q-30 18 -66 18q-48 0 -86 -39t-49 -98l-51 -267h-86l90 468h86l-9 -49q64 61 134 61q45 0 76 -15zM239 534l-115 139l61 51l82 -99l120 99l41 -51l-169 -139h-20z" />
    <glyph glyph-name="Sacute" unicode="&#x15a;" horiz-adv-x="542" 
d="M18 131l82 53q10 -52 44 -83t83 -31q56 0 97.5 33t52.5 89q10 55 -12 92.5t-91 66.5q-77 32 -108 80t-18 119q14 69 71 115.5t136 46.5q51 0 89 -24.5t53 -66.5l-74 -48q-23 57 -84 57q-37 0 -64.5 -22.5t-33.5 -56.5q-8 -40 12.5 -69t78.5 -54q89 -38 121.5 -94
t15.5 -140q-17 -90 -87 -148t-171 -58q-73 0 -126.5 38.5t-66.5 104.5zM450 948l41 -51l-169 -139l-41 51z" />
    <glyph glyph-name="sacute" unicode="&#x15b;" horiz-adv-x="391" 
d="M154 64q34 0 57.5 19t28.5 48q6 31 -10.5 52t-61.5 41q-108 48 -91 132q10 53 55.5 88.5t101.5 35.5q36 0 65.5 -18.5t41.5 -50.5l-67 -44q-11 37 -53 37q-21 0 -37.5 -12.5t-19.5 -29.5q-4 -23 11 -39.5t54 -34.5q117 -52 98 -151q-13 -65 -62.5 -107t-125.5 -42
q-48 0 -86 28t-51 76l74 47q19 -75 78 -75zM337 724l41 -51l-169 -139l-41 51z" />
    <glyph glyph-name="Scircumflex" unicode="&#x15c;" horiz-adv-x="542" 
d="M18 131l82 53q10 -52 44 -83t83 -31q56 0 97.5 33t52.5 89q10 55 -12 92.5t-91 66.5q-77 32 -108 80t-18 119q14 69 71 115.5t136 46.5q51 0 89 -24.5t53 -66.5l-74 -48q-23 57 -84 57q-37 0 -64.5 -22.5t-33.5 -56.5q-8 -40 12.5 -69t78.5 -54q89 -38 121.5 -94
t15.5 -140q-17 -90 -87 -148t-171 -58q-73 0 -126.5 38.5t-66.5 104.5zM201 809l169 139h20l115 -139l-61 -51l-82 99l-120 -99z" />
    <glyph glyph-name="scircumflex" unicode="&#x15d;" horiz-adv-x="391" 
d="M154 64q34 0 57.5 19t28.5 48q6 31 -10.5 52t-61.5 41q-108 48 -91 132q10 53 55.5 88.5t101.5 35.5q36 0 65.5 -18.5t41.5 -50.5l-67 -44q-11 37 -53 37q-21 0 -37.5 -12.5t-19.5 -29.5q-4 -23 11 -39.5t54 -34.5q117 -52 98 -151q-13 -65 -62.5 -107t-125.5 -42
q-48 0 -86 28t-51 76l74 47q19 -75 78 -75zM98 585l169 139h20l115 -139l-61 -51l-81 99l-121 -99z" />
    <glyph glyph-name="Scedilla" unicode="&#x15e;" horiz-adv-x="529" 
d="M146 -83l-1 13l39 59q-64 6 -110.5 44t-58.5 98l82 53q10 -52 44 -83t83 -31q56 0 97.5 33t52.5 89q10 55 -12 92.5t-91 66.5q-77 32 -108 80t-18 119q14 69 71 115.5t136 46.5q51 0 89 -24.5t53 -66.5l-74 -48q-23 57 -84 57q-37 0 -64.5 -22.5t-33.5 -56.5
q-8 -40 12.5 -69t78.5 -54q89 -38 121.5 -94t15.5 -140q-15 -79 -72.5 -134.5t-141.5 -68.5l-23 -33q37 -9 55 -34.5t11 -60.5q-8 -41 -47 -71t-101 -30q-45 0 -83 30l44 47q22 -17 50 -17q25 0 42 12.5t21 32.5q4 24 -15.5 37t-59.5 13z" />
    <glyph glyph-name="scedilla" unicode="&#x15f;" horiz-adv-x="391" 
d="M74 -83l-1 13l40 61q-40 7 -70.5 33.5t-40.5 67.5l74 47q19 -75 78 -75q34 0 57.5 19t28.5 48q6 31 -10.5 52t-61.5 41q-108 48 -91 132q10 53 55.5 88.5t101.5 35.5q36 0 65.5 -18.5t41.5 -50.5l-67 -44q-11 37 -53 37q-21 0 -37.5 -12.5t-19.5 -29.5q-4 -23 11 -39.5
t54 -34.5q117 -52 98 -151q-11 -56 -49 -95.5t-97 -49.5l-24 -34q37 -9 55 -34.5t11 -60.5q-8 -41 -47 -71t-101 -30q-45 0 -83 30l44 47q22 -17 50 -17q25 0 42 12.5t21 32.5q4 24 -15.5 37t-59.5 13z" />
    <glyph glyph-name="Scaron" unicode="&#x160;" horiz-adv-x="542" 
d="M18 131l82 53q10 -52 44 -83t83 -31q56 0 97.5 33t52.5 89q10 55 -12 92.5t-91 66.5q-77 32 -108 80t-18 119q14 69 71 115.5t136 46.5q51 0 89 -24.5t53 -66.5l-74 -48q-23 57 -84 57q-37 0 -64.5 -22.5t-33.5 -56.5q-8 -40 12.5 -69t78.5 -54q89 -38 121.5 -94
t15.5 -140q-17 -90 -87 -148t-171 -58q-73 0 -126.5 38.5t-66.5 104.5zM333 758l-115 139l61 51l82 -99l120 99l41 -51l-169 -139h-20z" />
    <glyph glyph-name="scaron" unicode="&#x161;" horiz-adv-x="391" 
d="M154 64q34 0 57.5 19t28.5 48q6 31 -10.5 52t-61.5 41q-108 48 -91 132q10 53 55.5 88.5t101.5 35.5q36 0 65.5 -18.5t41.5 -50.5l-67 -44q-11 37 -53 37q-21 0 -37.5 -12.5t-19.5 -29.5q-4 -23 11 -39.5t54 -34.5q117 -52 98 -151q-13 -65 -62.5 -107t-125.5 -42
q-48 0 -86 28t-51 76l74 47q19 -75 78 -75zM230 534l-115 139l61 51l82 -99l120 99l41 -51l-169 -139h-20z" />
    <glyph glyph-name="Tcommaaccent" unicode="&#x162;" horiz-adv-x="472" 
d="M105 -83l-1 13l47 70h-11l120 618h-170l16 82h432l-16 -82h-170l-120 -618h-14l-30 -42q37 -9 55 -34.5t11 -60.5q-8 -41 -47 -71t-101 -30q-45 0 -83 30l44 47q22 -17 50 -17q25 0 42 12.5t21 32.5q4 24 -15.5 37t-59.5 13z" />
    <glyph glyph-name="tcommaaccent" unicode="&#x163;" horiz-adv-x="328" 
d="M17 -83l-1 13l47 70h-10l76 392h-78l14 76h78l26 132h86l-26 -132h119l-14 -76h-119l-76 -392h-9l-30 -42q37 -9 55 -34.5t11 -60.5q-8 -41 -47 -71t-101 -30q-45 0 -82 30l43 47q22 -17 50 -17q25 0 42 12.5t21 32.5q4 24 -15.5 37t-59.5 13z" />
    <glyph glyph-name="Tcaron" unicode="&#x164;" horiz-adv-x="472" 
d="M90 618l16 82h432l-16 -82h-170l-120 -618h-92l120 618h-170zM323 758l-115 139l61 51l82 -99l120 99l41 -51l-169 -139h-20z" />
    <glyph glyph-name="tcaron" unicode="&#x165;" horiz-adv-x="487" 
d="M51 392l14 76h78l26 132h86l-26 -132h119l-14 -76h-119l-76 -392h-86l76 392h-78zM370 508l105 234l80 -27l-136 -223z" />
    <glyph glyph-name="Tbar" unicode="&#x166;" horiz-adv-x="472" 
d="M201 315h-121l13 68h121l46 235h-170l16 82h432l-16 -82h-170l-46 -235h121l-13 -68h-121l-61 -315h-92z" />
    <glyph glyph-name="tbar" unicode="&#x167;" horiz-adv-x="328" 
d="M96 225h-65l13 68h65l20 99h-78l14 76h78l26 132h86l-26 -132h119l-14 -76h-119l-20 -99h100l-13 -68h-100l-43 -225h-86z" />
    <glyph glyph-name="Utilde" unicode="&#x168;" horiz-adv-x="642" 
d="M490 244l89 456h92l-89 -457q-23 -117 -107 -186t-184 -69t-157 69t-34 186l89 457h92l-89 -456q-16 -82 16.5 -128t98.5 -46t116.5 46t66.5 128zM436 823q-19 21 -38 21q-29 0 -44 -49l-66 21q15 46 49 73.5t72 27.5q42 0 74 -34q21 -21 39 -21q29 0 44 49l65 -21
q-15 -46 -48.5 -73.5t-71.5 -27.5q-43 0 -75 34z" />
    <glyph glyph-name="utilde" unicode="&#x169;" horiz-adv-x="542" 
d="M216 468l-55 -285q-11 -55 16 -87t72 -32q46 0 83.5 32.5t47.5 81.5l56 290h86l-90 -468h-86l8 42q-64 -54 -141 -54q-73 0 -115 48.5t-27 125.5l59 306h86zM336 599q-21 21 -39 21q-27 0 -44 -49l-65 21q15 46 48.5 73.5t71.5 27.5q43 0 75 -34q19 -21 39 -21
q28 0 43 49l66 -21q-15 -46 -49 -73.5t-72 -27.5q-42 0 -74 34z" />
    <glyph glyph-name="Umacron" unicode="&#x16a;" horiz-adv-x="642" 
d="M467 244l89 456h92l-89 -457q-23 -117 -107 -186t-184 -69t-157 69t-34 186l89 457h92l-89 -456q-16 -82 16.5 -128t98.5 -46t116.5 46t66.5 128zM293 817l14 72h272l-14 -72h-272z" />
    <glyph glyph-name="umacron" unicode="&#x16b;" horiz-adv-x="542" 
d="M201 468l-55 -285q-11 -55 16 -87t72 -32q46 0 83.5 32.5t47.5 81.5l56 290h86l-90 -468h-86l8 42q-64 -54 -141 -54q-73 0 -115 48.5t-27 125.5l59 306h86zM201 593l14 72h272l-14 -72h-272z" />
    <glyph glyph-name="Ubreve" unicode="&#x16c;" horiz-adv-x="642" 
d="M467 244l89 456h92l-89 -457q-23 -117 -107 -186t-184 -69t-157 69t-34 186l89 457h92l-89 -456q-16 -82 16.5 -128t98.5 -46t116.5 46t66.5 128zM308 930h76q-6 -31 7.5 -56t44.5 -25t53.5 25t28.5 56h76q-12 -63 -61.5 -108t-110.5 -45t-93.5 45t-20.5 108z" />
    <glyph glyph-name="ubreve" unicode="&#x16d;" horiz-adv-x="542" 
d="M216 468l-55 -285q-11 -55 16 -87t72 -32q46 0 83.5 32.5t47.5 81.5l56 290h86l-90 -468h-86l8 42q-64 -54 -141 -54q-73 0 -115 48.5t-27 125.5l59 306h86zM231 705h76q-7 -31 6.5 -56t44.5 -25t53.5 24.5t29.5 56.5h76q-13 -63 -62.5 -108t-110.5 -45t-93.5 45
t-19.5 108z" />
    <glyph glyph-name="Uring" unicode="&#x16e;" horiz-adv-x="642" 
d="M490 244l89 456h92l-89 -457q-23 -117 -107 -186t-184 -69t-157 69t-34 186l89 457h92l-89 -456q-16 -82 16.5 -128t98.5 -46t116.5 46t66.5 128zM412 853q-4 -20 7 -34t31 -14t36 14t20 34q5 20 -6 34t-31 14t-36 -14t-21 -34zM353 853q9 44 46 74t81 30t69 -30t16 -74
q-8 -44 -45 -74t-81 -30t-69 29.5t-17 74.5z" />
    <glyph glyph-name="uring" unicode="&#x16f;" horiz-adv-x="542" 
d="M297 628q-5 -20 6 -34t31 -14t36 14t21 34q4 20 -7 34t-31 14t-36 -14t-20 -34zM238 628q8 44 45 74t81 30t69 -29.5t17 -74.5q-9 -44 -46 -74t-81 -30t-69 30t-16 74zM201 468l-55 -285q-11 -55 16 -87t72 -32q46 0 83.5 32.5t47.5 81.5l56 290h86l-90 -468h-86l8 42
q-64 -54 -141 -54q-73 0 -115 48.5t-27 125.5l59 306h86z" />
    <glyph glyph-name="Uhungarumlaut" unicode="&#x170;" horiz-adv-x="642" 
d="M490 244l89 456h92l-89 -457q-23 -117 -107 -186t-184 -69t-157 69t-34 186l89 457h92l-89 -456q-16 -82 16.5 -128t98.5 -46t116.5 46t66.5 128zM464 948l41 -51l-169 -139l-41 51zM637 948l41 -51l-169 -139l-41 51z" />
    <glyph glyph-name="uhungarumlaut" unicode="&#x171;" horiz-adv-x="542" 
d="M216 468l-55 -285q-11 -55 16 -87t72 -32q46 0 83.5 32.5t47.5 81.5l56 290h86l-90 -468h-86l8 42q-64 -54 -141 -54q-73 0 -115 48.5t-27 125.5l59 306h86zM357 724l41 -51l-169 -139l-41 51zM530 724l41 -51l-169 -139l-41 51z" />
    <glyph glyph-name="Uogonek" unicode="&#x172;" horiz-adv-x="642" 
d="M489 244l89 456h92l-89 -457q-19 -96 -80.5 -160.5t-142.5 -85.5q-64 -51 -75 -100q-5 -27 8 -40t37 -13q20 0 40 14l12 -56q-38 -21 -82 -21q-51 0 -75.5 30.5t-16.5 71.5q11 58 73 105q-96 4 -149 72.5t-31 182.5l89 457h92l-89 -456q-16 -82 16.5 -128t98.5 -46
t116.5 46t66.5 128z" />
    <glyph glyph-name="uogonek" unicode="&#x173;" horiz-adv-x="542" 
d="M216 468l-55 -285q-11 -55 16 -87t72 -32q46 0 83.5 32.5t47.5 81.5l56 290h86l-90 -468h-13q-68 -51 -79 -103q-5 -27 8 -40t37 -13q20 0 40 14l12 -56q-38 -21 -82 -21q-51 0 -75.5 30.5t-16.5 71.5q13 67 90 117h-7l8 42q-64 -54 -141 -54q-73 0 -115 48.5t-27 125.5
l59 306h86z" />
    <glyph glyph-name="Wcircumflex" unicode="&#x174;" horiz-adv-x="988" 
d="M572 712h20l92 -515l284 515l88 -25l-403 -699h-20l-95 496l-289 -496h-20l-131 699l98 25l84 -515zM449 809l169 139h20l115 -139l-61 -51l-82 99l-120 -99z" />
    <glyph glyph-name="wcircumflex" unicode="&#x175;" horiz-adv-x="762" 
d="M414 480h20l81 -315l197 315l78 -26l-301 -466h-20l-78 325l-204 -325h-20l-119 466l88 26l75 -315zM292 585l169 139h20l115 -139l-61 -51l-81 99l-121 -99z" />
    <glyph glyph-name="Ycircumflex" unicode="&#x176;" horiz-adv-x="604" 
d="M353 286l-55 -286h-92l55 286l-167 382l83 44l147 -339l279 339l65 -44zM257 809l169 139h20l115 -139l-61 -51l-82 99l-120 -99z" />
    <glyph glyph-name="ycircumflex" unicode="&#x177;" horiz-adv-x="495" 
d="M60 -294l-75 34l167 276l-89 437l87 27l65 -358l217 358l76 -27zM157 585l169 139h20l115 -139l-61 -51l-81 99l-121 -99z" />
    <glyph glyph-name="Ydieresis" unicode="&#x178;" horiz-adv-x="604" 
d="M353 286l-55 -286h-92l55 286l-167 382l83 44l147 -339l279 339l65 -44zM267 853q4 23 24 39.5t43 16.5t36.5 -16.5t8.5 -39.5q-4 -23 -24 -39.5t-43 -16.5t-36.5 16.5t-8.5 39.5zM455 853q4 23 24 39.5t43 16.5t36.5 -16.5t8.5 -39.5q-4 -23 -24 -39.5t-43 -16.5
t-36.5 16.5t-8.5 39.5z" />
    <glyph glyph-name="Zacute" unicode="&#x179;" horiz-adv-x="505" 
d="M-24 0l-8 19l437 599h-278l16 82h403l7 -19l-438 -599h335l-15 -82h-459zM451 948l41 -51l-169 -139l-41 51z" />
    <glyph glyph-name="zacute" unicode="&#x17a;" horiz-adv-x="413" 
d="M-18 0l-4 18l291 374h-183l14 76h308l4 -18l-294 -374h234l-14 -76h-356zM353 724l41 -51l-169 -139l-41 51z" />
    <glyph glyph-name="Zdotaccent" unicode="&#x17b;" horiz-adv-x="505" 
d="M-24 0l-8 19l437 599h-278l16 82h403l7 -19l-438 -599h335l-15 -82h-459zM311 853q4 23 24 39.5t43 16.5t36.5 -16.5t8.5 -39.5q-4 -23 -24 -39.5t-43 -16.5t-36.5 16.5t-8.5 39.5z" />
    <glyph glyph-name="zdotaccent" unicode="&#x17c;" horiz-adv-x="413" 
d="M-18 0l-4 18l291 374h-183l14 76h308l4 -18l-294 -374h234l-14 -76h-356zM228 629q4 23 24 39.5t43 16.5t36.5 -16.5t8.5 -39.5q-4 -23 -24 -39.5t-43 -16.5t-36.5 16.5t-8.5 39.5z" />
    <glyph glyph-name="Zcaron" unicode="&#x17d;" horiz-adv-x="505" 
d="M-24 0l-8 19l437 599h-278l16 82h403l7 -19l-438 -599h335l-15 -82h-459zM340 758l-115 139l61 51l82 -99l120 99l41 -51l-169 -139h-20z" />
    <glyph glyph-name="zcaron" unicode="&#x17e;" horiz-adv-x="413" 
d="M-18 0l-4 18l291 374h-183l14 76h308l4 -18l-294 -374h234l-14 -76h-356zM259 534l-115 139l61 51l82 -99l120 99l41 -51l-169 -139h-20z" />
    <glyph glyph-name="longs" unicode="&#x17f;" horiz-adv-x="341" 
d="M51 392l14 76h78l20 102q18 91 68 141t129 50q81 0 116 -63l-73 -51q-14 38 -57 38q-75 0 -97 -116l-110 -569h-86l76 392h-78z" />
    <glyph glyph-name="florin" unicode="&#x192;" horiz-adv-x="341" 
d="M215 392l-94 -483q-18 -91 -68 -141t-128 -50q-81 0 -116 63l73 51q14 -38 57 -38q74 0 96 116l94 482h-78l14 76h78l20 102q18 91 68 141t129 50q81 0 116 -63l-73 -51q-14 38 -57 38q-75 0 -97 -116l-20 -101h119l-14 -76h-119z" />
    <glyph glyph-name="Ohorn" unicode="&#x1a0;" horiz-adv-x="832" 
d="M778 782l85 39q23 -41 11 -103q-14 -78 -91 -126q74 -103 47 -242q-30 -152 -158 -257t-279 -105t-238 104.5t-57 257.5q29 152 157 257t279 105q131 0 215 -81q38 30 46 69q8 46 -17 82zM190 350q-23 -118 41.5 -199t177.5 -81t209.5 81t119.5 199q22 118 -42.5 199
t-177.5 81t-209.5 -81t-118.5 -199z" />
    <glyph glyph-name="ohorn" unicode="&#x1a1;" horiz-adv-x="596" 
d="M554 581l86 39q23 -41 11 -103q-18 -89 -107 -135q38 -65 22 -148q-20 -103 -108.5 -174.5t-192.5 -71.5t-164.5 71.5t-40.5 174.5t108.5 174.5t192.5 71.5q95 0 152 -59q50 30 58 78q10 46 -17 82zM218 354q-58 -49 -72 -120t25 -120.5t109 -49.5t128 49.5t72 120.5
t-25 120.5t-109 49.5t-128 -50z" />
    <glyph glyph-name="Uhorn" unicode="&#x1af;" horiz-adv-x="670" 
d="M691 845l85 39q23 -41 11 -103q-8 -46 -41.5 -84.5t-87.5 -60.5l-76 -393q-23 -117 -107 -186t-184 -69t-157 69t-34 186l89 457h92l-89 -456q-16 -82 16.5 -128t98.5 -46t116.5 46t66.5 128l89 456h92q29 25 37 63q8 46 -17 82z" />
    <glyph glyph-name="uhorn" unicode="&#x1b0;" horiz-adv-x="570" 
d="M554 625l86 39q22 -41 11 -103q-10 -50 -47.5 -90.5t-97.5 -60.5l-79 -410h-86l8 42q-64 -54 -141 -54q-73 0 -115 48.5t-27 125.5l59 306h86l-55 -285q-11 -55 16 -87t72 -32t83 32.5t48 81.5l56 290h86q44 28 54 75q8 48 -17 82z" />
    <glyph glyph-name="Scommaaccent" unicode="&#x218;" horiz-adv-x="529" 
d="M15 131l82 53q10 -52 44 -83t83 -31q56 0 97.5 33t52.5 89q10 55 -12 92.5t-91 66.5q-77 32 -108 80t-18 119q14 69 71 115.5t136 46.5q51 0 89 -24.5t53 -66.5l-74 -48q-23 57 -84 57q-37 0 -64.5 -22.5t-33.5 -56.5q-8 -40 12.5 -69t78.5 -54q89 -38 121.5 -94
t15.5 -140q-17 -90 -87 -148t-171 -58q-73 0 -126.5 38.5t-66.5 104.5zM81 -267l88 200l81 -27l-116 -189z" />
    <glyph glyph-name="scommaaccent" unicode="&#x219;" horiz-adv-x="386" 
d="M154 64q34 0 57.5 19t28.5 48q6 31 -10.5 52t-61.5 41q-108 48 -91 132q10 53 55.5 88.5t101.5 35.5q36 0 65.5 -18.5t41.5 -50.5l-67 -44q-11 37 -53 37q-21 0 -37.5 -12.5t-19.5 -29.5q-4 -23 11 -39.5t54 -34.5q117 -52 98 -151q-13 -65 -62.5 -107t-125.5 -42
q-48 0 -86 28t-51 76l74 47q19 -75 78 -75zM22 -267l88 200l81 -27l-116 -189z" />
    <glyph glyph-name="uni021A" unicode="&#x21a;" horiz-adv-x="472" 
d="M90 618l16 82h432l-16 -82h-170l-120 -618h-92l120 618h-170zM47 -267l88 200l81 -27l-116 -189z" />
    <glyph glyph-name="uni021B" unicode="&#x21b;" horiz-adv-x="328" 
d="M51 392l14 76h78l26 132h86l-26 -132h119l-14 -76h-119l-76 -392h-86l76 392h-78zM-39 -267l88 200l81 -27l-116 -189z" />
    <glyph glyph-name="uni0237" unicode="&#x237;" horiz-adv-x="244" 
d="M-211 -219l73 51q14 -38 57 -38q74 0 96 116l108 558h86l-108 -559q-18 -91 -68 -141t-128 -50q-81 0 -116 63z" />
    <glyph glyph-name="apostrophe" unicode="&#x2bc;" horiz-adv-x="400" 
d="M173 516l104 234l81 -27l-136 -223z" />
    <glyph glyph-name="circumflex" unicode="&#x2c6;" horiz-adv-x="400" 
d="M115 605l169 139h20l115 -139l-61 -51l-82 99l-120 -99z" />
    <glyph glyph-name="caron" unicode="&#x2c7;" horiz-adv-x="400" 
d="M247 554l-115 139l61 51l82 -99l120 99l41 -51l-169 -139h-20z" />
    <glyph glyph-name="uni02C9" unicode="&#x2c9;" horiz-adv-x="400" 
d="M133 613l14 72h272l-14 -72h-272z" />
    <glyph glyph-name="breve" unicode="&#x2d8;" horiz-adv-x="400" 
d="M157 715h76q-6 -31 7.5 -56t44.5 -25t53.5 25t28.5 56h76q-12 -63 -61.5 -108t-110.5 -45t-93.5 45t-20.5 108z" />
    <glyph glyph-name="dotaccent" unicode="&#x2d9;" horiz-adv-x="400" 
d="M225 649q4 23 24 39.5t43 16.5t36.5 -16.5t8.5 -39.5q-4 -23 -24 -39.5t-43 -16.5t-36.5 16.5t-8.5 39.5z" />
    <glyph glyph-name="ring" unicode="&#x2da;" horiz-adv-x="400" 
d="M238 649q-5 -20 6 -34t31 -14t36 14t21 34q4 20 -7 34t-31 14t-36 -14t-20 -34zM179 649q8 44 45 74t81 30t69 -29.5t17 -74.5q-9 -44 -46 -74t-81 -30t-69 30t-16 74z" />
    <glyph glyph-name="ogonek" unicode="&#x2db;" horiz-adv-x="400" 
d="M163 10h63q-36 -25 -61.5 -56t-30.5 -57q-5 -27 8 -40t37 -13q20 0 40 14l12 -56q-38 -21 -82 -21q-51 0 -75.5 30.5t-16.5 71.5q13 73 106 127z" />
    <glyph glyph-name="tilde" unicode="&#x2dc;" horiz-adv-x="400" 
d="M253 620q-19 21 -39 21q-28 0 -43 -49l-66 21q15 46 48.5 73.5t71.5 27.5q43 0 75 -34q19 -21 39 -21q28 0 43 49l66 -21q-15 -46 -49 -73.5t-72 -27.5q-42 0 -74 34z" />
    <glyph glyph-name="hungarumlaut" unicode="&#x2dd;" horiz-adv-x="400" 
d="M253 744l41 -51l-169 -139l-41 51zM426 744l41 -51l-169 -139l-41 51z" />
    <glyph glyph-name="gravecomb" unicode="&#x300;" horiz-adv-x="0" 
d="M-292 693l61 51l115 -139l-61 -51z" />
    <glyph glyph-name="acutecomb" unicode="&#x301;" horiz-adv-x="0" 
d="M-85 744l40 -51l-168 -139l-41 51z" />
    <glyph glyph-name="uni0302" unicode="&#x302;" horiz-adv-x="0" 
d="M-337 605l169 139h20l114 -139l-60 -51l-82 99l-120 -99z" />
    <glyph glyph-name="tildecomb" unicode="&#x303;" horiz-adv-x="0" 
d="M-199 620q-19 21 -39 21q-28 0 -43 -49l-66 21q15 46 48.5 73.5t71.5 27.5q43 0 75 -34q19 -21 39 -21q28 0 43 49l65 -21q-15 -46 -48.5 -73.5t-71.5 -27.5q-42 0 -74 34z" />
    <glyph glyph-name="uni0304" unicode="&#x304;" horiz-adv-x="0" 
d="M-316 613l14 72h271l-14 -72h-271z" />
    <glyph glyph-name="uni0306" unicode="&#x306;" horiz-adv-x="0" 
d="M-295 715h76q-6 -31 7.5 -56t44.5 -25t53.5 25t28.5 56h75q-12 -63 -61 -108t-110 -45t-93.5 45t-20.5 108z" />
    <glyph glyph-name="uni0307" unicode="&#x307;" horiz-adv-x="0" 
d="M-232 649q4 23 24 39.5t43 16.5t36.5 -16.5t8.5 -39.5q-4 -23 -24 -39.5t-43 -16.5t-36.5 16.5t-8.5 39.5z" />
    <glyph glyph-name="uni0308" unicode="&#x308;" horiz-adv-x="0" 
d="M-321 649q4 23 24 39.5t43 16.5t36.5 -16.5t8.5 -39.5q-4 -23 -24 -39.5t-43 -16.5t-36.5 16.5t-8.5 39.5zM-133 649q4 23 24 39.5t43 16.5t35.5 -16.5t8.5 -39.5q-5 -23 -24 -39.5t-42 -16.5t-36.5 16.5t-8.5 39.5z" />
    <glyph glyph-name="hookabovecomb" unicode="&#x309;" horiz-adv-x="0" 
d="M-159 600l-7 -38h-66l10 52l11 10q16 4 28 14t14 21q5 26 -19 26q-18 0 -35 -17l-25 43q39 36 87 36q33 0 51.5 -22t12.5 -54q-10 -49 -62 -71z" />
    <glyph glyph-name="uni030A" unicode="&#x30a;" horiz-adv-x="0" 
d="M-223 649q-5 -20 6 -34t31 -14t36 14t21 34q4 20 -7 34t-31 14t-36 -14t-20 -34zM-282 649q8 44 45 74t81 30t69 -29.5t17 -74.5q-9 -44 -46 -74t-81 -30t-69 30t-16 74z" />
    <glyph glyph-name="uni030C" unicode="&#x30c;" horiz-adv-x="0" 
d="M-205 554l-115 139l61 51l82 -99l120 99l40 -51l-168 -139h-20z" />
    <glyph glyph-name="dotbelowcomb" unicode="&#x323;" horiz-adv-x="0" 
d="M-402 -225q4 23 24 39.5t43 16.5t36.5 -16.5t8.5 -39.5q-4 -23 -24 -39.5t-43 -16.5t-36.5 16.5t-8.5 39.5z" />
    <glyph glyph-name="uni03A9" unicode="&#x3a9;" horiz-adv-x="818" 
d="M774 370q0 -175 -164 -288h168v-82h-282v82q186 125 186 288q0 105 -78.5 182.5t-184.5 77.5t-184.5 -77.5t-78.5 -182.5q0 -163 186 -288v-82h-282v82h168q-164 113 -164 288q0 144 102.5 243t252.5 99t252.5 -99t102.5 -243z" />
    <glyph glyph-name="pi" unicode="&#x3c0;" horiz-adv-x="638" 
d="M356 168l44 228h-131q-24 -125 -61 -218t-104 -188l-74 40q115 158 155 366h-134l14 72h575l-14 -72h-142l-46 -241q-18 -91 33 -91q39 0 62 36l49 -49q-54 -63 -122 -63q-72 0 -95.5 51.5t-8.5 128.5z" />
    <glyph glyph-name="uni0400" unicode="&#x400;" horiz-adv-x="480" 
d="M395 82l-15 -82h-350l136 700h340l-16 -82h-248l-36 -185h223l-16 -80h-223l-53 -271h258zM274 897l61 51l115 -139l-61 -51z" />
    <glyph glyph-name="afii10023" unicode="&#x401;" horiz-adv-x="480" 
d="M395 82l-15 -82h-350l136 700h340l-16 -82h-248l-36 -185h223l-16 -80h-223l-53 -271h258zM214 853q4 23 24 39.5t43 16.5t36.5 -16.5t8.5 -39.5q-4 -23 -24 -39.5t-43 -16.5t-36.5 16.5t-8.5 39.5zM402 853q4 23 24 39.5t43 16.5t36.5 -16.5t8.5 -39.5q-4 -23 -24 -39.5
t-43 -16.5t-36.5 16.5t-8.5 39.5z" />
    <glyph glyph-name="afii10051" unicode="&#x402;" horiz-adv-x="622" 
d="M313 0l15 82q59 0 105.5 37.5t57.5 95.5q12 59 -20.5 96t-92.5 37q-64 0 -109 -24l-62 -324h-92l120 618h-150l16 82h417l-16 -82h-175l-43 -219q60 31 126 31q90 0 140.5 -61.5t32.5 -153.5q-18 -93 -93.5 -154t-176.5 -61z" />
    <glyph glyph-name="afii10052" unicode="&#x403;" horiz-adv-x="428" 
d="M30 0l136 700h323l-16 -82h-231l-120 -618h-92zM434 948l41 -51l-169 -139l-41 51z" />
    <glyph glyph-name="afii10053" unicode="&#x404;" horiz-adv-x="711" 
d="M98 350q29 152 157 257t279 105q148 0 235 -101l-74 -62q-64 81 -177 81q-103 0 -193 -68t-124 -171h400l-16 -82h-400q-6 -103 57.5 -171t166.5 -68q114 0 209 81l50 -62q-127 -101 -275 -101q-151 0 -238 104.5t-57 257.5z" />
    <glyph glyph-name="afii10054" unicode="&#x405;" horiz-adv-x="529" 
d="M15 131l82 53q10 -52 44 -83t83 -31q56 0 97.5 33t52.5 89q10 55 -12 92.5t-91 66.5q-77 32 -108 80t-18 119q14 69 71 115.5t136 46.5q51 0 89 -24.5t53 -66.5l-74 -48q-23 57 -84 57q-37 0 -64.5 -22.5t-33.5 -56.5q-8 -40 12.5 -69t78.5 -54q89 -38 121.5 -94
t15.5 -140q-17 -90 -87 -148t-171 -58q-73 0 -126.5 38.5t-66.5 104.5z" />
    <glyph glyph-name="afii10055" unicode="&#x406;" horiz-adv-x="272" 
d="M176 700h92l-136 -700h-92z" />
    <glyph glyph-name="afii10056" unicode="&#x407;" horiz-adv-x="272" 
d="M101 853q4 23 24 39.5t43 16.5t36.5 -16.5t8.5 -39.5q-4 -23 -24 -39.5t-43 -16.5t-36.5 16.5t-8.5 39.5zM289 853q4 23 24 39.5t43 16.5t36.5 -16.5t8.5 -39.5q-4 -23 -24 -39.5t-43 -16.5t-36.5 16.5t-8.5 39.5zM176 700h92l-136 -700h-92z" />
    <glyph glyph-name="afii10057" unicode="&#x408;" horiz-adv-x="416" 
d="M-35 66l79 54q17 -50 72 -50q42 0 73.5 36.5t44.5 101.5l96 492h92l-95 -489q-22 -111 -83 -167t-144 -56q-45 0 -80.5 21t-54.5 57z" />
    <glyph glyph-name="afii10058" unicode="&#x409;" horiz-adv-x="894" 
d="M656 700l-56 -286h65q106 0 158.5 -58.5t35.5 -148.5q-18 -90 -93 -148.5t-181 -58.5h-157l120 618h-222l-108 -400q-22 -81 -74 -135t-136 -95l-38 67q133 66 159 165l129 480h398zM647 332h-63l-49 -250h63q66 0 112 34t57 91t-21.5 91t-98.5 34z" />
    <glyph glyph-name="afii10059" unicode="&#x40a;" horiz-adv-x="874" 
d="M636 700l-56 -286h65q106 0 158.5 -58.5t35.5 -148.5q-18 -90 -93 -148.5t-181 -58.5h-157l66 342h-286l-66 -342h-92l136 700h92l-54 -276h286l54 276h92zM627 332h-63l-49 -250h63q66 0 112 34t57 91t-21.5 91t-98.5 34z" />
    <glyph glyph-name="afii10060" unicode="&#x40b;" horiz-adv-x="622" 
d="M435 0l42 219q13 63 -13.5 96t-85.5 33q-64 0 -109 -24l-62 -324h-92l120 618h-150l16 82h417l-16 -82h-175l-43 -219q60 31 126 31q90 0 134 -56t24 -158l-41 -216h-92z" />
    <glyph glyph-name="afii10061" unicode="&#x40c;" horiz-adv-x="586" 
d="M448 -12l-257 369l362 355l59 -57l-308 -298l227 -304zM258 700l-136 -700h-92l136 700h92zM472 948l41 -51l-169 -139l-41 51z" />
    <glyph glyph-name="uni040D" unicode="&#x40d;" horiz-adv-x="737" 
d="M159 191l562 521l23 -7l-137 -705h-92l98 509l-562 -521l-22 7l137 705h92zM396 897l61 51l115 -139l-61 -51z" />
    <glyph glyph-name="afii10062" unicode="&#x40e;" horiz-adv-x="585" 
d="M252 260l-154 412l86 40l136 -360l265 360l70 -40l-503 -684l-70 40zM282 929h76q-6 -32 7 -56.5t44 -24.5t54 25t29 56h76q-12 -63 -62 -108t-111 -45t-93 45t-20 108z" />
    <glyph glyph-name="afii10145" unicode="&#x40f;" horiz-adv-x="636" 
d="M195 -136l27 136h-192l136 700h92l-121 -618h292l121 618h92l-136 -700h-192l-27 -136h-92z" />
    <glyph glyph-name="afii10017" unicode="&#x410;" horiz-adv-x="628" 
d="M392 712h20l153 -700l-91 -24l-38 188h-277l-111 -188l-81 24zM365 524l-157 -266h211z" />
    <glyph glyph-name="afii10018" unicode="&#x411;" horiz-adv-x="516" 
d="M249 332h-63l-49 -250h63q66 0 112 34t57 91t-21.5 91t-98.5 34zM166 700h343l-16 -82h-251l-40 -204h65q106 0 158.5 -58.5t35.5 -148.5q-18 -90 -93 -148.5t-181 -58.5h-157z" />
    <glyph glyph-name="afii10019" unicode="&#x412;" horiz-adv-x="531" 
d="M214 0h-184l136 700h143q102 0 150.5 -48t34.5 -120q-10 -54 -48.5 -96.5t-90.5 -59.5q71 -15 101 -65t17 -118q-16 -85 -86 -139t-173 -54zM137 80h84q65 0 108.5 35.5t54.5 90.5q10 55 -22 91t-100 36h-76zM202 413h58q58 0 94 29t45 74q8 45 -16.5 74.5t-84.5 29.5
h-56z" />
    <glyph glyph-name="afii10020" unicode="&#x413;" horiz-adv-x="428" 
d="M30 0l136 700h323l-16 -82h-231l-120 -618h-92z" />
    <glyph glyph-name="afii10021" unicode="&#x414;" horiz-adv-x="633" 
d="M563 82l-40 -208h-92l25 126h-404l-25 -126h-91l39 208h53q76 116 122.5 249.5t80.5 308.5l12 60h375l-121 -618h66zM124 82h281l105 536h-197q-65 -330 -189 -536z" />
    <glyph glyph-name="afii10022" unicode="&#x415;" horiz-adv-x="480" 
d="M395 82l-15 -82h-350l136 700h340l-16 -82h-248l-36 -185h223l-16 -80h-223l-53 -271h258z" />
    <glyph glyph-name="afii10024" unicode="&#x416;" horiz-adv-x="866" 
d="M337 0l136 700h92l-67 -343l332 355l65 -51l-285 -302l200 -310l-85 -61l-227 369l-69 -357h-92zM406 357l-371 -369l-61 61l320 310l-167 302l85 51z" />
    <glyph glyph-name="afii10025" unicode="&#x417;" horiz-adv-x="538" 
d="M327 630q-75 0 -136 -78l-60 42q43 56 99.5 87t114.5 31q81 0 123.5 -51.5t27.5 -128.5q-16 -84 -100 -133q51 -26 75.5 -75.5t12.5 -112.5q-19 -93 -100 -158t-180 -65q-66 0 -117 30.5t-76 91.5l78 52q41 -92 131 -92q60 0 110.5 43.5t61.5 100.5q12 61 -21.5 102
t-94.5 41h-79l16 82h79q42 0 73.5 28t38.5 67q8 40 -12.5 68t-64.5 28z" />
    <glyph glyph-name="afii10026" unicode="&#x418;" horiz-adv-x="737" 
d="M159 191l562 521l23 -7l-137 -705h-92l98 509l-562 -521l-22 7l137 705h92z" />
    <glyph glyph-name="afii10027" unicode="&#x419;" horiz-adv-x="737" 
d="M159 191l562 521l23 -7l-137 -705h-92l98 509l-562 -521l-22 7l137 705h92zM355 929h76q-6 -32 7 -56.5t44 -24.5t54 25t29 56h76q-12 -63 -62 -108t-111 -45t-93 45t-20 108z" />
    <glyph glyph-name="afii10028" unicode="&#x41a;" horiz-adv-x="586" 
d="M448 -12l-257 369l362 355l59 -57l-308 -298l227 -304zM258 700l-136 -700h-92l136 700h92z" />
    <glyph glyph-name="afii10029" unicode="&#x41b;" horiz-adv-x="680" 
d="M686 700l-136 -700h-92l120 618h-252l-108 -400q-22 -81 -74 -135t-136 -95l-38 67q133 66 159 165l129 480h428z" />
    <glyph glyph-name="afii10030" unicode="&#x41c;" horiz-adv-x="928" 
d="M421 -12h-20l-107 512l-237 -512l-85 25l340 699h20l120 -513l320 513h20l68 -699l-95 -25l-37 512z" />
    <glyph glyph-name="afii10031" unicode="&#x41d;" horiz-adv-x="640" 
d="M554 700h92l-136 -700h-92l66 342h-296l-66 -342h-92l136 700h92l-54 -276h296z" />
    <glyph glyph-name="afii10032" unicode="&#x41e;" horiz-adv-x="832" 
d="M68 350q29 152 157 257t279 105t238 -104.5t58 -257.5q-30 -152 -158 -257t-279 -105t-238 104.5t-57 257.5zM160 350q-23 -118 41.5 -199t177.5 -81t209.5 81t119.5 199q22 118 -42.5 199t-177.5 81t-209.5 -81t-118.5 -199z" />
    <glyph glyph-name="afii10033" unicode="&#x41f;" horiz-adv-x="636" 
d="M642 700l-136 -700h-92l120 618h-292l-120 -618h-92l136 700h476z" />
    <glyph glyph-name="afii10034" unicode="&#x420;" horiz-adv-x="506" 
d="M193 368h63q66 0 111.5 33.5t56.5 91.5t-21.5 91.5t-97.5 33.5h-63zM177 286l-55 -286h-92l136 700h157q107 0 159 -58.5t34 -148.5q-17 -90 -92 -148.5t-182 -58.5h-65z" />
    <glyph glyph-name="afii10035" unicode="&#x421;" horiz-adv-x="711" 
d="M98 350q29 152 157 257t279 105q148 0 235 -101l-74 -62q-64 81 -177 81t-209.5 -81t-118.5 -199q-23 -118 41.5 -199t177.5 -81q114 0 209 81l50 -62q-127 -101 -275 -101q-151 0 -238 104.5t-57 257.5z" />
    <glyph glyph-name="afii10036" unicode="&#x422;" horiz-adv-x="472" 
d="M90 618l16 82h432l-16 -82h-170l-120 -618h-92l120 618h-170z" />
    <glyph glyph-name="afii10037" unicode="&#x423;" horiz-adv-x="585" 
d="M252 260l-154 412l86 40l136 -360l265 360l70 -40l-503 -684l-70 40z" />
    <glyph glyph-name="afii10038" unicode="&#x424;" horiz-adv-x="860" 
d="M505 83h-40l-16 -83h-92l16 83h-40q-136 0 -205.5 75t-46.5 192t121.5 192t233.5 75h40l17 83h92l-17 -83h40q136 0 206 -75t47 -192t-122 -192t-234 -75zM601 535h-49l-71 -370h49q87 0 154.5 50.5t84.5 134.5q16 84 -32.5 134.5t-135.5 50.5zM340 165h49l71 370h-49
q-87 0 -154.5 -50.5t-83.5 -134.5q-17 -84 31.5 -134.5t135.5 -50.5z" />
    <glyph glyph-name="afii10039" unicode="&#x425;" horiz-adv-x="615" 
d="M114 665l81 47l147 -273l254 273l63 -47l-277 -298l179 -331l-82 -48l-165 306l-284 -306l-64 48l309 331z" />
    <glyph glyph-name="afii10040" unicode="&#x426;" horiz-adv-x="657" 
d="M480 0h-450l136 700h92l-121 -618h292l121 618h92l-121 -618h66l-40 -208h-92z" />
    <glyph glyph-name="afii10041" unicode="&#x427;" horiz-adv-x="557" 
d="M263 700l-43 -219q-13 -63 13.5 -96t85.5 -33q64 0 109 24l63 324h92l-136 -700h-92l58 301q-59 -31 -126 -31q-90 0 -134 56t-24 158l42 216h92z" />
    <glyph glyph-name="afii10042" unicode="&#x428;" horiz-adv-x="932" 
d="M938 700l-136 -700h-772l136 700h92l-121 -618h248l121 618h92l-121 -618h248l121 618h92z" />
    <glyph glyph-name="afii10043" unicode="&#x429;" horiz-adv-x="953" 
d="M938 700l-121 -618h66l-40 -208h-92l25 126h-746l136 700h92l-121 -618h248l121 618h92l-121 -618h248l121 618h92z" />
    <glyph glyph-name="afii10044" unicode="&#x42a;" horiz-adv-x="581" 
d="M85 618l16 82h242l-56 -286h65q106 0 158.5 -58.5t35.5 -148.5q-18 -90 -93 -148.5t-181 -58.5h-157l120 618h-150zM334 332h-63l-49 -250h63q66 0 112 34t57 91t-21.5 91t-98.5 34z" />
    <glyph glyph-name="afii10045" unicode="&#x42b;" horiz-adv-x="743" 
d="M249 332h-63l-49 -250h63q66 0 112 34t57 91t-21.5 91t-98.5 34zM258 700l-56 -286h65q106 0 158.5 -58.5t35.5 -148.5q-18 -90 -93 -148.5t-181 -58.5h-157l136 700h92zM749 700h-92l-136 -700h92z" />
    <glyph glyph-name="afii10046" unicode="&#x42c;" horiz-adv-x="496" 
d="M249 332h-63l-49 -250h63q66 0 112 34t57 91t-21.5 91t-98.5 34zM258 700l-56 -286h65q106 0 158.5 -58.5t35.5 -148.5q-18 -90 -93 -148.5t-181 -58.5h-157l136 700h92z" />
    <glyph glyph-name="afii10047" unicode="&#x42d;" horiz-adv-x="711" 
d="M679 350q-30 -152 -158 -257t-279 -105q-147 0 -235 101l74 62q64 -81 177 -81q102 0 192.5 68t125.5 171h-400l16 82h400q5 103 -59 171t-166 68q-114 0 -209 -81l-50 62q128 101 275 101q151 0 238 -104.5t58 -257.5z" />
    <glyph glyph-name="afii10048" unicode="&#x42e;" horiz-adv-x="1059" 
d="M166 700h92l-60 -309h107q41 138 163 229.5t263 91.5q151 0 238 -104.5t58 -257.5q-30 -152 -158 -257t-279 -105q-141 0 -227 91.5t-74 229.5h-107l-60 -309h-92zM387 350q-23 -118 41.5 -199t177.5 -81t209.5 81t119.5 199q22 118 -42.5 199t-177.5 81t-209.5 -81
t-118.5 -199z" />
    <glyph glyph-name="afii10049" unicode="&#x42f;" horiz-adv-x="535" 
d="M313 0l120 618h-37q-65 0 -111 -32.5t-56 -83.5t23 -83.5t95 -32.5h9l1 -26l-315 -372l-65 51l247 283q-113 50 -87 179q17 90 88.5 144.5t178.5 54.5h137l-136 -700h-92z" />
    <glyph glyph-name="afii10065" unicode="&#x430;" horiz-adv-x="632" 
d="M518 400l13 68h86l-90 -468h-86l13 68q-80 -80 -196 -80q-102 0 -160 71t-38 175t106 175t188 71q116 0 164 -80zM146 234q-14 -71 26.5 -120.5t110.5 -49.5t129.5 49t73.5 121q14 71 -26.5 120.5t-110.5 49.5t-129.5 -49t-73.5 -121z" />
    <glyph glyph-name="afii10066" unicode="&#x431;" horiz-adv-x="608" 
d="M196 403q83 77 191 77q102 0 160 -71t38 -175q-20 -105 -107 -175.5t-197 -70.5q-116 0 -173.5 78.5t-30.5 220.5q23 120 63.5 203.5t103.5 137.5t143.5 82.5t191.5 39.5l-2 -78q-172 -15 -257.5 -78t-123.5 -191zM499 234q14 71 -26.5 120.5t-110.5 49.5t-129.5 -49
t-73.5 -121q-14 -71 26.5 -120.5t110.5 -49.5t129.5 49t73.5 121z" />
    <glyph glyph-name="afii10067" unicode="&#x432;" horiz-adv-x="480" 
d="M221 0h-196l90 468h172q74 0 109.5 -36t25.5 -84q-12 -62 -72 -92q39 -13 58 -44t11 -73q-13 -63 -66.5 -101t-131.5 -38zM125 76h119q33 0 58 18t31 50q7 32 -11 50t-51 18h-119zM187 392l-21 -106h91q29 0 50.5 13.5t26.5 39.5t-11 39.5t-45 13.5h-91z" />
    <glyph glyph-name="afii10068" unicode="&#x433;" horiz-adv-x="386" 
d="M25 0l90 468h286l-14 -76h-200l-76 -392h-86z" />
    <glyph glyph-name="afii10069" unicode="&#x434;" horiz-adv-x="524" 
d="M458 76l-35 -182h-86l21 106h-312l-21 -106h-85l34 182h46q98 134 141 351l7 41h310l-76 -392h56zM112 76h204l62 316h-142q-36 -184 -124 -316z" />
    <glyph glyph-name="afii10070" unicode="&#x435;" horiz-adv-x="580" 
d="M262 64q93 0 158 75l58 -46q-102 -105 -231 -105q-109 0 -168.5 68.5t-38.5 177.5q19 102 106 174t188 72t159 -69.5t39 -176.5q-2 -15 -7 -26h-402q-4 -66 36.5 -105t102.5 -39zM142 284h308q-4 55 -39.5 87.5t-91.5 32.5q-49 0 -100 -32t-77 -88z" />
    <glyph glyph-name="afii10072" unicode="&#x436;" horiz-adv-x="716" 
d="M265 0l90 468h86l-42 -217l258 229l51 -56l-199 -173l150 -208l-73 -55l-187 263l-48 -251h-86zM145 480l168 -229l-289 -263l-51 55l230 208l-131 173z" />
    <glyph glyph-name="afii10073" unicode="&#x437;" horiz-adv-x="420" 
d="M214 404q-50 0 -102 -44l-44 51q35 32 80 50.5t86 18.5q71 0 106 -36.5t25 -87.5q-13 -62 -74 -93q72 -38 55 -127q-12 -60 -70 -104t-138 -44q-108 0 -156 87l73 50q31 -61 97 -61q42 0 72 20t37 56q7 37 -14 60.5t-68 23.5h-69l15 76h69q34 0 56.5 14.5t27.5 39.5
q5 22 -11.5 36t-52.5 14z" />
    <glyph glyph-name="afii10074" unicode="&#x438;" horiz-adv-x="562" 
d="M514 480l15 -5l-92 -475h-86l57 298l-370 -310l-15 5l92 475h86l-57 -298z" />
    <glyph glyph-name="afii10075" unicode="&#x439;" horiz-adv-x="562" 
d="M514 480l15 -5l-92 -475h-86l57 298l-370 -310l-15 5l92 475h86l-57 -298zM225 705h76q-7 -31 6.5 -56t44.5 -25t53.5 24.5t29.5 56.5h76q-13 -63 -62.5 -108t-110.5 -45t-93.5 45t-19.5 108z" />
    <glyph glyph-name="afii10076" unicode="&#x43a;" horiz-adv-x="501" 
d="M159 251l283 229l49 -62l-218 -169l172 -199l-74 -62l-212 263l-48 -251h-86l90 468h86z" />
    <glyph glyph-name="afii10077" unicode="&#x43b;" horiz-adv-x="559" 
d="M96 179l82 289h346l-90 -468h-86l76 392h-181l-63 -218q-20 -71 -66 -115t-117 -71l-27 67q104 41 126 124z" />
    <glyph glyph-name="afii10078" unicode="&#x43c;" horiz-adv-x="680" 
d="M294 -12h-14l-78 305l-154 -305l-76 23l247 469h14l86 -327l214 327h14l65 -469l-86 -23l-36 305z" />
    <glyph glyph-name="afii10079" unicode="&#x43d;" horiz-adv-x="542" 
d="M153 218l-42 -218h-86l90 468h86l-33 -174h220l33 174h86l-90 -468h-86l42 218h-220z" />
    <glyph glyph-name="afii10080" unicode="&#x43e;" horiz-adv-x="596" 
d="M80 59q-60 72 -40 175t108.5 174.5t192.5 71.5t164.5 -71.5t40.5 -174.5t-108.5 -174.5t-192.5 -71.5t-165 71zM198 354q-58 -49 -72 -120t25 -120.5t109 -49.5t128 49.5t72 120.5t-25 120.5t-109 49.5t-128 -50z" />
    <glyph glyph-name="afii10081" unicode="&#x43f;" horiz-adv-x="542" 
d="M187 392l-76 -392h-86l90 468h392l-90 -468h-86l76 392h-220z" />
    <glyph glyph-name="afii10082" unicode="&#x440;" horiz-adv-x="632" 
d="M124 68l-68 -350h-86l145 750h86l-13 -68q80 80 196 80q102 0 160 -71t38 -175t-106 -175t-188 -71q-116 0 -164 80zM496 234q14 71 -26.5 120.5t-110.5 49.5t-129.5 -49t-73.5 -121q-14 -71 26.5 -120.5t110.5 -49.5t129.5 49t73.5 121z" />
    <glyph glyph-name="afii10083" unicode="&#x441;" horiz-adv-x="504" 
d="M361 480q100 0 161 -67l-68 -57q-38 48 -108 48t-128 -49.5t-72 -120.5t25 -120.5t109 -49.5q68 0 126 48l46 -57q-86 -67 -187 -67q-104 0 -164.5 71.5t-40.5 174.5t108.5 174.5t192.5 71.5z" />
    <glyph glyph-name="afii10084" unicode="&#x442;" horiz-adv-x="426" 
d="M51 392l14 76h376l-14 -76h-145l-76 -392h-86l76 392h-145z" />
    <glyph glyph-name="afii10085" unicode="&#x443;" horiz-adv-x="495" 
d="M60 -294l-75 34l167 276l-89 437l87 27l65 -358l217 358l76 -27z" />
    <glyph glyph-name="afii10086" unicode="&#x444;" horiz-adv-x="1028" 
d="M386 -282l68 350q-82 -80 -196 -80q-102 0 -160 71t-38 175t106 175t188 71q117 0 164 -80l68 350h86l-68 -350q80 80 196 80q102 0 160 -71t38 -175t-106 -175t-188 -71q-116 0 -164 80l-68 -350h-86zM912 234q14 71 -26.5 120.5t-110.5 49.5t-129.5 -49t-73.5 -121
q-14 -71 26.5 -120.5t110.5 -49.5t129.5 49t73.5 121zM146 234q-14 -71 26.5 -120.5t110.5 -49.5t129.5 49t73.5 121q14 71 -26.5 120.5t-110.5 49.5t-129.5 -49t-73.5 -121z" />
    <glyph glyph-name="afii10087" unicode="&#x445;" horiz-adv-x="463" 
d="M66 433l75 47l100 -170l167 170l57 -47l-185 -189l124 -208l-77 -48l-112 190l-185 -190l-59 48l205 208z" />
    <glyph glyph-name="afii10088" unicode="&#x446;" horiz-adv-x="553" 
d="M366 -106l21 106h-362l90 468h86l-76 -392h220l76 392h86l-76 -392h56l-35 -182h-86z" />
    <glyph glyph-name="afii10089" unicode="&#x447;" horiz-adv-x="507" 
d="M204 468l-26 -136q-12 -64 11 -96.5t75 -32.5q53 0 93 19l47 246h86l-90 -468h-86l29 152q-47 -25 -111 -25q-79 0 -119.5 50.5t-22.5 143.5l28 147h86z" />
    <glyph glyph-name="afii10090" unicode="&#x448;" horiz-adv-x="788" 
d="M477 468l-76 -392h190l76 392h86l-90 -468h-638l90 468h86l-76 -392h190l76 392h86z" />
    <glyph glyph-name="afii10091" unicode="&#x449;" horiz-adv-x="799" 
d="M477 468l-76 -392h190l76 392h86l-76 -392h56l-35 -182h-86l21 106h-608l90 468h86l-76 -392h190l76 392h86z" />
    <glyph glyph-name="afii10092" unicode="&#x44a;" horiz-adv-x="519" 
d="M242 334h83q82 0 123.5 -47t27.5 -120t-73.5 -120t-141.5 -47h-169l76 392h-122l14 76h208zM192 76h86q45 0 75 26.5t37 64.5q7 39 -12 65t-64 26h-86z" />
    <glyph glyph-name="afii10093" unicode="&#x44b;" horiz-adv-x="658" 
d="M175 334h83q82 0 123.5 -47t27.5 -120t-73.5 -120t-141.5 -47h-169l90 468h86zM125 76h86q45 0 75 26.5t37 64.5q7 39 -12 65t-64 26h-86zM533 0l90 468h-86l-90 -468h86z" />
    <glyph glyph-name="afii10094" unicode="&#x44c;" horiz-adv-x="452" 
d="M175 334h83q82 0 123.5 -47t27.5 -120t-73.5 -120t-141.5 -47h-169l90 468h86zM125 76h86q45 0 75 26.5t37 64.5q7 39 -12 65t-64 26h-86z" />
    <glyph glyph-name="afii10095" unicode="&#x44d;" horiz-adv-x="504" 
d="M129 272h242q-2 57 -39.5 94.5t-97.5 37.5q-68 0 -126 -48l-46 57q86 67 187 67q104 0 164.5 -71.5t40.5 -174.5t-108.5 -174.5t-192.5 -71.5q-100 0 -161 67l68 57q38 -48 108 -48q60 0 112.5 37t76.5 95h-242z" />
    <glyph glyph-name="afii10096" unicode="&#x44e;" horiz-adv-x="783" 
d="M149 196l-38 -196h-86l90 468h86l-38 -196h74q32 90 114.5 149t176.5 59q104 0 164.5 -71.5t40.5 -174.5t-108.5 -174.5t-192.5 -71.5q-94 0 -153.5 59t-55.5 149h-74zM385 354q-58 -49 -72 -120t25 -120.5t109 -49.5t128 49.5t72 120.5t-25 120.5t-109 49.5t-128 -50z
" />
    <glyph glyph-name="afii10097" unicode="&#x44f;" horiz-adv-x="473" 
d="M246 248h43v-17l-240 -243l-58 48l160 160q-38 19 -55 52t-10 73q13 68 66.5 107.5t129.5 39.5h156l-90 -468h-86l76 392h-74q-36 0 -61 -19.5t-31 -52.5q-7 -33 12.5 -52.5t61.5 -19.5z" />
    <glyph glyph-name="uni0450" unicode="&#x450;" horiz-adv-x="580" 
d="M262 64q93 0 158 75l58 -46q-102 -105 -231 -105q-109 0 -168.5 68.5t-38.5 177.5q19 102 106 174t188 72t159 -69.5t39 -176.5q-2 -15 -7 -26h-402q-4 -66 36.5 -105t102.5 -39zM142 284h308q-4 55 -39.5 87.5t-91.5 32.5q-49 0 -100 -32t-77 -88zM262 673l61 51
l115 -139l-61 -51z" />
    <glyph glyph-name="afii10071" unicode="&#x451;" horiz-adv-x="580" 
d="M262 64q93 0 158 75l58 -46q-102 -105 -231 -105q-109 0 -168.5 68.5t-38.5 177.5q19 102 106 174t188 72t159 -69.5t39 -176.5q-2 -15 -7 -26h-402q-4 -66 36.5 -105t102.5 -39zM142 284h308q-4 55 -39.5 87.5t-91.5 32.5q-49 0 -100 -32t-77 -88zM207 629q4 23 24 39.5
t43 16.5t36.5 -16.5t8.5 -39.5q-4 -23 -24 -39.5t-43 -16.5t-36.5 16.5t-8.5 39.5zM395 629q4 23 24 39.5t43 16.5t36.5 -16.5t8.5 -39.5q-4 -23 -24 -39.5t-43 -16.5t-36.5 16.5t-8.5 39.5z" />
    <glyph glyph-name="afii10099" unicode="&#x452;" horiz-adv-x="532" 
d="M471 306l-77 -397q-37 -191 -187 -191q-69 0 -106 63l71 50q14 -37 51 -37q63 0 85 116l73 375q11 55 -16 87t-72 32t-83 -32.5t-48 -81.5l-56 -290h-86l115 595h-60l13 68h60l17 87h86l-17 -87h149l-13 -68h-149l-33 -169q65 54 141 54q73 0 115 -48.5t27 -125.5z" />
    <glyph glyph-name="afii10100" unicode="&#x453;" horiz-adv-x="386" 
d="M25 0l90 468h286l-14 -76h-200l-76 -392h-86zM365 744l41 -51l-169 -139l-41 51z" />
    <glyph glyph-name="afii10101" unicode="&#x454;" horiz-adv-x="504" 
d="M157 272h242l-14 -76h-242q2 -58 39.5 -95t97.5 -37q68 0 126 48l46 -57q-86 -67 -187 -67q-104 0 -164.5 71.5t-40.5 174.5t108.5 174.5t192.5 71.5q100 0 161 -67l-68 -57q-38 48 -108 48q-60 0 -112.5 -37.5t-76.5 -94.5z" />
    <glyph glyph-name="afii10102" unicode="&#x455;" horiz-adv-x="391" 
d="M154 64q34 0 57.5 19t28.5 48q6 31 -10.5 52t-61.5 41q-108 48 -91 132q10 53 55.5 88.5t101.5 35.5q36 0 65.5 -18.5t41.5 -50.5l-67 -44q-11 37 -53 37q-21 0 -37.5 -12.5t-19.5 -29.5q-4 -23 11 -39.5t54 -34.5q117 -52 98 -151q-13 -65 -62.5 -107t-125.5 -42
q-48 0 -86 28t-51 76l74 47q19 -75 78 -75z" />
    <glyph glyph-name="afii10103" unicode="&#x456;" horiz-adv-x="246" 
d="M206 468l-90 -468h-86l90 468h86zM139 649q4 25 25 42.5t46 17.5t39.5 -17.5t9.5 -42.5t-26 -42.5t-46 -17.5t-39 17.5t-9 42.5z" />
    <glyph glyph-name="afii10104" unicode="&#x457;" horiz-adv-x="246" 
d="M206 468l-90 -468h-86l90 468h86zM45 629q4 23 24 39.5t43 16.5t36.5 -16.5t8.5 -39.5q-4 -23 -24 -39.5t-43 -16.5t-36.5 16.5t-8.5 39.5zM233 629q4 23 24 39.5t43 16.5t36.5 -16.5t8.5 -39.5q-4 -23 -24 -39.5t-43 -16.5t-36.5 16.5t-8.5 39.5z" />
    <glyph glyph-name="afii10105" unicode="&#x458;" horiz-adv-x="244" 
d="M-211 -219l73 51q14 -38 57 -38q74 0 96 116l108 558h86l-108 -559q-18 -91 -68 -141t-128 -50q-81 0 -116 63zM141 649q4 25 25 42.5t46 17.5t39.5 -17.5t9.5 -42.5t-26 -42.5t-46 -17.5t-39 17.5t-9 42.5z" />
    <glyph glyph-name="afii10106" unicode="&#x459;" horiz-adv-x="740" 
d="M490 314h58q77 0 119 -43t28 -114t-72.5 -114t-135.5 -43h-144l76 392h-176l-63 -218q-20 -71 -66 -115t-117 -71l-27 67q104 41 126 124l82 289h341zM443 76h61q40 0 69 22.5t36 58.5t-13 58.5t-60 22.5h-61z" />
    <glyph glyph-name="afii10107" unicode="&#x45a;" horiz-adv-x="722" 
d="M153 218l-42 -218h-86l90 468h86l-33 -174h214l33 174h87l-29 -154h57q77 0 119 -43t28 -114t-72.5 -114t-135.5 -43h-144l42 218h-214zM518 238h-60l-32 -162h60q40 0 69 22.5t36 58.5t-13 58.5t-60 22.5z" />
    <glyph glyph-name="afii10108" unicode="&#x45b;" horiz-adv-x="532" 
d="M135 595h-60l13 68h60l17 87h86l-17 -87h149l-13 -68h-149l-33 -169q65 54 141 54q73 0 115 -48.5t27 -125.5l-59 -306h-86l55 285q11 55 -16 87t-72 32t-83 -32.5t-48 -81.5l-56 -290h-86z" />
    <glyph glyph-name="afii10109" unicode="&#x45c;" horiz-adv-x="501" 
d="M159 251l283 229l49 -62l-218 -169l172 -199l-74 -62l-212 263l-48 -251h-86l90 468h86zM408 744l41 -51l-169 -139l-41 51z" />
    <glyph glyph-name="uni045D" unicode="&#x45d;" horiz-adv-x="562" 
d="M514 480l15 -5l-92 -475h-86l57 298l-370 -310l-15 5l92 475h86l-57 -298zM267 693l61 51l115 -139l-61 -51z" />
    <glyph glyph-name="afii10110" unicode="&#x45e;" horiz-adv-x="495" 
d="M192 715h76q-6 -31 7.5 -56t44.5 -25t53.5 25t28.5 56h76q-12 -63 -61.5 -108t-110.5 -45t-93.5 45t-20.5 108zM60 -294l-75 34l167 276l-89 437l87 27l65 -358l217 358l76 -27z" />
    <glyph glyph-name="afii10193" unicode="&#x45f;" horiz-adv-x="542" 
d="M201 468l-76 -392h220l76 392h86l-90 -468h-153l-23 -116h-86l23 116h-153l90 468h86z" />
    <glyph glyph-name="afii10050" unicode="&#x490;" horiz-adv-x="428" 
d="M30 0l136 700h231l26 136h92l-42 -218h-231l-120 -618h-92z" />
    <glyph glyph-name="afii10098" unicode="&#x491;" horiz-adv-x="386" 
d="M25 0l90 468h200l23 116h86l-37 -192h-200l-76 -392h-86z" />
    <glyph glyph-name="Wgrave" unicode="&#x1e80;" horiz-adv-x="988" 
d="M572 712h20l92 -515l284 515l88 -25l-403 -699h-20l-95 496l-289 -496h-20l-131 699l98 25l84 -515zM470 897l61 51l115 -139l-61 -51z" />
    <glyph glyph-name="wgrave" unicode="&#x1e81;" horiz-adv-x="762" 
d="M414 480h20l81 -315l197 315l78 -26l-301 -466h-20l-78 325l-204 -325h-20l-119 466l88 26l75 -315zM304 673l61 51l115 -139l-61 -51z" />
    <glyph glyph-name="Wacute" unicode="&#x1e82;" horiz-adv-x="988" 
d="M572 712h20l92 -515l284 515l88 -25l-403 -699h-20l-95 496l-289 -496h-20l-131 699l98 25l84 -515zM722 948l41 -51l-169 -139l-41 51z" />
    <glyph glyph-name="wacute" unicode="&#x1e83;" horiz-adv-x="762" 
d="M414 480h20l81 -315l197 315l78 -26l-301 -466h-20l-78 325l-204 -325h-20l-119 466l88 26l75 -315zM576 724l41 -51l-169 -139l-41 51z" />
    <glyph glyph-name="Wdieresis" unicode="&#x1e84;" horiz-adv-x="988" 
d="M572 712h20l92 -515l284 515l88 -25l-403 -699h-20l-95 496l-289 -496h-20l-131 699l98 25l84 -515zM459 853q4 23 24 39.5t43 16.5t36.5 -16.5t8.5 -39.5q-4 -23 -24 -39.5t-43 -16.5t-36.5 16.5t-8.5 39.5zM647 853q4 23 24 39.5t43 16.5t36.5 -16.5t8.5 -39.5
q-4 -23 -24 -39.5t-43 -16.5t-36.5 16.5t-8.5 39.5z" />
    <glyph glyph-name="wdieresis" unicode="&#x1e85;" horiz-adv-x="762" 
d="M414 480h20l81 -315l197 315l78 -26l-301 -466h-20l-78 325l-204 -325h-20l-119 466l88 26l75 -315zM303 629q4 23 24 39.5t43 16.5t36.5 -16.5t8.5 -39.5q-4 -23 -24 -39.5t-43 -16.5t-36.5 16.5t-8.5 39.5zM491 629q4 23 24 39.5t43 16.5t36.5 -16.5t8.5 -39.5
q-4 -23 -24 -39.5t-43 -16.5t-36.5 16.5t-8.5 39.5z" />
    <glyph glyph-name="uni1E9E" unicode="&#x1e9e;" horiz-adv-x="604" 
d="M20 0l99 514q18 91 86.5 144.5t166.5 53.5q97 0 145.5 -47t32.5 -131q-11 -59 -49.5 -92t-103.5 -56q82 -12 124 -58.5t26 -127.5q-20 -102 -95 -157t-184 -55q-62 0 -102 35l44 71q30 -26 67 -26q69 0 117.5 34t61.5 100q14 72 -31 109t-151 38l21 69q65 6 109 34t54 78
q9 47 -20.5 74.5t-83.5 27.5q-51 0 -90.5 -28t-50.5 -80l-101 -524h-92z" />
    <glyph glyph-name="Ygrave" unicode="&#x1ef2;" horiz-adv-x="604" 
d="M353 286l-55 -286h-92l55 286l-167 382l83 44l147 -339l279 339l65 -44zM307 897l61 51l115 -139l-61 -51z" />
    <glyph glyph-name="ygrave" unicode="&#x1ef3;" horiz-adv-x="495" 
d="M60 -294l-75 34l167 276l-89 437l87 27l65 -358l217 358l76 -27zM215 673l61 51l115 -139l-61 -51z" />
    <glyph glyph-name="thinspace" unicode="&#x2009;" horiz-adv-x="200" 
 />
    <glyph glyph-name="figuredash" unicode="&#x2012;" horiz-adv-x="618" 
d="M554 293h-478l16 78h478z" />
    <glyph glyph-name="endash" unicode="&#x2013;" horiz-adv-x="500" 
d="M506 293h-500l16 78h500z" />
    <glyph glyph-name="emdash" unicode="&#x2014;" horiz-adv-x="1000" 
d="M1006 293h-1000l16 78h1000z" />
    <glyph glyph-name="uni2015" unicode="&#x2015;" horiz-adv-x="1000" 
d="M122 371h800l-16 -78h-800z" />
    <glyph glyph-name="quoteleft" unicode="&#x2018;" horiz-adv-x="300" 
d="M349 771l-121 -264l-91 33l155 251z" />
    <glyph glyph-name="quoteright" unicode="&#x2019;" horiz-adv-x="300" 
d="M102 526l121 264l91 -33l-155 -251z" />
    <glyph glyph-name="quotesinglbase" unicode="&#x201a;" horiz-adv-x="300" 
d="M-27 -138l121 264l91 -33l-155 -251z" />
    <glyph glyph-name="quotedblleft" unicode="&#x201c;" horiz-adv-x="483" 
d="M349 771l-121 -264l-91 33l155 251zM532 771l-121 -264l-91 33l155 251z" />
    <glyph glyph-name="quotedblright" unicode="&#x201d;" horiz-adv-x="483" 
d="M102 527l121 264l91 -33l-155 -251zM285 527l121 264l91 -33l-155 -251z" />
    <glyph glyph-name="quotedblbase" unicode="&#x201e;" horiz-adv-x="483" 
d="M-27 -138l121 264l91 -33l-155 -251zM156 -138l121 264l91 -33l-155 -251z" />
    <glyph glyph-name="dagger" unicode="&#x2020;" horiz-adv-x="576" 
d="M558 580l-14 -72h-166l-124 -639h-84l124 639h-166l14 72h166l33 168h84l-33 -168h166z" />
    <glyph glyph-name="daggerdbl" unicode="&#x2021;" horiz-adv-x="576" 
d="M467 109l-14 -72h-166l-33 -168h-84l33 168h-166l14 72h166l77 399h-166l14 72h166l33 168h84l-33 -168h166l-14 -72h-166l-77 -399h166z" />
    <glyph glyph-name="bullet" unicode="&#x2022;" horiz-adv-x="448" 
d="M146 244q-36 37 -36 88t36.5 87.5t87.5 36.5t87.5 -36.5t36.5 -87.5t-36.5 -87.5t-87.5 -36.5t-88 36z" />
    <glyph glyph-name="onedotenleader" unicode="&#x2024;" horiz-adv-x="300" 
d="M53 49q5 26 26.5 43.5t46.5 17.5q26 0 40 -18t9 -43q-5 -26 -26.5 -43.5t-46.5 -17.5q-26 0 -40 18t-9 43z" />
    <glyph glyph-name="twodotenleader" unicode="&#x2025;" horiz-adv-x="590" 
d="M48 49q5 26 26.5 43.5t46.5 17.5q26 0 40 -18t9 -43q-5 -26 -26.5 -43.5t-46.5 -17.5q-26 0 -40 18t-9 43zM338 49q5 26 26.5 43.5t46.5 17.5q26 0 40 -18t9 -43q-5 -26 -26.5 -43.5t-46.5 -17.5q-26 0 -40 18t-9 43z" />
    <glyph glyph-name="ellipsis" unicode="&#x2026;" horiz-adv-x="880" 
d="M53 49q5 26 26.5 43.5t46.5 17.5q26 0 40 -18t9 -43q-5 -26 -26.5 -43.5t-46.5 -17.5q-26 0 -40 18t-9 43zM343 49q5 26 26.5 43.5t46.5 17.5q26 0 40 -18t9 -43q-5 -26 -26.5 -43.5t-46.5 -17.5q-26 0 -40 18t-9 43zM633 49q5 26 26.5 43.5t46.5 17.5q26 0 40 -18t9 -43
q-5 -26 -26.5 -43.5t-46.5 -17.5q-26 0 -40 18t-9 43z" />
    <glyph glyph-name="perthousand" unicode="&#x2030;" horiz-adv-x="1263" 
d="M140 551q13 67 70.5 114t125.5 47q67 0 107 -46.5t27 -114.5t-71 -114.5t-126 -46.5q-67 0 -106.5 46.5t-26.5 114.5zM226 551q-7 -33 11.5 -56t51.5 -23t60.5 23t34.5 56q6 33 -12.5 56t-51.5 23t-60.5 -23t-33.5 -56zM814 149q-13 -67 -70.5 -114t-125.5 -47
q-67 0 -107 46.5t-27 114.5t71 114.5t126 46.5q67 0 106.5 -46.5t26.5 -114.5zM728 149q7 33 -11.5 56t-51.5 23t-60.5 -23t-34.5 -56q-6 -33 12.5 -56t51.5 -23t60.5 23t33.5 56zM813 665l-615 -677l-58 46l616 678zM1184 149q-13 -67 -70.5 -114t-125.5 -47
q-67 0 -107 46.5t-27 114.5t71 114.5t126 46.5q67 0 106.5 -46.5t26.5 -114.5zM1098 149q7 33 -11.5 56t-51.5 23t-60.5 -23t-34.5 -56q-6 -33 12.5 -56t51.5 -23t60.5 23t33.5 56z" />
    <glyph glyph-name="uni2031" unicode="&#x2031;" horiz-adv-x="1633" 
d="M140 551q13 67 70.5 114t125.5 47q67 0 107 -46.5t27 -114.5t-71 -114.5t-126 -46.5q-67 0 -106.5 46.5t-26.5 114.5zM226 551q-7 -33 11.5 -56t51.5 -23t60.5 23t34.5 56q6 33 -12.5 56t-51.5 23t-60.5 -23t-33.5 -56zM814 149q-13 -67 -70.5 -114t-125.5 -47
q-67 0 -107 46.5t-27 114.5t71 114.5t126 46.5q67 0 106.5 -46.5t26.5 -114.5zM728 149q7 33 -11.5 56t-51.5 23t-60.5 -23t-34.5 -56q-6 -33 12.5 -56t51.5 -23t60.5 23t33.5 56zM813 665l-615 -677l-58 46l616 678zM1184 149q-13 -67 -70.5 -114t-125.5 -47
q-67 0 -107 46.5t-27 114.5t71 114.5t126 46.5q67 0 106.5 -46.5t26.5 -114.5zM1098 149q7 33 -11.5 56t-51.5 23t-60.5 -23t-34.5 -56q-6 -33 12.5 -56t51.5 -23t60.5 23t33.5 56zM1554 149q-13 -67 -70.5 -114t-125.5 -47q-67 0 -107 46.5t-27 114.5t71 114.5t126 46.5
q67 0 106.5 -46.5t26.5 -114.5zM1468 149q7 33 -11.5 56t-51.5 23t-60.5 -23t-34.5 -56q-6 -33 12.5 -56t51.5 -23t60.5 23t33.5 56z" />
    <glyph glyph-name="guilsinglleft" unicode="&#x2039;" horiz-adv-x="365" 
d="M59 304l3 16l256 169l31 -56l-189 -121l142 -121l-53 -56z" />
    <glyph glyph-name="guilsinglright" unicode="&#x203a;" horiz-adv-x="365" 
d="M327 320l-3 -16l-256 -169l-31 56l188 121l-141 121l53 56z" />
    <glyph glyph-name="uni203E" unicode="&#x203e;" horiz-adv-x="500" 
d="M69 615l13 68h500l-13 -68h-500z" />
    <glyph glyph-name="fraction" unicode="&#x2044;" horiz-adv-x="414" 
d="M452 715l54 -33l-509 -697l-53 33z" />
    <glyph glyph-name="zerosuperior" unicode="&#x2070;" 
d="M176 471q-16 -71 -5 -122.5t51 -51.5t69.5 49t44.5 125q16 71 5 122.5t-51 51.5t-69.5 -49t-44.5 -125zM107 298q-25 69 -5 173t72.5 172.5t128.5 68.5t101.5 -68.5t5.5 -172.5t-72.5 -172.5t-128.5 -68.5t-102 68z" />
    <glyph glyph-name="uni2071" unicode="&#x2071;" 
d="M218 569l-63 -327h74l63 327h-74zM227 665q4 20 20.5 33.5t35.5 13.5q20 0 31 -14t7 -33q-4 -20 -20.5 -33.5t-35.5 -13.5q-20 0 -31 14t-7 33z" />
    <glyph glyph-name="foursuperior" unicode="&#x2074;" 
d="M43 327l-7 20l337 365l21 -5l-61 -313h50l-13 -67h-50l-16 -85h-73l16 85h-204zM159 394h101l28 145z" />
    <glyph glyph-name="fivesuperior" unicode="&#x2075;" 
d="M135 460l-16 11l80 229h212l-13 -66h-152l-33 -91q7 1 28 1q61 0 99 -45t26 -110q-13 -66 -64 -112.5t-124 -46.5q-44 0 -78 21.5t-51 63.5l62 46q23 -64 76 -64q42 0 69.5 26.5t34.5 61.5q8 40 -14.5 66t-66.5 26q-36 0 -75 -17z" />
    <glyph glyph-name="sixsuperior" unicode="&#x2076;" 
d="M390 383q-13 -66 -68 -109.5t-118 -43.5t-101 43.5t-25 109.5q8 43 57 103l179 226l50 -35l-110 -141h16q57 0 95 -43t25 -110zM251 469q-35 0 -64 -25t-36 -61t12.5 -61t53.5 -25q35 0 64 25t36 61t-12.5 61t-53.5 25z" />
    <glyph glyph-name="sevensuperior" unicode="&#x2077;" 
d="M435 682l-279 -452l-60 27l234 377h-200l13 66h284z" />
    <glyph glyph-name="eightsuperior" unicode="&#x2078;" 
d="M314 383q7 35 -12.5 60t-54.5 25t-63.5 -25t-35.5 -60q-6 -33 13 -59.5t53 -26.5t64 26.5t36 59.5zM260 535q23 0 41 16.5t22 38.5q5 22 -7 39t-34 17t-40 -17t-23 -39q-4 -22 7.5 -38.5t33.5 -16.5zM75 381q7 40 32.5 72t61.5 50q-35 35 -24 85q10 53 52.5 88.5
t97.5 35.5q54 0 83 -35.5t19 -88.5q-11 -51 -58 -85q63 -39 48 -122q-12 -62 -66.5 -106.5t-119.5 -44.5t-101.5 44.5t-24.5 106.5z" />
    <glyph glyph-name="ninesuperior" unicode="&#x2079;" 
d="M95 559q13 66 68 109.5t118 43.5t101 -43.5t25 -109.5q-8 -43 -57 -103l-179 -226l-50 35l110 141h-16q-57 0 -95 43t-25 110zM234 473q35 0 64 25t36 61t-12.5 61t-53.5 25q-35 0 -64 -25t-36 -61t12.5 -61t53.5 -25z" />
    <glyph glyph-name="uni207A" unicode="&#x207a;" 
d="M169 312v127h-128v64h128v127h72v-127h128v-64h-128v-127h-72z" />
    <glyph glyph-name="uni207B" unicode="&#x207b;" 
d="M369 439h-328v64h328v-64z" />
    <glyph glyph-name="uni207C" unicode="&#x207c;" 
d="M369 379h-328v64h328v-64zM369 499h-328v64h328v-64z" />
    <glyph glyph-name="uni207D" unicode="&#x207d;" 
d="M198 469q28 152 143 288l49 -30q-93 -124 -118 -258q-26 -137 18 -257l-61 -30q-61 137 -31 287z" />
    <glyph glyph-name="uni207E" unicode="&#x207e;" 
d="M304 469q-30 -151 -143 -287l-49 30q92 124 118 257q26 136 -18 258l61 30q59 -136 31 -288z" />
    <glyph glyph-name="uni207F" unicode="&#x207f;" 
d="M260 238l37 193q7 37 -8 55t-46 18q-28 0 -49.5 -18.5t-28.5 -51.5l-38 -196h-73l63 324h73l-5 -22q37 30 86 30q51 0 82 -33t21 -86l-41 -213h-73z" />
    <glyph glyph-name="zeroinferior" unicode="&#x2080;" 
d="M85 108q-16 -70 -4.5 -122t51.5 -52t69 49t44 125q17 70 5.5 122t-51.5 52t-69 -48.5t-45 -125.5zM11 108q20 104 72.5 172.5t128.5 68.5t101.5 -68.5t5.5 -172.5q-19 -103 -71.5 -172t-128.5 -69t-101.5 68.5t-6.5 172.5z" />
    <glyph glyph-name="oneinferior" unicode="&#x2081;" 
d="M248 349l19 -7l-90 -463h-73l70 361l-79 -38l-22 57z" />
    <glyph glyph-name="twoinferior" unicode="&#x2082;" 
d="M-14 -121l-7 18l200 215q59 65 66 103q6 30 -8 48.5t-46 18.5q-46 0 -89 -55l-49 36q67 86 147 86q65 0 97 -37.5t21 -97.5q-12 -62 -87 -140l-123 -128h164l-13 -67h-273z" />
    <glyph glyph-name="threeinferior" unicode="&#x2083;" 
d="M114 110l-10 20l117 140h-157l13 67h253l9 -19l-132 -159q102 -37 81 -143q-12 -60 -63 -104.5t-125 -44.5q-42 0 -76.5 21.5t-51.5 62.5l64 46q23 -63 78 -63q37 0 64.5 22.5t34.5 58.5q9 42 -15 68.5t-84 26.5z" />
    <glyph glyph-name="fourinferior" unicode="&#x2084;" 
d="M-27 -36l-8 20l337 365l21 -5l-60 -313h50l-13 -67h-50l-17 -85h-73l17 85h-204zM89 31h101l28 145z" />
    <glyph glyph-name="fiveinferior" unicode="&#x2085;" 
d="M64 97l-16 11l80 229h212l-13 -66h-152l-33 -91q8 1 29 1q61 0 99 -45t26 -110q-14 -66 -64.5 -112.5t-123.5 -46.5q-44 0 -78.5 21.5t-51.5 63.5l62 46q23 -64 77 -64q42 0 69.5 26.5t34.5 61.5q8 40 -14.5 66t-66.5 26q-37 0 -76 -17z" />
    <glyph glyph-name="sixinferior" unicode="&#x2086;" 
d="M306 20q-12 -66 -67 -109.5t-118 -43.5t-101 43.5t-26 109.5q8 41 57 103l179 226l51 -35l-111 -141h16q57 0 95 -43t25 -110zM167 106q-34 0 -63 -25t-37 -61q-7 -36 12.5 -61t54.5 -25t63.5 25t35.5 61t-12 61t-54 25z" />
    <glyph glyph-name="seveninferior" unicode="&#x2087;" 
d="M365 319l-279 -452l-60 27l233 377h-200l13 66h284z" />
    <glyph glyph-name="eightinferior" unicode="&#x2088;" 
d="M243 20q8 35 -11.5 60t-54.5 25t-63.5 -24.5t-36.5 -60.5q-6 -33 13.5 -59.5t53.5 -26.5t63.5 26.5t35.5 59.5zM190 172q22 0 40 16.5t23 38.5q4 22 -7.5 39t-33.5 17t-40.5 -17t-22.5 -39q-5 -22 6.5 -38.5t34.5 -16.5zM4 18q15 82 95 122q-34 34 -25 85
q11 53 53.5 88.5t96.5 35.5q55 0 84 -35.5t18 -88.5q-9 -51 -57 -85q62 -39 47 -122q-12 -62 -66 -106.5t-119 -44.5t-102 44.5t-25 106.5z" />
    <glyph glyph-name="nineinferior" unicode="&#x2089;" 
d="M25 196q12 66 67 109.5t118 43.5t101 -43.5t26 -109.5q-8 -41 -57 -103l-179 -226l-51 35l111 141h-16q-57 0 -95 43t-25 110zM164 110q34 0 63 25t37 61q7 36 -12.5 61t-54.5 25t-63.5 -25t-35.5 -61t12 -61t54 -25z" />
    <glyph glyph-name="uni208A" unicode="&#x208a;" 
d="M169 -51v127h-128v64h128v127h72v-127h128v-64h-128v-127h-72z" />
    <glyph glyph-name="uni208B" unicode="&#x208b;" 
d="M369 76h-328v64h328v-64z" />
    <glyph glyph-name="uni208C" unicode="&#x208c;" 
d="M369 16h-328v64h328v-64zM369 136h-328v64h328v-64z" />
    <glyph glyph-name="uni208D" unicode="&#x208d;" 
d="M125 106q30 152 143 288l49 -30q-91 -121 -118 -258q-26 -135 18 -257l-61 -30q-59 136 -31 287z" />
    <glyph glyph-name="uni208E" unicode="&#x208e;" 
d="M233 106q-28 -151 -143 -287l-49 30q92 122 118 257q27 133 -18 258l61 30q61 -136 31 -288z" />
    <glyph glyph-name="uni2090" unicode="&#x2090;" 
d="M356 189l-60 -308h-69l7 33q-52 -41 -114 -41q-67 0 -105 47.5t-25 114.5q14 67 70 114.5t123 47.5q60 0 98 -41l6 33h69zM257 35q8 40 -15.5 69t-64.5 29t-75.5 -29t-42.5 -69q-7 -40 16 -69t64 -29t76 29t42 69z" />
    <glyph glyph-name="uni2091" unicode="&#x2091;" 
d="M180 134q-60 0 -95 -60h169q-4 28 -24 44t-50 16zM135 -127q-71 0 -110.5 45.5t-26.5 116.5q13 68 70.5 115t123.5 47t105 -46t26 -116q-2 -12 -6 -24h-247q1 -33 22.5 -54.5t54.5 -21.5q54 0 98 52l47 -39q-72 -75 -157 -75z" />
    <glyph glyph-name="uni2092" unicode="&#x2092;" 
d="M25 -79q-40 48 -27 114t72 114t126 48t107 -48t27 -114t-71.5 -114t-125.5 -48t-108 48zM66 35q-8 -42 15 -71t64 -29t75 29.5t42 70.5t-14.5 70t-63.5 29t-75.5 -29t-42.5 -70z" />
    <glyph glyph-name="uni2093" unicode="&#x2093;" 
d="M40 169l61 39l62 -106l105 106l47 -39l-118 -122l80 -134l-64 -40l-70 120l-116 -120l-48 40l132 135z" />
    <glyph glyph-name="uni2094" unicode="&#x2094;" 
d="M148 -64q60 0 95 60h-169q3 -28 23 -44t51 -16zM193 197q71 0 110.5 -45.5t25.5 -116.5q-13 -68 -70 -115t-123 -47t-105 46t-27 116q2 13 7 24h247q-1 33 -22.5 54.5t-54.5 21.5q-54 0 -98 -52l-48 39q73 75 158 75z" />
    <glyph glyph-name="uni20A0" unicode="&#x20a0;" horiz-adv-x="773" 
d="M704 76l-14 -76h-303l48 248q-61 -28 -122 -28q-103 0 -163.5 72.5t-41.5 173.5q20 101 109 173.5t192 72.5q98 0 160 -68l-67 -56q-38 48 -108 48t-128 -49.5t-72 -120.5t25 -120.5t109 -49.5q69 0 125 47l29 147h293l-15 -76h-207l-22 -111h182l-14 -74h-182l-30 -153
h217z" />
    <glyph glyph-name="colonmonetary" unicode="&#x20a1;" horiz-adv-x="711" 
d="M515 788l54 -17l-28 -60q38 -1 78 -13l44 90l54 -17l-45 -94q51 -27 84 -66l-74 -62q-21 26 -50 45l-254 -524h18q114 0 209 81l50 -62q-127 -101 -275 -101q-16 0 -40 2l-29 -59l-55 17l26 54q-39 11 -70 30l-49 -101l-55 17l58 119q-54 50 -76 123.5t-5 159.5
q27 141 139 242t252 117zM177 350q-22 -110 34 -190l222 461q-94 -24 -166 -98.5t-90 -172.5zM505 630h-4l-248 -513q30 -24 67 -36l261 538q-38 11 -76 11z" />
    <glyph glyph-name="uni20A2" unicode="&#x20a2;" horiz-adv-x="711" 
d="M644 455l-39 -79q-30 18 -66 18q-48 0 -86 -39t-49 -98l-35 -184q18 -3 40 -3q114 0 209 81l50 -62q-127 -101 -275 -101q-151 0 -238 104.5t-57 257.5q29 152 157 257t279 105q148 0 235 -101l-74 -62q-64 81 -177 81t-209.5 -81t-118.5 -199q-16 -81 11 -147.5
t87 -101.5l70 357h86l-10 -49q64 61 134 61q45 0 76 -15z" />
    <glyph glyph-name="franc" unicode="&#x20a3;" horiz-adv-x="445" 
d="M122 0h-92l39 202h-66l11 58h66l86 440h335l-16 -82h-243l-38 -195h218l-16 -80h-218l-16 -83h161l-11 -58h-161z" />
    <glyph glyph-name="lira" unicode="&#x20a4;" horiz-adv-x="585" 
d="M149 246h-84l12 58h84l16 85h-84l11 58h84l15 77q16 83 74.5 135.5t145.5 52.5q61 0 98 -21t64 -70l-80 -52q-37 61 -98 61q-44 0 -73.5 -31t-38.5 -79l-15 -73h156l-11 -58h-156l-16 -85h156l-12 -58h-156q-19 -94 -67 -164h326l-15 -82h-460l-4 17q103 98 126 219z" />
    <glyph glyph-name="uni20A6" unicode="&#x20a6;" horiz-adv-x="737" 
d="M105 389h-61l11 58h61l51 258l25 7l182 -265h227l50 253h92l-50 -253h61l-11 -58h-61l-15 -77h61l-11 -58h-61l-50 -259l-26 -7l-183 266h-226l-49 -254h-92l49 254h-61l11 58h61zM415 389l53 -77h107l15 77h-175zM197 389l-15 -77h174l-53 77h-106zM508 254l44 -63
l12 63h-56zM263 447l-43 62l-12 -62h55z" />
    <glyph glyph-name="peseta" unicode="&#x20a7;" horiz-adv-x="1025" 
d="M788 64q34 0 57.5 19t28.5 48q6 31 -10.5 52t-61.5 41q-108 48 -91 132q4 22 12 36h-86l-76 -392h-86l76 392h-78v2q-38 -50 -98 -79t-133 -29h-65l-55 -286h-92l136 700h157q107 0 159 -58.5t34 -148.5q-1 -9 -7 -25h56l26 132h86l-26 -132h119l-4 -24q46 36 102 36
q36 0 65.5 -18.5t41.5 -50.5l-67 -44q-11 37 -53 37q-21 0 -37.5 -12.5t-19.5 -29.5q-4 -23 11 -39.5t54 -34.5q117 -52 98 -151q-13 -65 -62.5 -107t-125.5 -42q-48 0 -86 28t-51 76l74 47q19 -75 78 -75zM193 368h63q66 0 111.5 33.5t56.5 91.5t-21.5 91.5t-97.5 33.5h-63
z" />
    <glyph glyph-name="uni20A8" unicode="&#x20a8;" horiz-adv-x="863" 
d="M626 64q34 0 57.5 19t28.5 48q6 31 -10.5 52t-61.5 41q-108 48 -91 132q10 53 55.5 88.5t101.5 35.5q36 0 65.5 -18.5t41.5 -50.5l-67 -44q-11 37 -53 37q-21 0 -37.5 -12.5t-19.5 -29.5q-4 -23 11 -39.5t54 -34.5q117 -52 98 -151q-13 -65 -62.5 -107t-125.5 -42
q-48 0 -86 28t-51 76l74 47q19 -75 78 -75zM242 618l-120 -618h-92l136 700h137q107 0 156.5 -54t32.5 -145q-26 -130 -157 -179l137 -283l-85 -51l-171 372l13 26h9q62 0 107 32.5t55 83.5q10 52 -23 84t-98 32h-37z" />
    <glyph glyph-name="uni20A9" unicode="&#x20a9;" horiz-adv-x="988" 
d="M177 264h-171l11 58h149l-10 52h-129l11 58h107l-47 255l95 25l44 -280h178l157 280h20l47 -280h177l155 280l85 -25l-148 -255h108l-11 -58h-130l-30 -52h150l-11 -58h-172l-159 -276h-20l-50 276h-177l-157 -276h-20zM247 374l8 -52h99l29 52h-136zM649 374l9 -52h98
l29 52h-136zM468 374l-29 -52h134l-10 52h-95zM668 264l13 -79l44 79h-57zM265 264l12 -79l45 79h-57zM541 501l-40 -69h52z" />
    <glyph glyph-name="afii57636" unicode="&#x20aa;" horiz-adv-x="860" 
d="M30 0l136 700h253q119 0 171 -73t25 -214l-30 -151h-92l27 135q24 124 -6.5 172.5t-110.5 48.5h-161l-120 -618h-92zM866 700l-136 -700h-253q-119 0 -171.5 73t-25.5 214l30 151h92l-27 -135q-24 -124 6.5 -172.5t110.5 -48.5h161l121 618h92z" />
    <glyph glyph-name="dong" unicode="&#x20ab;" horiz-adv-x="627" 
d="M714 656l-11 -58h-60l-116 -598h-86l13 72q-86 -84 -196 -84q-102 0 -160 72t-38 174q19 102 105.5 174t188.5 72q109 0 163 -84l40 202h-242l11 58h242l18 94h86l-18 -94h60zM146 234q-14 -70 26.5 -120t110.5 -50q67 0 126 47.5t76 115.5l1 7q14 70 -26.5 120
t-110.5 50t-130 -50t-73 -120zM495 -84l-13 -68h-413l13 68h413z" />
    <glyph glyph-name="Euro" unicode="&#x20ac;" horiz-adv-x="641" 
d="M92 389h-53l11 58h62q48 118 141 191.5t211 73.5q140 0 205 -101l-70 -59q-55 78 -151 78q-79 0 -142.5 -50.5t-99.5 -132.5h281l-11 -58h-291l-9 -39q-4 -19 -6 -38h291l-11 -58h-282q4 -82 48 -133t123 -51q97 0 181 78l48 -59q-104 -101 -245 -101q-119 0 -183.5 73.5
t-65.5 192.5h-61l11 58h53q1 12 7 38q2 13 8 39z" />
    <glyph glyph-name="uni2116" unicode="&#x2116;" horiz-adv-x="1032" 
d="M517 -5l-23 -7l-286 511l-96 -499h-82l137 705l22 7l286 -511l97 499h82zM994 310l-14 -70h-319l14 70h319zM1046 540q-13 -71 -71 -119.5t-129 -48.5t-110.5 48.5t-25.5 119.5t72 119.5t129 48.5t110 -48.5t25 -119.5zM784 540q-8 -43 12.5 -71t62.5 -28t73.5 28
t39.5 71q9 43 -11.5 71t-62.5 28t-73.5 -28t-40.5 -71z" />
    <glyph glyph-name="trademark" unicode="&#x2122;" horiz-adv-x="658" 
d="M44 642v54h220v-54h-80v-279h-60v279h-80zM456 363h-28l-70 194l-50 -201l-58 11l90 329h23l79 -219l79 219h23l90 -329l-58 -11l-50 201z" />
    <glyph glyph-name="onethird" unicode="&#x2153;" horiz-adv-x="950" 
d="M688 237l-11 20l118 140h-157l13 67h253l9 -19l-132 -159q101 -37 80 -143q-11 -59 -62.5 -104t-125.5 -45q-42 0 -76 21.5t-51 62.5l64 46q23 -63 77 -63q37 0 65 23t35 58q8 42 -15.5 68.5t-83.5 26.5zM319 712l19 -7l-90 -463h-73l70 361l-80 -38l-22 57zM700 715
l54 -33l-509 -697l-54 33z" />
    <glyph glyph-name="twothirds" unicode="&#x2154;" horiz-adv-x="950" 
d="M688 237l-11 20l118 140h-157l13 67h253l9 -19l-132 -159q101 -37 80 -143q-11 -59 -62.5 -104t-125.5 -45q-42 0 -76 21.5t-51 62.5l64 46q23 -63 77 -63q37 0 65 23t35 58q8 42 -15.5 68.5t-83.5 26.5zM57 242l-7 18l200 215q58 63 66 103q5 30 -9 48.5t-45 18.5
q-47 0 -90 -55l-49 36q67 86 148 86q65 0 97 -37.5t21 -97.5q-12 -61 -88 -140l-122 -128h164l-13 -67h-273zM700 715l54 -33l-509 -697l-54 33z" />
    <glyph glyph-name="onefifth" unicode="&#x2155;" horiz-adv-x="950" 
d="M633 223l-16 11l79 229h212l-12 -66h-152l-33 -91q7 1 28 1q61 0 99 -45t26 -110q-13 -66 -64 -112.5t-124 -46.5q-44 0 -78 21.5t-51 63.5l62 46q23 -64 76 -64q42 0 69.5 26.5t34.5 61.5q8 40 -14.5 66t-66.5 26q-36 0 -75 -17zM319 712l19 -7l-90 -463h-73l70 361
l-80 -38l-22 57zM700 715l54 -33l-509 -697l-54 33z" />
    <glyph glyph-name="twofifths" unicode="&#x2156;" horiz-adv-x="950" 
d="M633 223l-16 11l79 229h212l-12 -66h-152l-33 -91q7 1 28 1q61 0 99 -45t26 -110q-13 -66 -64 -112.5t-124 -46.5q-44 0 -78 21.5t-51 63.5l62 46q23 -64 76 -64q42 0 69.5 26.5t34.5 61.5q8 40 -14.5 66t-66.5 26q-36 0 -75 -17zM57 242l-7 18l200 215q58 63 66 103
q5 30 -9 48.5t-45 18.5q-47 0 -90 -55l-49 36q67 86 148 86q65 0 97 -37.5t21 -97.5q-12 -61 -88 -140l-122 -128h164l-13 -67h-273zM700 715l54 -33l-509 -697l-54 33z" />
    <glyph glyph-name="threefifths" unicode="&#x2157;" horiz-adv-x="950" 
d="M633 223l-16 11l79 229h212l-12 -66h-152l-33 -91q7 1 28 1q61 0 99 -45t26 -110q-13 -66 -64 -112.5t-124 -46.5q-44 0 -78 21.5t-51 63.5l62 46q23 -64 76 -64q42 0 69.5 26.5t34.5 61.5q8 40 -14.5 66t-66.5 26q-36 0 -75 -17zM184 473l-10 20l118 140h-157l13 67h253
l9 -19l-132 -159q101 -37 80 -143q-11 -59 -62.5 -104t-125.5 -45q-42 0 -76 21.5t-51 62.5l63 46q13 -32 30.5 -47.5t47.5 -15.5q37 0 65 23t35 58q8 42 -16 68.5t-84 26.5zM700 715l54 -33l-509 -697l-54 33z" />
    <glyph glyph-name="fourfifths" unicode="&#x2158;" horiz-adv-x="950" 
d="M633 223l-16 11l79 229h212l-12 -66h-152l-33 -91q7 1 28 1q61 0 99 -45t26 -110q-13 -66 -64 -112.5t-124 -46.5q-44 0 -78 21.5t-51 63.5l62 46q23 -64 76 -64q42 0 69.5 26.5t34.5 61.5q8 40 -14.5 66t-66.5 26q-36 0 -75 -17zM43 327l-7 20l337 365l21 -5l-61 -313
h50l-13 -67h-50l-16 -85h-73l16 85h-204zM159 394h101l28 145zM700 715l54 -33l-509 -697l-54 33z" />
    <glyph glyph-name="onesixth" unicode="&#x2159;" horiz-adv-x="950" 
d="M851 147q-13 -66 -68 -109.5t-118 -43.5t-101 43.5t-25 109.5q8 41 57 103l179 226l50 -35l-110 -141h16q57 0 95 -43t25 -110zM712 233q-35 0 -64 -25t-36 -61t12.5 -61t53.5 -25q35 0 64 25t36 61t-12.5 61t-53.5 25zM319 712l19 -7l-90 -463h-73l70 361l-80 -38
l-22 57zM700 715l54 -33l-509 -697l-54 33z" />
    <glyph glyph-name="fivesixths" unicode="&#x215a;" horiz-adv-x="950" 
d="M135 460l-16 11l80 229h212l-13 -66h-152l-33 -91q7 1 28 1q61 0 99 -45t26 -110q-13 -66 -64 -112.5t-124 -46.5q-44 0 -78 21.5t-51 63.5l62 46q23 -64 76 -64q42 0 69.5 26.5t34.5 61.5q8 40 -14.5 66t-66.5 26q-36 0 -75 -17zM851 147q-13 -66 -68 -109.5t-118 -43.5
t-101 43.5t-25 109.5q8 41 57 103l179 226l50 -35l-110 -141h16q57 0 95 -43t25 -110zM712 233q-35 0 -64 -25t-36 -61t12.5 -61t53.5 -25q35 0 64 25t36 61t-12.5 61t-53.5 25zM700 715l54 -33l-509 -697l-54 33z" />
    <glyph glyph-name="oneeighth" unicode="&#x215b;" horiz-adv-x="950" 
d="M793 147q7 36 -12 60.5t-54 24.5t-64 -25t-36 -60q-6 -33 13 -59.5t53 -26.5t64 26.5t36 59.5zM740 299q23 0 40.5 16.5t21.5 38.5q5 22 -6.5 39t-34.5 17q-22 0 -40 -17t-23 -39q-4 -22 8 -38.5t34 -16.5zM554 145q7 40 32.5 72t61.5 50q-33 33 -24 85q11 53 53.5 88.5
t96.5 35.5q55 0 84 -35.5t18 -88.5q-9 -50 -58 -85q63 -39 48 -122q-12 -62 -66.5 -106.5t-119.5 -44.5t-101.5 44.5t-24.5 106.5zM319 712l19 -7l-90 -463h-73l70 361l-80 -38l-22 57zM700 715l54 -33l-509 -697l-54 33z" />
    <glyph glyph-name="threeeighths" unicode="&#x215c;" horiz-adv-x="950" 
d="M793 147q7 36 -12 60.5t-54 24.5t-64 -25t-36 -60q-6 -33 13 -59.5t53 -26.5t64 26.5t36 59.5zM740 299q23 0 40.5 16.5t21.5 38.5q5 22 -6.5 39t-34.5 17q-22 0 -40 -17t-23 -39q-4 -22 8 -38.5t34 -16.5zM554 145q7 40 32.5 72t61.5 50q-33 33 -24 85q11 53 53.5 88.5
t96.5 35.5q55 0 84 -35.5t18 -88.5q-9 -50 -58 -85q63 -39 48 -122q-12 -62 -66.5 -106.5t-119.5 -44.5t-101.5 44.5t-24.5 106.5zM184 473l-10 20l118 140h-157l13 67h253l9 -19l-132 -159q101 -37 80 -143q-11 -59 -62.5 -104t-125.5 -45q-42 0 -76 21.5t-51 62.5l63 46
q13 -32 30.5 -47.5t47.5 -15.5q37 0 65 23t35 58q8 42 -16 68.5t-84 26.5zM700 715l54 -33l-509 -697l-54 33z" />
    <glyph glyph-name="fiveeighths" unicode="&#x215d;" horiz-adv-x="950" 
d="M793 147q7 36 -12 60.5t-54 24.5t-64 -25t-36 -60q-6 -33 13 -59.5t53 -26.5t64 26.5t36 59.5zM740 299q23 0 40.5 16.5t21.5 38.5q5 22 -6.5 39t-34.5 17q-22 0 -40 -17t-23 -39q-4 -22 8 -38.5t34 -16.5zM554 145q7 40 32.5 72t61.5 50q-33 33 -24 85q11 53 53.5 88.5
t96.5 35.5q55 0 84 -35.5t18 -88.5q-9 -50 -58 -85q63 -39 48 -122q-12 -62 -66.5 -106.5t-119.5 -44.5t-101.5 44.5t-24.5 106.5zM135 460l-16 11l80 229h212l-13 -66h-152l-33 -91q7 1 28 1q61 0 99 -45t26 -110q-13 -66 -64 -112.5t-124 -46.5q-44 0 -78 21.5t-51 63.5
l62 46q23 -64 76 -64q42 0 69.5 26.5t34.5 61.5q8 40 -14.5 66t-66.5 26q-36 0 -75 -17zM700 715l54 -33l-509 -697l-54 33z" />
    <glyph glyph-name="seveneighths" unicode="&#x215e;" horiz-adv-x="950" 
d="M793 147q7 36 -12 60.5t-54 24.5t-64 -25t-36 -60q-6 -33 13 -59.5t53 -26.5t64 26.5t36 59.5zM740 299q23 0 40.5 16.5t21.5 38.5q5 22 -6.5 39t-34.5 17q-22 0 -40 -17t-23 -39q-4 -22 8 -38.5t34 -16.5zM554 145q7 40 32.5 72t61.5 50q-33 33 -24 85q11 53 53.5 88.5
t96.5 35.5q55 0 84 -35.5t18 -88.5q-9 -50 -58 -85q63 -39 48 -122q-12 -62 -66.5 -106.5t-119.5 -44.5t-101.5 44.5t-24.5 106.5zM700 715l54 -33l-509 -697l-54 33zM435 682l-279 -452l-60 27l234 377h-200l13 66h284z" />
    <glyph glyph-name="uni215F" unicode="&#x215f;" horiz-adv-x="950" 
d="M319 712l19 -7l-90 -463h-73l70 361l-80 -38l-22 57zM700 715l54 -33l-509 -697l-54 33z" />
    <glyph glyph-name="partialdiff" unicode="&#x2202;" horiz-adv-x="593" 
d="M55 234q0 104 75.5 175t176.5 71q69 0 107 -37q-48 68 -115.5 118.5t-168.5 98.5l40 70q190 -91 289 -221.5t99 -274.5q0 -103 -75.5 -174.5t-175.5 -71.5t-176 71.5t-76 174.5zM307 70q70 0 114.5 45.5t44.5 118.5t-44.5 119t-114.5 46q-71 0 -115.5 -46t-44.5 -119
t44.5 -118.5t115.5 -45.5z" />
    <glyph glyph-name="Delta" unicode="&#x2206;" horiz-adv-x="672" 
d="M336 712h20l301 -695l-11 -17h-600l-11 17zM160 82h372l-186 451z" />
    <glyph glyph-name="product" unicode="&#x220f;" horiz-adv-x="688" 
d="M618 740v-851h-92v769h-344v-769h-92v851h528z" />
    <glyph glyph-name="summation" unicode="&#x2211;" horiz-adv-x="606" 
d="M187 -29h399v-82h-529l-10 24l290 418l-290 385l10 24h529v-82h-397l233 -309v-38z" />
    <glyph glyph-name="minus" unicode="&#x2212;" horiz-adv-x="618" 
d="M558 293h-478v78h478v-78z" />
    <glyph glyph-name="uni2215" unicode="&#x2215;" horiz-adv-x="444" 
d="M389 715l60 -33l-374 -697l-60 33z" />
    <glyph glyph-name="uni2219" unicode="&#x2219;" horiz-adv-x="300" 
d="M116 290q-17 18 -17 44t17.5 43.5t43.5 17.5t43.5 -17.5t17.5 -43.5t-17.5 -43.5t-43.5 -17.5t-44 17z" />
    <glyph glyph-name="radical" unicode="&#x221a;" horiz-adv-x="703" 
d="M376 0h-20l-174 313h-72v61h110l131 -237l153 633h69z" />
    <glyph glyph-name="infinity" unicode="&#x221e;" horiz-adv-x="772" 
d="M572 472q65 0 109 -39t44 -101t-44 -101t-109 -39q-93 0 -176 88q-83 -88 -176 -88q-65 0 -109 39t-44 101t44 101t109 39q92 0 176 -89q84 89 176 89zM221 407q-34 0 -56 -21.5t-22 -53.5t22 -53.5t56 -21.5q32 0 61.5 15.5t68.5 59.5q-39 44 -68.5 59.5t-61.5 15.5z
M571 257q34 0 56 21.5t22 53.5t-22 53.5t-56 21.5q-33 0 -62 -15.5t-69 -59.5q40 -44 69 -59.5t62 -15.5z" />
    <glyph glyph-name="orthogonal" unicode="&#x221f;" horiz-adv-x="640" 
d="M630 78v-78h-520v575h90v-497h430z" />
    <glyph glyph-name="integral" unicode="&#x222b;" horiz-adv-x="570" 
d="M338 558v-587q0 -91 -40.5 -141t-119.5 -50q-80 0 -128 63l63 51q22 -38 65 -38q74 0 74 116v587q0 91 40.5 141t119.5 50q80 0 128 -63l-63 -51q-22 38 -65 38q-74 0 -74 -116z" />
    <glyph glyph-name="approxequal" unicode="&#x2248;" horiz-adv-x="618" 
d="M284 401q-37 32 -69 32q-58 0 -69 -94l-78 24q12 67 50 106.5t97 39.5q68 0 138 -61q37 -32 69 -32q58 0 69 94l78 -24q-12 -67 -50 -106.5t-97 -39.5q-68 0 -138 61zM284 209q-37 32 -69 32q-58 0 -69 -94l-78 24q12 67 50 106.5t97 39.5q68 0 138 -61q37 -32 69 -32
q58 0 69 94l78 -24q-12 -67 -50 -106.5t-97 -39.5q-68 0 -138 61z" />
    <glyph glyph-name="notequal" unicode="&#x2260;" horiz-adv-x="618" 
d="M471 637l57 -35l-71 -115h101v-78h-148l-95 -154h243v-78h-290l-101 -165l-57 35l79 130h-109v78h157l94 154h-251v78h299z" />
    <glyph glyph-name="lessequal" unicode="&#x2264;" horiz-adv-x="618" 
d="M80 385v20l440 238l38 -73l-333 -175l333 -175l-38 -73zM558 36h-478v78h478v-78z" />
    <glyph glyph-name="greaterequal" unicode="&#x2265;" horiz-adv-x="618" 
d="M558 405v-20l-440 -238l-38 73l333 175l-333 175l38 73zM558 36h-478v78h478v-78z" />
    <glyph glyph-name="lozenge" unicode="&#x25ca;" horiz-adv-x="568" 
d="M538 302l-244 -459l-244 459l244 459zM145 302l149 -285l149 285l-149 285z" />
    <glyph glyph-name="H18533" unicode="&#x25cf;" horiz-adv-x="1000" 
d="M271 87q-99 99 -99 239t99 239t239 99t239 -99t99 -239t-99 -239t-239 -99t-239 99z" />
    <glyph glyph-name="s_t" unicode="&#xfb06;" horiz-adv-x="686" 
d="M154 64q34 0 57.5 19t28.5 48q6 31 -10.5 52t-61.5 41q-108 48 -91 132q10 53 55.5 88.5t101.5 35.5h2q-30 46 -18 109q13 69 77 120.5t145 51.5q90 0 135.5 -60t27.5 -153l-16 -80h119l-14 -76h-119l-76 -392h-86l107 553q13 63 -13.5 101t-79.5 38q-51 0 -90.5 -33.5
t-48.5 -81.5q-13 -62 19 -120q26 -20 36 -46l-67 -44q-11 37 -53 37q-21 0 -37.5 -12.5t-19.5 -29.5q-4 -23 11 -39.5t54 -34.5q117 -52 98 -151q-13 -65 -62.5 -107t-125.5 -42q-48 0 -86 28t-51 76l74 47q19 -75 78 -75z" />
    <glyph glyph-name="f_j" horiz-adv-x="559" 
d="M126 -219l73 51q14 -38 48 -38q38 0 57.5 28.5t30.5 87.5l94 482h-214l-131 -674h-86l131 674h-78l14 76h78l19 95q18 90 81 144t144 54q53 0 91 -24t55 -68l-72 -49q-23 65 -88 65q-47 0 -80.5 -32.5t-44.5 -89.5l-19 -95h300l-108 -559q-37 -191 -188 -191
q-71 0 -107 63z" />
    <glyph glyph-name="zero.tnum" horiz-adv-x="604" 
d="M90 350q30 159 108 260.5t194 101.5q78 0 122.5 -49.5t50.5 -130t-11 -182.5q-20 -103 -59 -182.5t-102.5 -129.5t-141.5 -50q-59 0 -99 28.5t-57 78t-19 115t14 140.5zM182 350q-27 -118 -6.5 -199t91.5 -81t120.5 76.5t74.5 203.5q26 118 5.5 199t-91.5 81t-120.5 -77
t-73.5 -203z" />
    <glyph glyph-name="one.tnum" horiz-adv-x="425" 
d="M354 712l18 -6l-137 -706h-92l111 573l-136 -65l-26 69z" />
    <glyph glyph-name="two.tnum" horiz-adv-x="528" 
d="M-1 0l-6 18l310 330q95 102 109 168q11 56 -18.5 85t-87.5 29q-34 0 -71 -21t-66 -59l-58 44q43 55 101 86.5t113 31.5q99 0 147.5 -54t31.5 -143q-19 -93 -134 -212l-212 -221h270l-15 -82h-414z" />
    <glyph glyph-name="three.tnum" horiz-adv-x="553" 
d="M233 368l-6 24l187 226h-259l16 82h386l9 -19l-215 -256q75 -20 111 -79.5t21 -135.5q-17 -90 -92 -156t-188 -66q-65 0 -116 30.5t-76 91.5l77 55q41 -95 132 -95q63 0 111 39t60 99q13 68 -25.5 113.5t-132.5 46.5z" />
    <glyph glyph-name="four.tnum" horiz-adv-x="580" 
d="M6 136l-6 19l521 557l18 -5l-95 -489h78l-16 -82h-78l-26 -136h-92l26 136h-330zM154 218h198l53 274z" />
    <glyph glyph-name="five.tnum" horiz-adv-x="573" 
d="M149 343l-15 10l120 347h316l-16 -82h-241l-62 -176q28 8 60 8q94 0 151.5 -64.5t38.5 -162.5q-20 -100 -95.5 -167.5t-187.5 -67.5q-66 0 -117 31.5t-75 90.5l77 55q16 -44 49 -69.5t77 -25.5q74 0 120 43t59 104q13 69 -26 110t-115 41q-57 0 -118 -25z" />
    <glyph glyph-name="six.tnum" horiz-adv-x="612" 
d="M544 219q-19 -99 -102 -165t-179 -66t-153 65.5t-38 165.5q7 37 25.5 70t63.5 88l274 335l61 -43l-185 -226q21 7 51 7q87 0 144 -65.5t38 -165.5zM390 113q50 43 62 106t-21 106t-94 43t-111 -43t-62 -106t21 -106t94 -43t111 43z" />
    <glyph glyph-name="seven.tnum" horiz-adv-x="495" 
d="M557 681l-430 -693l-76 34l373 596h-324l16 82h432z" />
    <glyph glyph-name="eight.tnum" horiz-adv-x="592" 
d="M183 532q15 77 77.5 128.5t142.5 51.5q81 0 123.5 -51.5t27.5 -128.5q-16 -84 -100 -133q51 -26 75.5 -75.5t12.5 -112.5q-19 -93 -100 -158t-180 -65q-100 0 -155.5 65t-36.5 158q12 63 55 112t105 76q-63 49 -47 133zM162 214q-11 -58 22.5 -101t93.5 -43t110.5 43.5
t61.5 100.5q12 61 -21.5 102t-94.5 41t-110.5 -41t-61.5 -102zM275 534q-7 -39 13.5 -67t61.5 -28q42 0 73.5 28t38.5 67q8 40 -12.5 68t-62.5 28q-41 0 -72.5 -28t-39.5 -68z" />
    <glyph glyph-name="nine.tnum" horiz-adv-x="612" 
d="M103 481q19 99 102 165t179 66t153 -65.5t38 -165.5q-7 -37 -25.5 -70t-63.5 -88l-274 -335l-60 43l184 226q-21 -7 -51 -7q-87 0 -144 65.5t-38 165.5zM257 587q-50 -43 -62 -106t21 -106t94 -43t111 43t62 106t-21 106t-94 43t-111 -43z" />
    <glyph glyph-name="hyphen.case" horiz-adv-x="406" 
d="M355 307h-286l17 86h286z" />
    <glyph glyph-name="parenleft.case" horiz-adv-x="359" 
d="M165 350q45 235 215 440l58 -39q-140 -187 -181 -401q-43 -214 26 -401l-74 -39q-91 203 -44 440z" />
    <glyph glyph-name="parenright.case" horiz-adv-x="359" 
d="M277 350q-46 -236 -216 -440l-58 39q139 186 182 401q41 215 -27 401l74 39q90 -202 45 -440z" />
    <glyph glyph-name="bracketleft.case" horiz-adv-x="346" 
d="M52 -90l171 880h196l-14 -70h-110l-143 -740h110l-14 -70h-196z" />
    <glyph glyph-name="bracketright.case" horiz-adv-x="346" 
d="M329 790l-171 -880h-196l14 70h110l143 740h-110l14 70h196z" />
    <glyph glyph-name="braceleft.case" horiz-adv-x="385" 
d="M96 340l3 20q51 19 77 50.5t35 80.5l29 150q13 65 61.5 107t109.5 42h44l-14 -72h-26q-74 0 -93 -96l-22 -115q-20 -106 -118 -157q77 -51 57 -157l-22 -115q-9 -45 4.5 -70.5t50.5 -25.5h26l-14 -72h-44q-62 0 -94 42.5t-19 106.5l29 150q9 50 -4 81t-56 50z" />
    <glyph glyph-name="braceright.case" horiz-adv-x="385" 
d="M324 360l-3 -20q-51 -19 -77 -50.5t-35 -80.5l-29 -150q-13 -65 -61.5 -107t-109.5 -42h-44l14 72h26q74 0 93 96l22 115q20 106 119 157q-78 51 -58 157l22 115q9 45 -4.5 70.5t-50.5 25.5h-26l14 72h44q62 0 94 -42.5t19 -106.5l-29 -150q-9 -49 4 -80.5t56 -50.5z" />
    <glyph glyph-name="at.case" horiz-adv-x="964" 
d="M670 488l11 53h77l-53 -269q-11 -62 41 -62t89.5 42t52.5 119q28 148 -56 252t-241 104q-148 0 -274.5 -111t-157.5 -267q-30 -154 56 -265t242 -111q133 0 253 69l15 -54q-137 -75 -279 -75q-121 0 -211 61.5t-128 161.5t-16 213q22 114 98 214.5t186.5 162t226.5 61.5
q121 0 210.5 -58.5t127 -153.5t16.5 -204q-19 -99 -84 -164t-153 -65q-39 0 -64.5 19t-31.5 54q-32 -34 -75.5 -53t-87.5 -19q-84 0 -131.5 60.5t-31.5 144.5q17 84 88 144t155 60t130 -64zM374 348q-10 -55 21.5 -95t86.5 -40t103 40t58 95l1 5q8 53 -24.5 91.5t-85.5 38.5
q-55 0 -102 -40t-58 -95z" />
    <glyph glyph-name="guillemotleft.case" horiz-adv-x="570" 
d="M66 342l3 16l256 169l31 -56l-188 -121l141 -121l-53 -56zM271 342l3 16l256 169l31 -56l-188 -121l141 -121l-53 -56z" />
    <glyph glyph-name="guillemotright.case" horiz-adv-x="570" 
d="M539 358l-3 -16l-256 -169l-31 56l189 121l-142 121l53 56zM334 358l-3 -16l-256 -169l-31 56l189 121l-142 121l53 56z" />
    <glyph glyph-name="guilsinglleft.case" horiz-adv-x="365" 
d="M66 342l3 16l256 169l31 -56l-188 -121l141 -121l-53 -56z" />
    <glyph glyph-name="guilsinglright.case" horiz-adv-x="365" 
d="M334 358l-3 -16l-256 -169l-31 56l189 121l-142 121l53 56z" />
    <glyph glyph-name="endash.case" horiz-adv-x="500" 
d="M510 311h-500l15 78h500z" />
    <glyph glyph-name="emdash.case" horiz-adv-x="1000" 
d="M1010 311h-1000l15 78h1000z" />
    <glyph glyph-name="periodcentered.case" horiz-adv-x="300" 
d="M185 415q26 0 40 -18t9 -43q-4 -25 -25.5 -43t-47.5 -18q-25 0 -39.5 17.5t-9.5 43.5t26.5 43.5t46.5 17.5z" />
    <glyph glyph-name="questiondown.case" horiz-adv-x="477" 
d="M403 651q-5 -26 -26.5 -43.5t-46.5 -17.5q-26 0 -40 18t-9 43q5 26 26.5 43.5t46.5 17.5q26 0 40 -18t9 -43zM230 440l-31 64q52 42 108 42q59 0 87 -33t17 -87q-14 -78 -126 -130q-78 -37 -117.5 -67t-47.5 -72q-7 -37 21 -63t85 -26q80 0 148 71l56 -50
q-47 -47 -106.5 -74t-114.5 -27q-91 0 -140 48t-35 122q13 70 63 115.5t143 85.5q79 35 86 70q7 37 -35 37q-30 0 -61 -26z" />
    <glyph glyph-name="exclamdown.case" horiz-adv-x="296" 
d="M144 0h-92l103 531h92zM285 651q-5 -26 -26.5 -43.5t-46.5 -17.5q-26 0 -40 18t-9 43q5 26 26.5 43.5t46.5 17.5q26 0 40 -18t9 -43z" />
    <glyph glyph-name="bullet.case" horiz-adv-x="448" 
d="M146 262q-36 37 -36 88t36.5 87.5t87.5 36.5t87.5 -36.5t36.5 -87.5t-36.5 -87.5t-87.5 -36.5t-88 36z" />
    <glyph glyph-name="zero.p_osf" horiz-adv-x="492" 
d="M355 273q19 86 2.5 145.5t-69.5 59.5t-90 -56.5t-55 -148.5q-20 -86 -3.5 -145.5t69.5 -59.5t90.5 56.5t55.5 148.5zM53 273q24 125 89.5 205t161.5 80t130.5 -80t10.5 -205q-25 -125 -90.5 -205t-161.5 -80t-130.5 80t-9.5 205z" />
    <glyph glyph-name="one.p_osf" horiz-adv-x="371" 
d="M282 558l25 -8l-106 -550h-90l83 429l-104 -52l-29 70z" />
    <glyph glyph-name="two.p_osf" horiz-adv-x="459" 
d="M-7 0l-9 24l262 253q78 75 87 123q8 36 -12.5 57t-63.5 21q-29 0 -65 -18.5t-62 -49.5l-56 44q40 48 94 76t102 28q87 0 127 -43.5t26 -116.5q-15 -75 -114 -167l-160 -151h220l-15 -80h-361z" />
    <glyph glyph-name="three.p_osf" horiz-adv-x="508" 
d="M202 232l-7 22l179 212h-247l16 80h365l8 -18l-205 -242q72 -20 108 -75t21 -129q-16 -85 -88 -147.5t-179 -62.5q-61 0 -109.5 28.5t-72.5 86.5l72 53q40 -90 126 -90q60 0 105 36.5t56 93.5q12 65 -24 108t-124 44z" />
    <glyph glyph-name="four.p_osf" horiz-adv-x="524" 
d="M-9 13l-5 21l472 524l19 -6l-89 -459h69l-16 -80h-69l-25 -129h-90l25 129h-291zM132 93h166l46 237z" />
    <glyph glyph-name="five.p_osf" horiz-adv-x="528" 
d="M116 208l-15 12l110 327h284l-16 -80h-211l-57 -164q28 10 62 10q92 0 139.5 -61t28.5 -156q-19 -100 -90.5 -162t-177.5 -62q-58 0 -105 30t-71 86l70 52q16 -39 47.5 -63.5t70.5 -24.5q67 0 110 39t55 99q13 67 -20.5 105t-107.5 38q-48 0 -106 -25z" />
    <glyph glyph-name="six.p_osf" horiz-adv-x="560" 
d="M514 209q-19 -99 -94 -160t-168 -61q-92 0 -144.5 61t-33.5 160q12 60 83 151l262 326l59 -43l-183 -221q21 7 56 7q79 0 130 -63t33 -157zM424 209q11 60 -16.5 99t-85.5 39t-102.5 -39.5t-55.5 -98.5t18 -100t86 -41t100.5 41t55.5 100z" />
    <glyph glyph-name="seven.p_osf" horiz-adv-x="449" 
d="M481 526l-400 -666l-72 34l345 571h-284l16 82h385z" />
    <glyph glyph-name="eight.p_osf" horiz-adv-x="540" 
d="M145 502q14 72 73 121.5t132 49.5t113.5 -49.5t26.5 -121.5q-14 -77 -91 -125q44 -27 65 -73t9 -105q-17 -87 -91.5 -149t-164.5 -62q-89 0 -140 62t-34 149q12 59 51 105.5t94 72.5q-58 46 -43 125zM134 202q-10 -53 17 -93.5t82 -40.5t98 40.5t53 93.5q11 56 -16 95.5
t-83 39.5t-98 -39.5t-53 -95.5zM235 504q-6 -36 11 -62t54 -26q38 0 66 26t34 62q7 36 -10 62.5t-55 26.5q-37 0 -65 -26.5t-35 -62.5z" />
    <glyph glyph-name="nine.p_osf" horiz-adv-x="560" 
d="M88 337q19 99 94 160t168 61q92 0 144.5 -61t33.5 -160q-12 -60 -83 -151l-262 -326l-59 43l184 221q-22 -7 -57 -7q-79 0 -130 63t-33 157zM178 337q-11 -60 16.5 -99t85.5 -39t102.5 39.5t55.5 98.5t-18 100t-86 41t-100.5 -41t-55.5 -100z" />
    <glyph glyph-name="zero.t_osf" horiz-adv-x="574" 
d="M421 273q19 86 2.5 145.5t-69.5 59.5t-90 -56.5t-55 -148.5q-20 -86 -3.5 -145.5t69.5 -59.5t90.5 56.5t55.5 148.5zM119 273q24 125 89.5 205t161.5 80t130.5 -80t10.5 -205q-25 -125 -90.5 -205t-161.5 -80t-130.5 80t-9.5 205z" />
    <glyph glyph-name="one.t_osf" horiz-adv-x="574" 
d="M357 558l25 -8l-106 -550h-90l83 429l-104 -52l-29 70z" />
    <glyph glyph-name="two.t_osf" horiz-adv-x="574" 
d="M33 0l-9 24l262 253q78 75 87 123q8 36 -12.5 57t-63.5 21q-29 0 -65 -18.5t-62 -49.5l-56 44q40 48 94 76t102 28q87 0 127 -43.5t26 -116.5q-15 -75 -114 -167l-160 -151h220l-15 -80h-361z" />
    <glyph glyph-name="three.t_osf" horiz-adv-x="574" 
d="M197 232l-7 22l179 212h-247l16 80h365l8 -18l-205 -242q72 -20 108 -75t21 -129q-16 -85 -88 -147.5t-179 -62.5q-61 0 -109.5 28.5t-72.5 86.5l72 53q40 -90 126 -90q60 0 105 36.5t56 93.5q12 65 -24 108t-124 44z" />
    <glyph glyph-name="four.t_osf" horiz-adv-x="574" 
d="M-19 13l-5 21l472 524l19 -6l-89 -459h69l-16 -80h-69l-25 -129h-90l25 129h-291zM122 93h166l46 237z" />
    <glyph glyph-name="five.t_osf" horiz-adv-x="574" 
d="M123 208l-15 12l110 327h284l-16 -80h-211l-57 -164q28 10 62 10q92 0 139.5 -61t28.5 -156q-19 -100 -90.5 -162t-177.5 -62q-58 0 -105 30t-71 86l70 52q16 -39 47.5 -63.5t70.5 -24.5q67 0 110 39t55 99q13 67 -20.5 105t-107.5 38q-48 0 -106 -25z" />
    <glyph glyph-name="six.t_osf" horiz-adv-x="574" 
d="M500 209q-19 -99 -94 -160t-168 -61q-92 0 -144.5 61t-33.5 160q12 60 83 151l262 326l59 -43l-183 -221q21 7 56 7q79 0 130 -63t33 -157zM410 209q11 60 -16.5 99t-85.5 39t-102.5 -39.5t-55.5 -98.5t18 -100t86 -41t100.5 41t55.5 100z" />
    <glyph glyph-name="seven.t_osf" horiz-adv-x="574" 
d="M531 526l-400 -666l-72 34l345 571h-284l16 82h385z" />
    <glyph glyph-name="eight.t_osf" horiz-adv-x="574" 
d="M179 502q14 72 73 121.5t132 49.5t113.5 -49.5t26.5 -121.5q-14 -77 -91 -125q44 -27 65 -73t9 -105q-17 -87 -91.5 -149t-164.5 -62q-89 0 -140 62t-34 149q12 59 51 105.5t94 72.5q-58 46 -43 125zM168 202q-10 -53 17 -93.5t82 -40.5t98 40.5t53 93.5q11 56 -16 95.5
t-83 39.5t-98 -39.5t-53 -95.5zM269 504q-6 -36 11 -62t54 -26q38 0 66 26t34 62q7 36 -10 62.5t-55 26.5q-37 0 -65 -26.5t-35 -62.5z" />
    <glyph glyph-name="nine.t_osf" horiz-adv-x="574" 
d="M79 337q19 99 94 160t168 61q92 0 144.5 -61t33.5 -160q-12 -60 -83 -151l-262 -326l-59 43l184 221q-22 -7 -57 -7q-79 0 -130 63t-33 157zM169 337q-11 -60 16.5 -99t85.5 -39t102.5 39.5t55.5 98.5t-18 100t-86 41t-100.5 -41t-55.5 -100z" />
    <glyph glyph-name="dollar.osf" horiz-adv-x="462" 
d="M37 144l80 41q8 -37 32 -58.5t54 -21.5q37 0 63.5 21t33.5 57q14 68 -75 108q-119 52 -100 153q8 46 42 80t83 44l11 56h70l-11 -56q61 -16 81 -76l-75 -40q-14 40 -55 40q-22 0 -39 -13.5t-21 -33.5q-10 -47 67 -81q133 -58 109 -180q-11 -59 -53.5 -101.5t-104.5 -54.5
l-11 -54h-70l11 53q-46 8 -79 39t-43 78z" />
    <glyph glyph-name="cent.osf" horiz-adv-x="528" 
d="M86 302q19 93 90 160t165 82l16 80h70l-15 -77q84 -9 137 -67l-66 -60q-44 48 -110 48q-67 0 -125 -47t-72 -119t26 -119t107 -47q65 0 128 48l43 -60q-77 -58 -163 -67l-17 -83h-70l17 86q-87 15 -133 82t-28 160z" />
    <glyph glyph-name="sterling.osf" horiz-adv-x="479" 
d="M128 312l23 115q13 71 64.5 116t126.5 45q51 0 83.5 -19t56.5 -62l-76 -51q-20 52 -80 52q-35 0 -57 -23t-29 -61l-22 -112h128l-12 -62h-128l-7 -37q-15 -73 -53 -133h268l-15 -80h-391l-5 20q83 79 104 182l9 48h-67l12 62h67z" />
    <glyph glyph-name="yen.osf" horiz-adv-x="558" 
d="M226 217h-167l12 62h133l-120 258l80 43l124 -274l230 274l64 -43l-221 -258h134l-12 -62h-167l-10 -49h167l-12 -62h-167l-20 -106h-90l20 106h-167l12 62h167z" />
    <glyph glyph-name="florin.osf" horiz-adv-x="486" 
d="M307 353l-59 -305q-16 -82 -63 -127.5t-119 -45.5q-74 0 -109 61l74 53q16 -35 51 -35q31 0 49 24t27 73l59 302h-67l12 62h67l16 82q16 82 62.5 128t118.5 46t108 -62l-74 -54q-14 36 -50 36q-31 0 -48.5 -24t-26.5 -73l-16 -79h102l-12 -62h-102z" />
    <glyph glyph-name="Euro.osf" horiz-adv-x="568" 
d="M104 316h-43l12 62h52q39 93 113.5 151.5t169.5 58.5q114 0 168 -83l-61 -53q-39 56 -123 56q-114 0 -176 -130h215l-12 -62h-225q-4 -12 -7 -29q-1 -5 -2.5 -13.5t-1.5 -12.5h225l-12 -63h-215q4 -59 35.5 -94.5t90.5 -35.5q82 0 144 54l40 -51q-84 -83 -200 -83
q-95 0 -147 58t-55 152h-51l12 63h42l5 26q5 22 7 29z" />
    <glyph glyph-name="zero.numerator" 
d="M156 471q-16 -71 -5 -122.5t51 -51.5t69.5 49t44.5 125q16 71 5 122.5t-51 51.5t-69.5 -49t-44.5 -125zM87 298q-25 69 -5 173t72.5 172.5t128.5 68.5t101.5 -68.5t5.5 -172.5t-72.5 -172.5t-128.5 -68.5t-102 68z" />
    <glyph glyph-name="one.numerator" 
d="M319 712l19 -7l-90 -463h-73l70 361l-80 -38l-22 57z" />
    <glyph glyph-name="two.numerator" 
d="M57 242l-7 18l200 215q58 63 66 103q5 30 -9 48.5t-45 18.5q-47 0 -90 -55l-49 36q67 86 148 86q65 0 97 -37.5t21 -97.5q-12 -61 -88 -140l-122 -128h164l-13 -67h-273z" />
    <glyph glyph-name="three.numerator" 
d="M184 473l-10 20l118 140h-157l13 67h253l9 -19l-132 -159q101 -37 80 -143q-11 -59 -62.5 -104t-125.5 -45q-42 0 -76 21.5t-51 62.5l63 46q13 -32 30.5 -47.5t47.5 -15.5q37 0 65 23t35 58q8 42 -16 68.5t-84 26.5z" />
    <glyph glyph-name="four.numerator" 
d="M43 327l-7 20l337 365l21 -5l-61 -313h50l-13 -67h-50l-16 -85h-73l16 85h-204zM159 394h101l28 145z" />
    <glyph glyph-name="five.numerator" 
d="M135 460l-16 11l80 229h212l-13 -66h-152l-33 -91q7 1 28 1q61 0 99 -45t26 -110q-13 -66 -64 -112.5t-124 -46.5q-44 0 -78 21.5t-51 63.5l62 46q23 -64 76 -64q42 0 69.5 26.5t34.5 61.5q8 40 -14.5 66t-66.5 26q-36 0 -75 -17z" />
    <glyph glyph-name="six.numerator" 
d="M377 383q-13 -66 -68 -109.5t-118 -43.5t-101 43.5t-25 109.5q8 43 57 103l179 226l50 -35l-110 -141h16q57 0 95 -43t25 -110zM238 469q-35 0 -64 -25t-36 -61t12.5 -61t53.5 -25q35 0 64 25t36 61t-12.5 61t-53.5 25z" />
    <glyph glyph-name="seven.numerator" 
d="M435 682l-279 -452l-60 27l234 377h-200l13 66h284z" />
    <glyph glyph-name="eight.numerator" 
d="M319 383q7 35 -12.5 60t-54.5 25t-63.5 -25t-35.5 -60q-6 -33 13 -59.5t53 -26.5t64 26.5t36 59.5zM265 535q23 0 41 16.5t22 38.5q5 22 -6.5 39t-34.5 17q-22 0 -40 -17t-23 -39q-4 -22 7.5 -38.5t33.5 -16.5zM80 381q7 40 32.5 72t61.5 50q-35 35 -24 85
q10 53 52.5 88.5t97.5 35.5q54 0 83 -35.5t19 -88.5q-11 -51 -58 -85q63 -39 48 -122q-12 -62 -66.5 -106.5t-119.5 -44.5t-101.5 44.5t-24.5 106.5z" />
    <glyph glyph-name="nine.numerator" 
d="M98 559q13 66 68 109.5t118 43.5t101 -43.5t25 -109.5q-8 -43 -57 -103l-179 -226l-50 35l110 141h-16q-57 0 -95 43t-25 110zM237 473q35 0 64 25t36 61t-12.5 61t-53.5 25q-35 0 -64 -25t-36 -61t12.5 -61t53.5 -25z" />
    <glyph glyph-name="zero.denominator" 
d="M104 108q-16 -70 -4.5 -122t51.5 -52t69 49t44 125q17 70 5.5 122t-51.5 52t-69 -48.5t-45 -125.5zM30 108q20 104 72.5 172.5t128.5 68.5t101.5 -68.5t5.5 -172.5q-19 -103 -71.5 -172t-128.5 -69t-101.5 68.5t-6.5 172.5z" />
    <glyph glyph-name="one.denominator" 
d="M248 349l19 -7l-90 -463h-73l70 361l-79 -38l-22 57z" />
    <glyph glyph-name="two.denominator" 
d="M-14 -121l-7 18l200 215q59 65 66 103q6 30 -8 48.5t-46 18.5q-46 0 -89 -55l-49 36q67 86 147 86q65 0 97 -37.5t21 -97.5q-12 -62 -87 -140l-123 -128h164l-13 -67h-273z" />
    <glyph glyph-name="three.denominator" 
d="M114 110l-10 20l117 140h-157l13 67h253l9 -19l-132 -159q102 -37 81 -143q-12 -60 -63 -104.5t-125 -44.5q-42 0 -76.5 21.5t-51.5 62.5l64 46q23 -63 78 -63q37 0 64.5 22.5t34.5 58.5q9 42 -15 68.5t-84 26.5z" />
    <glyph glyph-name="four.denominator" 
d="M-27 -36l-8 20l337 365l21 -5l-60 -313h50l-13 -67h-50l-17 -85h-73l17 85h-204zM89 31h101l28 145z" />
    <glyph glyph-name="five.denominator" 
d="M64 97l-16 11l80 229h212l-13 -66h-152l-33 -91q8 1 29 1q61 0 99 -45t26 -110q-14 -66 -64.5 -112.5t-123.5 -46.5q-44 0 -78.5 21.5t-51.5 63.5l62 46q23 -64 77 -64q42 0 69.5 26.5t34.5 61.5q8 40 -14.5 66t-66.5 26q-37 0 -76 -17z" />
    <glyph glyph-name="six.denominator" 
d="M318 20q-12 -66 -67 -109.5t-118 -43.5t-101 43.5t-26 109.5q8 41 57 103l179 226l51 -35l-111 -141h16q57 0 95 -43t25 -110zM179 106q-34 0 -63 -25t-37 -61q-7 -36 12.5 -61t54.5 -25t63.5 25t35.5 61t-12 61t-54 25z" />
    <glyph glyph-name="seven.denominator" 
d="M365 319l-279 -452l-60 27l233 377h-200l13 66h284z" />
    <glyph glyph-name="eight.denominator" 
d="M248 20q8 35 -11.5 60t-54.5 25t-63.5 -24.5t-36.5 -60.5q-6 -33 13.5 -59.5t53.5 -26.5t63.5 26.5t35.5 59.5zM195 172q22 0 40 16.5t23 38.5q4 22 -7.5 39t-33.5 17q-23 0 -41 -17t-22 -39q-5 -22 6.5 -38.5t34.5 -16.5zM9 18q15 82 95 122q-34 34 -25 85
q11 53 53.5 88.5t96.5 35.5q55 0 84 -35.5t18 -88.5q-9 -51 -57 -85q62 -39 47 -122q-12 -62 -66 -106.5t-119 -44.5t-102 44.5t-25 106.5z" />
    <glyph glyph-name="nine.denominator" 
d="M28 196q12 66 67 109.5t118 43.5t101 -43.5t26 -109.5q-8 -41 -57 -103l-179 -226l-51 35l111 141h-16q-57 0 -95 43t-25 110zM167 110q34 0 63 25t37 61q7 36 -12.5 61t-54.5 25t-63.5 -25t-35.5 -61t12 -61t54 -25z" />
    <glyph glyph-name="commaaccent" horiz-adv-x="400" 
d="M35 -241l89 200l80 -27l-115 -189z" />
    <glyph glyph-name="c_t" horiz-adv-x="804" 
d="M361 480h13q-30 46 -18 109q13 69 77 120.5t145 51.5q90 0 135.5 -60t27.5 -153l-16 -80h119l-14 -76h-119l-76 -392h-86l107 553q13 63 -13.5 101t-79.5 38q-51 0 -90.5 -33.5t-48.5 -81.5q-13 -61 15 -110q49 -18 83 -54l-68 -57q-38 48 -108 48t-128 -49.5t-72 -120.5
t25 -120.5t109 -49.5q68 0 126 48l46 -57q-86 -67 -187 -67q-104 0 -164.5 71.5t-40.5 174.5t108.5 174.5t192.5 71.5z" />
    <glyph glyph-name="s_p" horiz-adv-x="1018" 
d="M510 68l-68 -350h-86l162 835q13 63 -13.5 101t-79.5 38q-51 0 -90.5 -33.5t-48.5 -81.5q-13 -62 19 -120q26 -20 36 -46l-67 -44q-11 37 -53 37q-21 0 -37.5 -12.5t-19.5 -29.5q-4 -23 11 -39.5t54 -34.5q117 -52 98 -151q-13 -65 -62.5 -107t-125.5 -42q-48 0 -86 28
t-51 76l74 47q19 -75 78 -75q34 0 57.5 19t28.5 48q6 31 -10.5 52t-61.5 41q-108 48 -91 132q10 53 55.5 88.5t101.5 35.5h2q-30 46 -18 109q13 69 77 120.5t145 51.5q90 0 135.5 -60t27.5 -153l-29 -148q80 80 196 80q102 0 160 -71t38 -175t-106 -175t-188 -71
q-116 0 -164 80zM882 234q14 71 -26.5 120.5t-110.5 49.5t-129.5 -49t-73.5 -121q-14 -71 26.5 -120.5t110.5 -49.5t129.5 49t73.5 121z" />
    <glyph glyph-name="f_t" horiz-adv-x="628" 
d="M249 569l-20 -101h214l26 132h86l-26 -132h119l-14 -76h-119l-76 -392h-86l76 392h-214l-131 -674h-86l131 674h-78l14 76h78l20 102q18 91 68 141t129 50q81 0 116 -63l-73 -51q-14 38 -57 38q-75 0 -97 -116z" />
    <glyph glyph-name="f_b" horiz-adv-x="968" 
d="M592 750l-68 -350q82 80 196 80q102 0 160 -71t38 -175t-106 -175t-188 -71q-117 0 -164 80l-13 -68h-86l124 639q-25 46 -92 46q-52 0 -93 -32.5t-51 -86.5l-20 -98h139l-14 -76h-139l-131 -674h-86l131 674h-78l14 76h78l24 119q15 76 79 125t140 49q75 0 114 -41l6 30
h86zM832 234q14 71 -26.5 120.5t-110.5 49.5t-129.5 -49t-73.5 -121q-14 -71 26.5 -120.5t110.5 -49.5t129.5 49t73.5 121z" />
    <glyph glyph-name="t_t" horiz-adv-x="618" 
d="M255 600l-26 -132h204l26 132h86l-26 -132h119l-14 -76h-119l-76 -392h-86l76 392h-204l-76 -392h-86l76 392h-78l14 76h78l26 132h86z" />
    <glyph glyph-name="f_k" horiz-adv-x="837" 
d="M495 251l283 229l49 -62l-218 -169l172 -199l-74 -62l-212 263l-48 -251h-86l124 639q-25 46 -92 46q-52 0 -93 -32.5t-51 -86.5l-20 -98h139l-14 -76h-139l-131 -674h-86l131 674h-78l14 76h78l24 119q15 76 79 125t140 49q75 0 114 -41l6 30h86z" />
    <glyph glyph-name="f_h" horiz-adv-x="873" 
d="M667 0l55 285q11 55 -16 87t-72 32q-46 0 -83.5 -32.5t-47.5 -81.5l-56 -290h-86l124 639q-25 46 -92 46q-52 0 -93 -32.5t-51 -86.5l-20 -98h139l-14 -76h-139l-131 -674h-86l131 674h-78l14 76h78l24 119q15 76 79 125t140 49q75 0 114 -41l6 30h86l-63 -324
q65 54 141 54q73 0 115 -48.5t27 -125.5l-59 -306h-86z" />
    <glyph glyph-name="f_f_h" horiz-adv-x="1173" 
d="M298 -282l131 674h-214l-131 -674h-86l131 674h-78l14 76h78l16 80q19 94 76 146t137 52q66 0 111 -37l-54 -67q-30 28 -72 28t-71 -31t-41 -91l-16 -80h214l24 119q15 76 79 125t140 49q75 0 114 -41l6 30h86l-63 -324q64 54 141 54q73 0 115 -48.5t27 -125.5l-59 -306
h-86l55 285q11 55 -16 87t-72 32q-46 0 -83.5 -32.5t-47.5 -81.5l-56 -290h-86l124 639q-25 46 -92 46q-52 0 -93 -32.5t-51 -86.5l-20 -98h139l-14 -76h-139l-131 -674h-86z" />
    <glyph glyph-name="f_f_b" horiz-adv-x="1268" 
d="M892 750l-68 -350q82 80 196 80q102 0 160 -71t38 -175t-106 -175t-188 -71q-117 0 -164 80l-13 -68h-86l124 639q-25 46 -92 46q-52 0 -93 -32.5t-51 -86.5l-20 -98h139l-14 -76h-139l-131 -674h-86l131 674h-214l-131 -674h-86l131 674h-78l14 76h78l16 80
q19 94 76 146t137 52q66 0 111 -37l-54 -67q-30 28 -72 28t-71 -31t-41 -91l-16 -80h214l24 119q15 76 79 125t140 49q75 0 114 -41l6 30h86zM1132 234q14 71 -26.5 120.5t-110.5 49.5t-129.5 -49t-73.5 -121q-14 -71 26.5 -120.5t110.5 -49.5t129.5 49t73.5 121z" />
    <glyph glyph-name="f_iogonek" horiz-adv-x="564" 
d="M143 468l19 95q18 90 81 144t144 54q53 0 91 -24t55 -68l-72 -49q-23 65 -88 65q-47 0 -80.5 -32.5t-44.5 -89.5l-19 -95h300l-90 -468h-14q-68 -51 -79 -103q-5 -27 8 -40t37 -13q20 0 40 14l12 -56q-38 -21 -82 -21q-51 0 -75.5 30.5t-16.5 71.5q13 67 90 117h-6
l76 392h-214l-131 -674h-86l131 674h-78l14 76h78z" />
    <glyph glyph-name="f_f_k" horiz-adv-x="1142" 
d="M800 251l283 229l49 -62l-218 -169l172 -199l-74 -62l-212 263l-48 -251h-86l124 639q-25 46 -92 46q-52 0 -93 -32.5t-51 -86.5l-20 -98h139l-14 -76h-139l-76 -392h-86l76 392h-219l-76 -392h-86l76 392h-78l14 76h78l16 80q19 94 76 146t137 52q66 0 111 -37l-54 -67
q-30 28 -72 28t-71 -31t-41 -91l-16 -80h219l24 119q15 76 79 125t140 49q75 0 114 -41l6 30h86z" />
    <glyph glyph-name="f_f_j" horiz-adv-x="869" 
d="M431 -219l73 51q14 -38 48 -38q38 0 57.5 28.5t30.5 87.5l94 482h-214l-131 -674h-86l131 674h-219l-131 -674h-86l131 674h-78l14 76h78l16 80q19 94 76 146t137 52q66 0 111 -37l-54 -67q-30 28 -72 28t-71 -31t-41 -91l-16 -80h219l19 95q18 90 81 144t144 54
q53 0 91 -24t55 -68l-72 -49q-23 65 -88 65q-47 0 -80.5 -32.5t-44.5 -89.5l-19 -95h300l-108 -559q-37 -191 -188 -191q-71 0 -107 63z" />
    <glyph glyph-name="f_t_t" horiz-adv-x="918" 
d="M555 600l-26 -132h204l26 132h86l-26 -132h119l-14 -76h-119l-76 -392h-86l76 392h-204l-76 -392h-86l76 392h-214l-76 -392h-86l76 392h-78l14 76h78l20 102q18 91 68 141t129 50q81 0 116 -63l-73 -51q-14 38 -57 38q-75 0 -97 -116l-20 -101h214l26 132h86z" />
    <glyph glyph-name="f_f_t" horiz-adv-x="933" 
d="M245 548l-16 -80h219l20 102q18 91 68 141t129 50q81 0 116 -63l-73 -51q-14 38 -57 38q-75 0 -97 -116l-20 -101h214l26 132h86l-26 -132h119l-14 -76h-119l-76 -392h-86l76 392h-214l-131 -674h-86l131 674h-219l-131 -674h-86l131 674h-78l14 76h78l16 80
q19 94 76 146t137 52q66 0 111 -37l-54 -67q-30 28 -72 28t-71 -31t-41 -91z" />
    <glyph glyph-name="f_f_iogonek" horiz-adv-x="892" 
d="M448 468l19 95q18 90 81 144t144 54q53 0 91 -24t55 -68l-72 -49q-23 65 -88 65q-47 0 -80.5 -32.5t-44.5 -89.5l-19 -95h300l-90 -468h-13q-68 -51 -79 -103q-5 -27 8 -40t37 -13q20 0 40 14l12 -56q-38 -21 -82 -21q-51 0 -75.5 30.5t-16.5 71.5q13 67 90 117h-7
l76 392h-214l-131 -674h-86l131 674h-219l-131 -674h-86l131 674h-78l14 76h78l16 80q19 94 76 146t137 52q66 0 111 -37l-54 -67q-30 28 -72 28t-71 -31t-41 -91l-16 -80h219z" />
    <glyph glyph-name="f_f_kcommaaccent" horiz-adv-x="1142" 
d="M727 -267l88 200l81 -27l-116 -189zM800 251l283 229l49 -62l-218 -169l172 -199l-74 -62l-212 263l-48 -251h-86l124 639q-25 46 -92 46q-52 0 -93 -32.5t-51 -86.5l-20 -98h139l-14 -76h-139l-76 -392h-86l76 392h-219l-76 -392h-86l76 392h-78l14 76h78l16 80
q19 94 76 146t137 52q66 0 111 -37l-54 -67q-30 28 -72 28t-71 -31t-41 -91l-16 -80h219l24 119q15 76 79 125t140 49q75 0 114 -41l6 30h86z" />
    <glyph glyph-name="f_lcaron" horiz-adv-x="694" 
d="M587 508l105 234l80 -27l-136 -223zM65 468h78l24 119q15 76 79 125t140 49q75 0 114 -41l6 30h86l-145 -750h-86l124 639q-25 46 -92 46q-52 0 -93 -32.5t-51 -86.5l-20 -98h139l-14 -76h-139l-131 -674h-86l131 674h-78z" />
    <glyph glyph-name="f_lcommaaccent" horiz-adv-x="572" 
d="M260 -267l88 200l81 -27l-116 -189zM65 468h78l24 119q15 76 79 125t140 49q75 0 114 -41l6 30h86l-145 -750h-86l124 639q-25 46 -92 46q-52 0 -93 -32.5t-51 -86.5l-20 -98h139l-14 -76h-139l-131 -674h-86l131 674h-78z" />
    <glyph glyph-name="f_f_lcommaaccent" horiz-adv-x="877" 
d="M805 720l6 30h86l-145 -750h-86l124 639q-25 46 -92 46q-52 0 -93 -32.5t-51 -86.5l-20 -98h139l-14 -76h-139l-131 -674h-86l131 674h-219l-131 -674h-86l131 674h-78l14 76h78l16 80q19 94 76 146t137 52q66 0 111 -37l-54 -67q-30 28 -72 28t-71 -31t-41 -91l-16 -80
h219l24 119q15 76 79 125t140 49q75 0 114 -41zM565 -267l88 200l81 -27l-116 -189z" />
    <glyph glyph-name="f_ldot" horiz-adv-x="739" 
d="M65 468h78l24 119q15 76 79 125t140 49q75 0 114 -41l6 30h86l-145 -750h-86l124 639q-25 46 -92 46q-52 0 -93 -32.5t-51 -86.5l-20 -98h139l-14 -76h-139l-131 -674h-86l131 674h-78zM630 379q4 23 24 39.5t43 16.5t36.5 -16.5t8.5 -39.5q-4 -23 -24 -39.5t-43 -16.5
t-36.5 16.5t-8.5 39.5z" />
    <glyph glyph-name="f_f_lslash" horiz-adv-x="913" 
d="M483 709l-54 -67q-30 28 -72 28t-71 -31t-41 -91l-16 -80h219l24 119q15 76 79 125t140 49q75 0 114 -41l6 30h86l-70 -361l94 56l27 -56l-137 -82l-59 -307h-86l48 249l-94 -56l-27 56l137 82l60 308q-25 46 -92 46q-52 0 -93 -32.5t-51 -86.5l-20 -98h139l-14 -76h-139
l-131 -674h-86l131 674h-219l-131 -674h-86l131 674h-78l14 76h78l16 80q19 94 76 146t137 52q66 0 111 -37z" />
    <glyph glyph-name="f_lslash" horiz-adv-x="608" 
d="M65 468h78l24 119q15 76 79 125t140 49q75 0 114 -41l6 30h86l-70 -361l94 56l27 -56l-137 -82l-59 -307h-86l48 249l-94 -56l-27 56l137 82l60 308q-25 46 -92 46q-52 0 -93 -32.5t-51 -86.5l-20 -98h139l-14 -76h-139l-131 -674h-86l131 674h-78z" />
    <glyph glyph-name="f_f_tbar" horiz-adv-x="933" 
d="M701 225h-65l13 68h65l20 99h-214l-131 -674h-86l131 674h-219l-131 -674h-86l131 674h-78l14 76h78l16 80q19 94 76 146t137 52q66 0 111 -37l-54 -67q-30 28 -72 28t-71 -31t-41 -91l-16 -80h219l20 102q18 91 68 141t129 50q81 0 116 -63l-73 -51q-14 38 -57 38
q-75 0 -97 -116l-20 -101h214l26 132h86l-26 -132h119l-14 -76h-119l-20 -99h100l-13 -68h-100l-43 -225h-86z" />
    <glyph glyph-name="f_tbar" horiz-adv-x="628" 
d="M51 392l14 76h78l20 102q18 91 68 141t129 50q81 0 116 -63l-73 -51q-14 38 -57 38q-75 0 -97 -116l-20 -101h214l26 132h86l-26 -132h119l-14 -76h-119l-20 -99h100l-13 -68h-100l-43 -225h-86l43 225h-65l13 68h65l20 99h-214l-131 -674h-86l131 674h-78z" />
    <glyph glyph-name="f_tcaron" horiz-adv-x="777" 
d="M670 508l105 234l80 -27l-136 -223zM249 569l-20 -101h214l26 132h86l-26 -132h119l-14 -76h-119l-76 -392h-86l76 392h-214l-131 -674h-86l131 674h-78l14 76h78l20 102q18 91 68 141t129 50q81 0 116 -63l-73 -51q-14 38 -57 38q-75 0 -97 -116z" />
    <glyph glyph-name="f_f_tcaron" horiz-adv-x="1082" 
d="M975 508l105 234l80 -27l-136 -223zM245 548l-16 -80h219l20 102q18 91 68 141t129 50q81 0 116 -63l-73 -51q-14 38 -57 38q-75 0 -97 -116l-20 -101h214l26 132h86l-26 -132h119l-14 -76h-119l-76 -392h-86l76 392h-214l-131 -674h-86l131 674h-219l-131 -674h-86
l131 674h-78l14 76h78l16 80q19 94 76 146t137 52q66 0 111 -37l-54 -67q-30 28 -72 28t-71 -31t-41 -91z" />
    <glyph glyph-name="f_uni021B" horiz-adv-x="628" 
d="M260 -267l88 200l81 -27l-116 -189zM249 569l-20 -101h214l26 132h86l-26 -132h119l-14 -76h-119l-76 -392h-86l76 392h-214l-131 -674h-86l131 674h-78l14 76h78l20 102q18 91 68 141t129 50q81 0 116 -63l-73 -51q-14 38 -57 38q-75 0 -97 -116z" />
    <glyph glyph-name="f_f_uni021B" horiz-adv-x="933" 
d="M565 -267l88 200l81 -27l-116 -189zM245 548l-16 -80h219l20 102q18 91 68 141t129 50q81 0 116 -63l-73 -51q-14 38 -57 38q-75 0 -97 -116l-20 -101h214l26 132h86l-26 -132h119l-14 -76h-119l-76 -392h-86l76 392h-214l-131 -674h-86l131 674h-219l-131 -674h-86
l131 674h-78l14 76h78l16 80q19 94 76 146t137 52q66 0 111 -37l-54 -67q-30 28 -72 28t-71 -31t-41 -91z" />
    <glyph glyph-name="t_uni021B" horiz-adv-x="618" 
d="M251 -267l88 200l81 -27l-116 -189zM255 600l-26 -132h204l26 132h86l-26 -132h119l-14 -76h-119l-76 -392h-86l76 392h-204l-76 -392h-86l76 392h-78l14 76h78l26 132h86z" />
    <glyph glyph-name="uni021B_t" horiz-adv-x="618" 
d="M-40 -267l88 200l81 -27l-116 -189zM255 600l-26 -132h204l26 132h86l-26 -132h119l-14 -76h-119l-76 -392h-86l76 392h-204l-76 -392h-86l76 392h-78l14 76h78l26 132h86z" />
    <glyph glyph-name="uni021B_uni021B" horiz-adv-x="618" 
d="M-40 -267l88 200l81 -27l-116 -189zM251 -267l88 200l81 -27l-116 -189zM255 600l-26 -132h204l26 132h86l-26 -132h119l-14 -76h-119l-76 -392h-86l76 392h-204l-76 -392h-86l76 392h-78l14 76h78l26 132h86z" />
    <glyph glyph-name="f_f_ldot" horiz-adv-x="1044" 
d="M805 720l6 30h86l-145 -750h-86l124 639q-25 46 -92 46q-52 0 -93 -32.5t-51 -86.5l-20 -98h139l-14 -76h-139l-131 -674h-86l131 674h-219l-131 -674h-86l131 674h-78l14 76h78l16 80q19 94 76 146t137 52q66 0 111 -37l-54 -67q-30 28 -72 28t-71 -31t-41 -91l-16 -80
h219l24 119q15 76 79 125t140 49q75 0 114 -41zM935 379q4 23 24 39.5t43 16.5t36.5 -16.5t8.5 -39.5q-4 -23 -24 -39.5t-43 -16.5t-36.5 16.5t-8.5 39.5z" />
    <glyph glyph-name="a.salt" horiz-adv-x="546" 
d="M400 248l2 13q14 70 -15.5 106.5t-96.5 36.5q-81 0 -142 -56l-44 54q92 78 201 78q104 0 154 -55.5t31 -155.5l-52 -269h-86l8 42q-74 -54 -165 -54q-74 0 -121 44.5t-35 111.5q14 68 79 113t139 45q92 0 143 -54zM175 206q-40 -23 -47 -61t23.5 -61.5t84.5 -23.5
t94.5 23.5t47.5 61.5t-24 61.5t-85 23.5t-94 -24z" />
    <glyph glyph-name="g.salt" horiz-adv-x="577" 
d="M-7 -124q15 70 86 113q-44 26 -33 75q10 55 82 83q-53 56 -37 141q17 84 88.5 138t159.5 54q40 0 72 -12h170l-13 -71h-70q26 -49 13 -109q-16 -84 -87.5 -138t-159.5 -54q-47 0 -86 17q-42 -12 -49 -42q-3 -16 16.5 -26.5t60.5 -10.5h59q107 0 165.5 -43.5t44.5 -114.5
q-13 -71 -88.5 -114.5t-182.5 -43.5t-165.5 43.5t-45.5 114.5zM228 373q-41 -32 -51 -85t18.5 -85.5t83.5 -32.5t95.5 32.5t50.5 85.5t-18 85.5t-83 32.5t-96 -33zM389 -124q8 40 -31.5 62t-106.5 22t-115.5 -22t-56.5 -62q-7 -40 32.5 -62t106.5 -22t115.5 22t55.5 62z" />
    <glyph glyph-name="t.salt" horiz-adv-x="395" 
d="M51 392l14 76h93l27 137l93 38l-34 -175h154l-14 -76h-154l-49 -252q-7 -34 4.5 -55t38.5 -21q45 0 79 37l30 -67q-56 -46 -127 -46q-70 0 -97.5 41t-14.5 108l50 255h-93z" />
    <glyph glyph-name="agrave.salt" horiz-adv-x="546" 
d="M388 248l2 13q14 70 -15.5 106.5t-96.5 36.5q-81 0 -142 -56l-44 54q92 78 201 78q104 0 154 -55.5t31 -155.5l-52 -269h-86l8 42q-74 -54 -165 -54q-74 0 -121 44.5t-35 111.5q14 68 79 113t139 45q92 0 143 -54zM163 206q-40 -23 -47 -61t23.5 -61.5t84.5 -23.5
t94.5 23.5t47.5 61.5t-24 61.5t-85 23.5t-94 -24zM249 693l61 51l115 -139l-61 -51z" />
    <glyph glyph-name="aacute.salt" horiz-adv-x="546" 
d="M388 248l2 13q14 70 -15.5 106.5t-96.5 36.5q-81 0 -142 -56l-44 54q92 78 201 78q104 0 154 -55.5t31 -155.5l-52 -269h-86l8 42q-74 -54 -165 -54q-74 0 -121 44.5t-35 111.5q14 68 79 113t139 45q92 0 143 -54zM163 206q-40 -23 -47 -61t23.5 -61.5t84.5 -23.5
t94.5 23.5t47.5 61.5t-24 61.5t-85 23.5t-94 -24zM409 744l41 -51l-169 -139l-41 51z" />
    <glyph glyph-name="acircumflex.salt" horiz-adv-x="546" 
d="M388 248l2 13q14 70 -15.5 106.5t-96.5 36.5q-81 0 -142 -56l-44 54q92 78 201 78q104 0 154 -55.5t31 -155.5l-52 -269h-86l8 42q-74 -54 -165 -54q-74 0 -121 44.5t-35 111.5q14 68 79 113t139 45q92 0 143 -54zM163 206q-40 -23 -47 -61t23.5 -61.5t84.5 -23.5
t94.5 23.5t47.5 61.5t-24 61.5t-85 23.5t-94 -24zM173 605l169 139h20l115 -139l-61 -51l-82 99l-120 -99z" />
    <glyph glyph-name="atilde.salt" horiz-adv-x="546" 
d="M388 248l2 13q14 70 -15.5 106.5t-96.5 36.5q-81 0 -142 -56l-44 54q92 78 201 78q104 0 154 -55.5t31 -155.5l-52 -269h-86l8 42q-74 -54 -165 -54q-74 0 -121 44.5t-35 111.5q14 68 79 113t139 45q92 0 143 -54zM163 206q-40 -23 -47 -61t23.5 -61.5t84.5 -23.5
t94.5 23.5t47.5 61.5t-24 61.5t-85 23.5t-94 -24zM316 620q-19 21 -39 21q-28 0 -43 -49l-66 21q15 46 48.5 73.5t71.5 27.5q43 0 75 -34q19 -21 39 -21q28 0 43 49l66 -21q-15 -46 -49 -73.5t-72 -27.5q-42 0 -74 34z" />
    <glyph glyph-name="adieresis.salt" horiz-adv-x="546" 
d="M400 248l2 13q14 70 -15.5 106.5t-96.5 36.5q-81 0 -142 -56l-44 54q92 78 201 78q104 0 154 -55.5t31 -155.5l-52 -269h-86l8 42q-74 -54 -165 -54q-74 0 -121 44.5t-35 111.5q14 68 79 113t139 45q92 0 143 -54zM175 206q-40 -23 -47 -61t23.5 -61.5t84.5 -23.5
t94.5 23.5t47.5 61.5t-24 61.5t-85 23.5t-94 -24zM203 649q4 23 24 39.5t43 16.5t36.5 -16.5t8.5 -39.5q-4 -23 -24 -39.5t-43 -16.5t-36.5 16.5t-8.5 39.5zM391 649q4 23 24 39.5t43 16.5t36.5 -16.5t8.5 -39.5q-4 -23 -24 -39.5t-43 -16.5t-36.5 16.5t-8.5 39.5z" />
    <glyph glyph-name="aring.salt" horiz-adv-x="546" 
d="M388 248l2 13q14 70 -15.5 106.5t-96.5 36.5q-81 0 -142 -56l-44 54q92 78 201 78q104 0 154 -55.5t31 -155.5l-52 -269h-86l8 42q-74 -54 -165 -54q-74 0 -121 44.5t-35 111.5q14 68 79 113t139 45q92 0 143 -54zM163 206q-40 -23 -47 -61t23.5 -61.5t84.5 -23.5
t94.5 23.5t47.5 61.5t-24 61.5t-85 23.5t-94 -24zM294 649q-5 -20 6 -34t31 -14t36 14t21 34q4 20 -7 34t-31 14t-36 -14t-20 -34zM235 649q8 44 45 74t81 30t69 -29.5t17 -74.5q-9 -44 -46 -74t-81 -30t-69 30t-16 74z" />
    <glyph glyph-name="amacron.salt" horiz-adv-x="546" 
d="M388 248l2 13q14 70 -15.5 106.5t-96.5 36.5q-81 0 -142 -56l-44 54q92 78 201 78q104 0 154 -55.5t31 -155.5l-52 -269h-86l8 42q-74 -54 -165 -54q-74 0 -121 44.5t-35 111.5q14 68 79 113t139 45q92 0 143 -54zM163 206q-40 -23 -47 -61t23.5 -61.5t84.5 -23.5
t94.5 23.5t47.5 61.5t-24 61.5t-85 23.5t-94 -24zM214 613l14 72h272l-14 -72h-272z" />
    <glyph glyph-name="abreve.salt" horiz-adv-x="546" 
d="M388 248l2 13q14 70 -15.5 106.5t-96.5 36.5q-81 0 -142 -56l-44 54q92 78 201 78q104 0 154 -55.5t31 -155.5l-52 -269h-86l8 42q-74 -54 -165 -54q-74 0 -121 44.5t-35 111.5q14 68 79 113t139 45q92 0 143 -54zM163 206q-40 -23 -47 -61t23.5 -61.5t84.5 -23.5
t94.5 23.5t47.5 61.5t-24 61.5t-85 23.5t-94 -24zM209 715h76q-6 -31 7.5 -56t44.5 -25t53.5 25t28.5 56h76q-12 -63 -61.5 -108t-110.5 -45t-93.5 45t-20.5 108z" />
    <glyph glyph-name="aogonek.salt" horiz-adv-x="546" 
d="M400 248l2 13q14 70 -15.5 106.5t-96.5 36.5q-81 0 -142 -56l-44 54q92 78 201 78q104 0 154 -55.5t31 -155.5l-52 -269h-13q-68 -51 -79 -103q-5 -27 8 -40t37 -13q20 0 40 14l12 -56q-38 -21 -82 -21q-51 0 -75.5 30.5t-16.5 71.5q13 67 90 117h-7l8 42
q-74 -54 -165 -54q-74 0 -121 44.5t-35 111.5q14 68 79 113t139 45q92 0 143 -54zM175 206q-40 -23 -47 -61t23.5 -61.5t84.5 -23.5t94.5 23.5t47.5 61.5t-24 61.5t-85 23.5t-94 -24z" />
    <glyph glyph-name="gcircumflex.salt" horiz-adv-x="577" 
d="M-20 -124q15 70 86 113q-44 26 -33 75q10 55 82 83q-53 56 -37 141q17 84 88.5 138t159.5 54q40 0 72 -12h170l-13 -71h-70q26 -49 13 -109q-16 -84 -87.5 -138t-159.5 -54q-47 0 -86 17q-42 -12 -49 -42q-3 -16 16.5 -26.5t60.5 -10.5h59q107 0 165.5 -43.5t44.5 -114.5
q-13 -71 -88.5 -114.5t-182.5 -43.5t-165.5 43.5t-45.5 114.5zM215 373q-41 -32 -51 -85t18.5 -85.5t83.5 -32.5t95.5 32.5t50.5 85.5t-18 85.5t-83 32.5t-96 -33zM376 -124q8 40 -31.5 62t-106.5 22t-115.5 -22t-56.5 -62q-7 -40 32.5 -62t106.5 -22t115.5 22t55.5 62z
M194 605l169 139h20l115 -139l-61 -51l-82 99l-120 -99z" />
    <glyph glyph-name="gbreve.salt" horiz-adv-x="577" 
d="M-20 -124q15 70 86 113q-44 26 -33 75q10 55 82 83q-53 56 -37 141q17 84 88.5 138t159.5 54q40 0 72 -12h170l-13 -71h-70q26 -49 13 -109q-16 -84 -87.5 -138t-159.5 -54q-47 0 -86 17q-42 -12 -49 -42q-3 -16 16.5 -26.5t60.5 -10.5h59q107 0 165.5 -43.5t44.5 -114.5
q-13 -71 -88.5 -114.5t-182.5 -43.5t-165.5 43.5t-45.5 114.5zM215 373q-41 -32 -51 -85t18.5 -85.5t83.5 -32.5t95.5 32.5t50.5 85.5t-18 85.5t-83 32.5t-96 -33zM376 -124q8 40 -31.5 62t-106.5 22t-115.5 -22t-56.5 -62q-7 -40 32.5 -62t106.5 -22t115.5 22t55.5 62z
M222 715h76q-6 -31 7.5 -56t44.5 -25t53.5 25t28.5 56h76q-12 -63 -61.5 -108t-110.5 -45t-93.5 45t-20.5 108z" />
    <glyph glyph-name="gdotaccent.salt" horiz-adv-x="577" 
d="M-20 -124q15 70 86 113q-44 26 -33 75q10 55 82 83q-53 56 -37 141q17 84 88.5 138t159.5 54q40 0 72 -12h170l-13 -71h-70q26 -49 13 -109q-16 -84 -87.5 -138t-159.5 -54q-47 0 -86 17q-42 -12 -49 -42q-3 -16 16.5 -26.5t60.5 -10.5h59q107 0 165.5 -43.5t44.5 -114.5
q-13 -71 -88.5 -114.5t-182.5 -43.5t-165.5 43.5t-45.5 114.5zM215 373q-41 -32 -51 -85t18.5 -85.5t83.5 -32.5t95.5 32.5t50.5 85.5t-18 85.5t-83 32.5t-96 -33zM376 -124q8 40 -31.5 62t-106.5 22t-115.5 -22t-56.5 -62q-7 -40 32.5 -62t106.5 -22t115.5 22t55.5 62z
M304 649q4 23 24 39.5t43 16.5t36.5 -16.5t8.5 -39.5q-4 -23 -24 -39.5t-43 -16.5t-36.5 16.5t-8.5 39.5z" />
    <glyph glyph-name="gcommaaccent.salt" horiz-adv-x="577" 
d="M-7 -124q15 70 86 113q-44 26 -33 75q10 55 82 83q-53 56 -37 141q17 84 88.5 138t159.5 54q40 0 72 -12h170l-13 -71h-70q26 -49 13 -109q-16 -84 -87.5 -138t-159.5 -54q-47 0 -86 17q-42 -12 -49 -42q-3 -16 16.5 -26.5t60.5 -10.5h59q107 0 165.5 -43.5t44.5 -114.5
q-13 -71 -88.5 -114.5t-182.5 -43.5t-165.5 43.5t-45.5 114.5zM228 373q-41 -32 -51 -85t18.5 -85.5t83.5 -32.5t95.5 32.5t50.5 85.5t-18 85.5t-83 32.5t-96 -33zM389 -124q8 40 -31.5 62t-106.5 22t-115.5 -22t-56.5 -62q-7 -40 32.5 -62t106.5 -22t115.5 22t55.5 62z
M466 721l-89 -200l-81 27l116 189z" />
    <glyph glyph-name="tcommaaccent.salt" horiz-adv-x="395" 
d="M107 -83l-1 13l44 67q-39 15 -52.5 52t-3.5 88l50 255h-93l14 76h93l27 137l93 38l-34 -175h154l-14 -76h-154l-49 -252q-7 -34 4.5 -55t38.5 -21q45 0 79 37l30 -67q-55 -45 -122 -46l-21 -30q37 -9 55 -34.5t11 -60.5q-8 -41 -47 -71t-101 -30q-45 0 -83 30l44 47
q22 -17 50 -17q25 0 42 12.5t21 32.5q4 24 -15.5 37t-59.5 13z" />
    <glyph glyph-name="tcaron.salt" horiz-adv-x="527" 
d="M51 392l14 76h93l27 137l93 38l-34 -175h154l-14 -76h-154l-49 -252q-7 -34 4.5 -55t38.5 -21q45 0 79 37l30 -67q-56 -46 -127 -46q-70 0 -97.5 41t-14.5 108l50 255h-93zM420 508l105 234l80 -27l-136 -223z" />
    <glyph glyph-name="tbar.salt" horiz-adv-x="395" 
d="M51 392l14 76h93l27 137l93 38l-34 -175h154l-14 -76h-154l-20 -99h95l-13 -68h-95l-16 -85q-7 -34 4.5 -55t38.5 -21q45 0 79 37l30 -67q-56 -46 -127 -46q-70 0 -97.5 41t-14.5 108l17 88h-70l13 68h70l20 99h-93z" />
    <glyph glyph-name="uni021B.salt" horiz-adv-x="395" 
d="M51 392l14 76h93l27 137l93 38l-34 -175h154l-14 -76h-154l-49 -252q-7 -34 4.5 -55t38.5 -21q45 0 79 37l30 -67q-56 -46 -127 -46q-70 0 -97.5 41t-14.5 108l50 255h-93zM32 -267l88 200l81 -27l-116 -189z" />
    <glyph glyph-name="f_t.salt" horiz-adv-x="680" 
d="M249 569l-20 -101h214l27 137l93 38l-34 -175h154l-14 -76h-154l-49 -252q-7 -34 4.5 -55t38.5 -21q45 0 79 37l30 -67q-56 -46 -127 -46q-70 0 -97.5 41t-14.5 108l50 255h-214l-131 -674h-86l131 674h-78l14 76h78l20 102q18 91 68 141t129 50q81 0 116 -63l-73 -51
q-14 38 -57 38q-75 0 -97 -116z" />
    <glyph glyph-name="t_t.salt" horiz-adv-x="708" 
d="M51 392l14 76h93l27 137l93 38l-34 -175h227l27 137l93 38l-34 -175h154l-14 -76h-154l-49 -252q-7 -34 4.5 -55t38.5 -21q45 0 79 37l30 -67q-56 -46 -127 -46q-70 0 -97.5 41t-14.5 108l50 255h-227l-49 -252q-7 -34 4.5 -55t38.5 -21q45 0 79 37l30 -67
q-56 -46 -127 -46q-70 0 -97.5 41t-14.5 108l50 255h-93z" />
    <glyph glyph-name="f_t_t.salt" horiz-adv-x="993" 
d="M249 569l-20 -101h214l27 137l93 38l-34 -175h227l27 137l93 38l-34 -175h154l-14 -76h-154l-49 -252q-7 -34 4.5 -55t38.5 -21q45 0 79 37l30 -67q-56 -46 -127 -46q-70 0 -97.5 41t-14.5 108l50 255h-227l-49 -252q-7 -34 4.5 -55t38.5 -21q45 0 79 37l30 -67
q-56 -46 -127 -46q-70 0 -97.5 41t-14.5 108l50 255h-214l-131 -674h-86l131 674h-78l14 76h78l20 102q18 91 68 141t129 50q81 0 116 -63l-73 -51q-14 38 -57 38q-75 0 -97 -116z" />
    <glyph glyph-name="f_f_t.salt" horiz-adv-x="985" 
d="M245 548l-16 -80h219l20 102q18 91 68 141t129 50q81 0 116 -63l-73 -51q-14 38 -57 38q-75 0 -97 -116l-20 -101h214l27 137l93 38l-34 -175h154l-14 -76h-154l-49 -252q-7 -34 4.5 -55t38.5 -21q45 0 79 37l30 -67q-56 -46 -127 -46q-70 0 -97.5 41t-14.5 108l50 255
h-214l-131 -674h-86l131 674h-219l-131 -674h-86l131 674h-78l14 76h78l16 80q19 94 76 146t137 52q66 0 111 -37l-54 -67q-30 28 -72 28t-71 -31t-41 -91z" />
    <glyph glyph-name="f_f_tbar.salt" horiz-adv-x="985" 
d="M554 569l-20 -101h214l27 137l93 38l-34 -175h154l-14 -76h-154l-20 -99h95l-13 -68h-95l-16 -85q-7 -34 4.5 -55t38.5 -21q45 0 79 37l30 -67q-56 -46 -127 -46q-70 0 -97.5 41t-14.5 108l17 88h-70l13 68h70l20 99h-214l-131 -674h-86l131 674h-219l-131 -674h-86
l131 674h-78l14 76h78l16 80q19 94 76 146t137 52q66 0 111 -37l-54 -67q-30 28 -72 28t-71 -31t-41 -91l-16 -80h219l20 102q18 91 68 141t129 50q81 0 116 -63l-73 -51q-14 38 -57 38q-75 0 -97 -116z" />
    <glyph glyph-name="f_tbar.salt" horiz-adv-x="680" 
d="M51 392l14 76h78l20 102q18 91 68 141t129 50q81 0 116 -63l-73 -51q-14 38 -57 38q-75 0 -97 -116l-20 -101h214l27 137l93 38l-34 -175h154l-14 -76h-154l-20 -99h95l-13 -68h-95l-16 -85q-7 -34 4.5 -55t38.5 -21q45 0 79 37l30 -67q-56 -46 -127 -46q-70 0 -97.5 41
t-14.5 108l17 88h-70l13 68h70l20 99h-214l-131 -674h-86l131 674h-78z" />
    <glyph glyph-name="f_tcaron.salt" horiz-adv-x="812" 
d="M249 569l-20 -101h214l27 137l93 38l-34 -175h154l-14 -76h-154l-49 -252q-7 -34 4.5 -55t38.5 -21q45 0 79 37l30 -67q-56 -46 -127 -46q-70 0 -97.5 41t-14.5 108l50 255h-214l-131 -674h-86l131 674h-78l14 76h78l20 102q18 91 68 141t129 50q81 0 116 -63l-73 -51
q-14 38 -57 38q-75 0 -97 -116zM705 508l105 234l80 -27l-136 -223z" />
    <glyph glyph-name="f_f_tcaron.salt" horiz-adv-x="1117" 
d="M245 548l-16 -80h219l20 102q18 91 68 141t129 50q81 0 116 -63l-73 -51q-14 38 -57 38q-75 0 -97 -116l-20 -101h214l27 137l93 38l-34 -175h154l-14 -76h-154l-49 -252q-7 -34 4.5 -55t38.5 -21q45 0 79 37l30 -67q-56 -46 -127 -46q-70 0 -97.5 41t-14.5 108l50 255
h-214l-131 -674h-86l131 674h-219l-131 -674h-86l131 674h-78l14 76h78l16 80q19 94 76 146t137 52q66 0 111 -37l-54 -67q-30 28 -72 28t-71 -31t-41 -91zM1010 508l105 234l80 -27l-136 -223z" />
    <glyph glyph-name="f_uni021B.salt" horiz-adv-x="680" 
d="M249 569l-20 -101h214l27 137l93 38l-34 -175h154l-14 -76h-154l-49 -252q-7 -34 4.5 -55t38.5 -21q45 0 79 37l30 -67q-56 -46 -127 -46q-70 0 -97.5 41t-14.5 108l50 255h-214l-131 -674h-86l131 674h-78l14 76h78l20 102q18 91 68 141t129 50q81 0 116 -63l-73 -51
q-14 38 -57 38q-75 0 -97 -116zM317 -267l88 200l81 -27l-116 -189z" />
    <glyph glyph-name="f_f_uni021B.salt" horiz-adv-x="985" 
d="M245 548l-16 -80h219l20 102q18 91 68 141t129 50q81 0 116 -63l-73 -51q-14 38 -57 38q-75 0 -97 -116l-20 -101h214l27 137l93 38l-34 -175h154l-14 -76h-154l-49 -252q-7 -34 4.5 -55t38.5 -21q45 0 79 37l30 -67q-56 -46 -127 -46q-70 0 -97.5 41t-14.5 108l50 255
h-214l-131 -674h-86l131 674h-219l-131 -674h-86l131 674h-78l14 76h78l16 80q19 94 76 146t137 52q66 0 111 -37l-54 -67q-30 28 -72 28t-71 -31t-41 -91zM622 -267l88 200l81 -27l-116 -189z" />
    <glyph glyph-name="t_uni021B.salt" horiz-adv-x="708" 
d="M345 -267l88 200l81 -27l-116 -189zM51 392l14 76h93l27 137l93 38l-34 -175h227l27 137l93 38l-34 -175h154l-14 -76h-154l-49 -252q-7 -34 4.5 -55t38.5 -21q45 0 79 37l30 -67q-56 -46 -127 -46q-70 0 -97.5 41t-14.5 108l50 255h-227l-49 -252q-7 -34 4.5 -55
t38.5 -21q45 0 79 37l30 -67q-56 -46 -127 -46q-70 0 -97.5 41t-14.5 108l50 255h-93z" />
    <glyph glyph-name="uni021B_t.salt" horiz-adv-x="708" 
d="M32 -267l88 200l81 -27l-116 -189zM51 392l14 76h93l27 137l93 38l-34 -175h227l27 137l93 38l-34 -175h154l-14 -76h-154l-49 -252q-7 -34 4.5 -55t38.5 -21q45 0 79 37l30 -67q-56 -46 -127 -46q-70 0 -97.5 41t-14.5 108l50 255h-227l-49 -252q-7 -34 4.5 -55
t38.5 -21q45 0 79 37l30 -67q-56 -46 -127 -46q-70 0 -97.5 41t-14.5 108l50 255h-93z" />
    <glyph glyph-name="uni021B_uni021B.salt" horiz-adv-x="708" 
d="M32 -267l88 200l81 -27l-116 -189zM345 -267l88 200l81 -27l-116 -189zM51 392l14 76h93l27 137l93 38l-34 -175h227l27 137l93 38l-34 -175h154l-14 -76h-154l-49 -252q-7 -34 4.5 -55t38.5 -21q45 0 79 37l30 -67q-56 -46 -127 -46q-70 0 -97.5 41t-14.5 108l50 255
h-227l-49 -252q-7 -34 4.5 -55t38.5 -21q45 0 79 37l30 -67q-56 -46 -127 -46q-70 0 -97.5 41t-14.5 108l50 255h-93z" />
    <glyph glyph-name="s_t.salt" horiz-adv-x="738" 
d="M154 64q34 0 57.5 19t28.5 48q6 31 -10.5 52t-61.5 41q-108 48 -91 132q10 53 55.5 88.5t101.5 35.5h2q-30 46 -18 109q13 69 77 120.5t145 51.5q90 0 135.5 -60t27.5 -153l-16 -80h154l-14 -76h-154l-49 -252q-7 -34 4.5 -55t38.5 -21q45 0 79 37l30 -67
q-56 -46 -127 -46q-70 0 -97.5 41t-14.5 108l81 416q13 63 -13.5 101t-79.5 38q-51 0 -90.5 -33.5t-48.5 -81.5q-13 -62 19 -120q26 -20 36 -46l-67 -44q-11 37 -53 37q-21 0 -37.5 -12.5t-19.5 -29.5q-4 -23 11 -39.5t54 -34.5q117 -52 98 -151q-13 -65 -62.5 -107
t-125.5 -42q-48 0 -86 28t-51 76l74 47q19 -75 78 -75z" />
    <glyph glyph-name="f_f_lcaron" horiz-adv-x="999" 
d="M805 720l6 30h86l-145 -750h-86l124 639q-25 46 -92 46q-52 0 -93 -32.5t-51 -86.5l-20 -98h139l-14 -76h-139l-131 -674h-86l131 674h-219l-131 -674h-86l131 674h-78l14 76h78l16 80q19 94 76 146t137 52q66 0 111 -37l-54 -67q-30 28 -72 28t-71 -31t-41 -91l-16 -80
h219l24 119q15 76 79 125t140 49q75 0 114 -41zM892 508l105 234l80 -27l-136 -223z" />
    <glyph glyph-name="f_kcommaaccent" horiz-adv-x="829" 
d="M414 -267l88 200l81 -27l-116 -189zM495 251l283 229l49 -62l-218 -169l172 -199l-74 -62l-212 263l-48 -251h-86l124 639q-25 46 -92 46q-52 0 -93 -32.5t-51 -86.5l-20 -98h139l-14 -76h-139l-131 -674h-86l131 674h-78l14 76h78l24 119q15 76 79 125t140 49
q75 0 114 -41l6 30h86z" />
    <glyph glyph-name="c_b" horiz-adv-x="1136" 
d="M361 480h13q-30 46 -18 109q13 69 74.5 120.5t138.5 51.5q75 0 119 -44l6 33h86l-68 -350q82 80 196 80q102 0 160 -71t38 -175t-106 -175t-188 -71q-117 0 -164 80l-13 -68h-86l123 636q-32 56 -106 56q-54 0 -93.5 -33t-48.5 -82q-13 -61 15 -110q49 -18 83 -54
l-68 -57q-38 48 -108 48t-128 -49.5t-72 -120.5t25 -120.5t109 -49.5q68 0 126 48l46 -57q-86 -67 -187 -67q-104 0 -164.5 71.5t-40.5 174.5t108.5 174.5t192.5 71.5zM1020 234q14 71 -26.5 120.5t-110.5 49.5t-129.5 -49t-73.5 -121q-14 -71 26.5 -120.5t110.5 -49.5
t129.5 49t73.5 121z" />
    <glyph glyph-name="c_h" horiz-adv-x="1041" 
d="M694 750h86l-63 -324q65 54 141 54q73 0 115 -48.5t27 -125.5l-59 -306h-86l55 285q11 55 -16 87t-72 32t-83 -32.5t-48 -81.5l-56 -290h-86l123 636q-32 56 -106 56q-54 0 -93.5 -33t-48.5 -82q-13 -61 15 -110q49 -18 83 -54l-68 -57q-38 48 -108 48t-128 -49.5
t-72 -120.5t25 -120.5t109 -49.5q68 0 126 48l46 -57q-86 -67 -187 -67q-104 0 -164.5 71.5t-40.5 174.5t108.5 174.5t192.5 71.5h13q-30 46 -18 109q13 69 74.5 120.5t138.5 51.5q75 0 119 -44z" />
    <glyph glyph-name="c_k" horiz-adv-x="1005" 
d="M694 750h86l-97 -499l283 229l49 -62l-218 -169l172 -199l-74 -62l-212 263l-48 -251h-86l123 636q-32 56 -106 56q-54 0 -93.5 -33t-48.5 -82q-13 -61 15 -110q49 -18 83 -54l-68 -57q-38 48 -108 48t-128 -49.5t-72 -120.5t25 -120.5t109 -49.5q68 0 126 48l46 -57
q-86 -67 -187 -67q-104 0 -164.5 71.5t-40.5 174.5t108.5 174.5t192.5 71.5h13q-30 46 -18 109q13 69 74.5 120.5t138.5 51.5q75 0 119 -44z" />
    <glyph glyph-name="c_l" horiz-adv-x="740" 
d="M694 750h86l-145 -750h-86l123 636q-32 56 -106 56q-54 0 -93.5 -33t-48.5 -82q-13 -61 15 -110q49 -18 83 -54l-68 -57q-38 48 -108 48t-128 -49.5t-72 -120.5t25 -120.5t109 -49.5q68 0 126 48l46 -57q-86 -67 -187 -67q-104 0 -164.5 71.5t-40.5 174.5t108.5 174.5
t192.5 71.5h13q-30 46 -18 109q13 69 74.5 120.5t138.5 51.5q75 0 119 -44z" />
    <glyph glyph-name="ccedilla_b" horiz-adv-x="1136" 
d="M180 -83l-1 13l41 62q-87 14 -133.5 82t-28.5 160q20 103 108.5 174.5t192.5 71.5h13q-30 46 -18 109q13 69 74.5 120.5t138.5 51.5q75 0 119 -44l6 33h86l-68 -350q82 80 196 80q102 0 160 -71t38 -175t-106 -175t-188 -71q-117 0 -164 80l-13 -68h-86l123 636
q-32 56 -106 56q-54 0 -93.5 -33t-48.5 -82q-13 -61 15 -110q49 -18 83 -54l-68 -57q-38 48 -108 48t-128 -49.5t-72 -120.5t25 -120.5t109 -49.5q68 0 126 48l46 -57q-73 -58 -166 -66l-21 -31q37 -9 55 -34.5t11 -60.5q-8 -41 -47 -71t-101 -30q-45 0 -83 30l44 47
q22 -17 50 -17q25 0 42 12.5t21 32.5q4 24 -15.5 37t-59.5 13zM1018 234q14 71 -26.5 120.5t-110.5 49.5t-129.5 -49t-73.5 -121q-14 -71 26.5 -120.5t110.5 -49.5t129.5 49t73.5 121z" />
    <glyph glyph-name="ccedilla_h" horiz-adv-x="1041" 
d="M180 -83l-1 13l41 62q-87 14 -133.5 82t-28.5 160q20 103 108.5 174.5t192.5 71.5h13q-30 46 -18 109q13 69 74.5 120.5t138.5 51.5q75 0 119 -44l6 33h86l-63 -324q65 54 141 54q73 0 115 -48.5t27 -125.5l-59 -306h-86l55 285q11 55 -16 87t-72 32t-83 -32.5t-48 -81.5
l-56 -290h-86l123 636q-32 56 -106 56q-54 0 -93.5 -33t-48.5 -82q-13 -61 15 -110q49 -18 83 -54l-68 -57q-38 48 -108 48t-128 -49.5t-72 -120.5t25 -120.5t109 -49.5q68 0 126 48l46 -57q-73 -58 -166 -66l-21 -31q37 -9 55 -34.5t11 -60.5q-8 -41 -47 -71t-101 -30
q-45 0 -83 30l44 47q22 -17 50 -17q25 0 42 12.5t21 32.5q4 24 -15.5 37t-59.5 13z" />
    <glyph glyph-name="ccedilla_k" horiz-adv-x="1005" 
d="M180 -83l-1 13l41 62q-87 14 -133.5 82t-28.5 160q20 103 108.5 174.5t192.5 71.5h13q-30 46 -18 109q13 69 74.5 120.5t138.5 51.5q75 0 119 -44l6 33h86l-97 -499l283 229l49 -62l-218 -169l172 -199l-74 -62l-212 263l-48 -251h-86l123 636q-32 56 -106 56
q-54 0 -93.5 -33t-48.5 -82q-13 -61 15 -110q49 -18 83 -54l-68 -57q-38 48 -108 48t-128 -49.5t-72 -120.5t25 -120.5t109 -49.5q68 0 126 48l46 -57q-73 -58 -166 -66l-21 -31q37 -9 55 -34.5t11 -60.5q-8 -41 -47 -71t-101 -30q-45 0 -83 30l44 47q22 -17 50 -17
q25 0 42 12.5t21 32.5q4 24 -15.5 37t-59.5 13z" />
    <glyph glyph-name="ccedilla_l" horiz-adv-x="740" 
d="M692 750h86l-145 -750h-86l123 636q-32 56 -106 56q-54 0 -93.5 -33t-48.5 -82q-13 -61 15 -110q49 -18 83 -54l-68 -57q-38 48 -108 48t-128 -49.5t-72 -120.5t25 -120.5t109 -49.5q68 0 126 48l46 -57q-73 -58 -166 -66l-21 -31q37 -9 55 -34.5t11 -60.5
q-8 -41 -47 -71t-101 -30q-45 0 -83 30l44 47q22 -17 50 -17q25 0 42 12.5t21 32.5q4 24 -15.5 37t-59.5 13l-1 13l41 62q-87 14 -133.5 82t-28.5 160q20 103 108.5 174.5t192.5 71.5h13q-30 46 -18 109q13 69 74.5 120.5t138.5 51.5q75 0 119 -44z" />
    <glyph glyph-name="s_b" horiz-adv-x="1018" 
d="M411 0l123 636q-32 56 -106 56q-54 0 -93.5 -33t-48.5 -82q-14 -65 22 -122q22 -18 33 -44l-67 -44q-11 37 -53 37q-21 0 -37.5 -12.5t-19.5 -29.5q-4 -23 11 -39.5t54 -34.5q117 -52 98 -151q-13 -65 -62.5 -107t-125.5 -42q-48 0 -86 28t-51 76l74 47q19 -75 78 -75
q34 0 57.5 19t28.5 48q6 31 -10.5 52t-61.5 41q-108 48 -91 132q10 53 55.5 88.5t101.5 35.5h2q-30 46 -18 109q13 69 74.5 120.5t138.5 51.5q75 0 119 -44l6 33h86l-68 -350q82 80 196 80q102 0 160 -71t38 -175t-106 -175t-188 -71q-117 0 -164 80l-13 -68h-86zM882 234
q14 71 -26.5 120.5t-110.5 49.5q-69 0 -127.5 -47t-74.5 -116l-1 -7q-14 -71 26.5 -120.5t110.5 -49.5t129.5 49t73.5 121z" />
    <glyph glyph-name="s_h" horiz-adv-x="923" 
d="M717 0l55 285q11 55 -16 87t-72 32q-46 0 -83.5 -32.5t-47.5 -81.5l-56 -290h-86l123 636q-32 56 -106 56q-54 0 -93.5 -33t-48.5 -82q-14 -65 22 -122q22 -18 33 -44l-67 -44q-11 37 -53 37q-21 0 -37.5 -12.5t-19.5 -29.5q-4 -23 11 -39.5t54 -34.5q117 -52 98 -151
q-13 -65 -62.5 -107t-125.5 -42q-48 0 -86 28t-51 76l74 47q19 -75 78 -75q34 0 57.5 19t28.5 48q6 31 -10.5 52t-61.5 41q-108 48 -91 132q10 53 55.5 88.5t101.5 35.5h2q-30 46 -18 109q13 69 74.5 120.5t138.5 51.5q75 0 119 -44l6 33h86l-63 -324q65 54 141 54
q73 0 115 -48.5t27 -125.5l-59 -306h-86z" />
    <glyph glyph-name="s_k" horiz-adv-x="887" 
d="M545 251l283 229l49 -62l-218 -169l172 -199l-74 -62l-212 263l-48 -251h-86l123 636q-32 56 -106 56q-54 0 -93.5 -33t-48.5 -82q-14 -65 22 -122q22 -18 33 -44l-67 -44q-11 37 -53 37q-21 0 -37.5 -12.5t-19.5 -29.5q-4 -23 11 -39.5t54 -34.5q117 -52 98 -151
q-13 -65 -62.5 -107t-125.5 -42q-48 0 -86 28t-51 76l74 47q19 -75 78 -75q34 0 57.5 19t28.5 48q6 31 -10.5 52t-61.5 41q-108 48 -91 132q10 53 55.5 88.5t101.5 35.5h2q-30 46 -18 109q13 69 74.5 120.5t138.5 51.5q75 0 119 -44l6 33h86z" />
    <glyph glyph-name="s_l" horiz-adv-x="622" 
d="M642 750l-145 -750h-86l123 636q-32 56 -106 56q-54 0 -93.5 -33t-48.5 -82q-14 -65 22 -122q22 -18 33 -44l-67 -44q-11 37 -53 37q-21 0 -37.5 -12.5t-19.5 -29.5q-4 -23 11 -39.5t54 -34.5q117 -52 98 -151q-13 -65 -62.5 -107t-125.5 -42q-48 0 -86 28t-51 76l74 47
q19 -75 78 -75q34 0 57.5 19t28.5 48q6 31 -10.5 52t-61.5 41q-108 48 -91 132q10 53 55.5 88.5t101.5 35.5h2q-30 46 -18 109q13 69 74.5 120.5t138.5 51.5q75 0 119 -44l6 33h86z" />
    </font>
</defs>
</svg>
