<?xml version="1.0" standalone="no"?>
<!DOCTYPE svg PUBLIC "-//W3C//DTD SVG 1.1//EN" "http://www.w3.org/Graphics/SVG/1.1/DTD/svg11.dtd" >
<svg xmlns="http://www.w3.org/2000/svg">
<metadata>Generated by IcoMoon</metadata>
<defs>
<font id="icomoon" horiz-adv-x="1024">
<font-face units-per-em="1024" ascent="960" descent="-64" />
<missing-glyph horiz-adv-x="1024" />
<glyph unicode="&#x20;" horiz-adv-x="512" d="" />
<glyph unicode="&#xe900;" glyph-name="instagram-brands" horiz-adv-x="896" d="M448.2 678c-127.2 0-229.8-102.6-229.8-229.8s102.6-229.8 229.8-229.8 229.8 102.6 229.8 229.8-102.6 229.8-229.8 229.8zM448.2 298.8c-82.2 0-149.4 67-149.4 149.4s67 149.4 149.4 149.4 149.4-67 149.4-149.4-67.2-149.4-149.4-149.4zM741 687.4c0-29.8-24-53.6-53.6-53.6-29.8 0-53.6 24-53.6 53.6s24 53.6 53.6 53.6 53.6-24 53.6-53.6zM893.2 633c-3.4 71.8-19.8 135.4-72.4 187.8-52.4 52.4-116 68.8-187.8 72.4-74 4.2-295.8 4.2-369.8 0-71.6-3.4-135.2-19.8-187.8-72.2s-68.8-116-72.4-187.8c-4.2-74-4.2-295.8 0-369.8 3.4-71.8 19.8-135.4 72.4-187.8s116-68.8 187.8-72.4c74-4.2 295.8-4.2 369.8 0 71.8 3.4 135.4 19.8 187.8 72.4 52.4 52.4 68.8 116 72.4 187.8 4.2 74 4.2 295.6 0 369.6zM797.6 184c-15.6-39.2-45.8-69.4-85.2-85.2-59-23.4-199-18-264.2-18s-205.4-5.2-264.2 18c-39.2 15.6-69.4 45.8-85.2 85.2-23.4 59-18 199-18 264.2s-5.2 205.4 18 264.2c15.6 39.2 45.8 69.4 85.2 85.2 59 23.4 199 18 264.2 18s205.4 5.2 264.2-18c39.2-15.6 69.4-45.8 85.2-85.2 23.4-59 18-199 18-264.2s5.4-205.4-18-264.2z" />
<glyph unicode="&#xe901;" glyph-name="linkedin" horiz-adv-x="896" d="M200.56 64h-185.76v598.2h185.76zM107.58 743.8c-59.4 0-107.58 49.2-107.58 108.6 0 59.415 48.165 107.58 107.58 107.58s107.58-48.165 107.58-107.58v0c0-59.4-48.2-108.6-107.58-108.6zM895.8 64h-185.36v291.2c0 69.4-1.4 158.4-96.58 158.4-96.58 0-111.38-75.4-111.38-153.4v-296.2h-185.56v598.2h178.16v-81.6h2.6c24.8 47 85.38 96.6 175.76 96.6 188 0 222.56-123.8 222.56-284.6v-328.6z" />
<glyph unicode="&#xe902;" d="M742.999 324.321v560.752h208.571c0.019 0 0.041 0 0.063 0 13.952 0 27.083-3.513 38.557-9.704l-0.432 0.213c11.569-6.175 21.033-14.927 27.871-25.532l0.177-0.293c6.581-10.179 10.493-22.619 10.493-35.973 0-12.922-3.663-24.989-10.008-35.219l0.165 0.286-45.231-74.652c-0.013-0.033-0.020-0.072-0.020-0.112s0.007-0.079 0.021-0.115l-0.001 0.002-118.884-196.034c-0.116-0.11-0.197-0.256-0.224-0.42l-0.001-0.004z" />
<glyph unicode="&#xe903;" d="M483.453 14.199c-0.155 0.106-0.342 0.178-0.544 0.199h-0.005c-9.624 5.208-17.44 12.663-22.928 21.689l-0.149 0.264-124.354 205.15v643.572h357.501v-643.497l-124.478-205.374c-4.208-6.806-9.506-12.51-15.715-17.041l-0.169-0.118c-6.185-4.529-13.44-8.043-21.28-10.114l-0.449-0.101c-5.023-1.349-10.789-2.124-16.737-2.124-2.656 0-5.277 0.155-7.853 0.455l0.313-0.030c-8.608 0.985-16.441 3.487-23.508 7.241l0.356-0.173z" />
<glyph unicode="&#xe904;" d="M285.271 324.321l-110.892 182.896-0.325 0.724-164.19 270.935c-6.195 9.951-9.868 22.030-9.868 34.966 0 13.351 3.912 25.788 10.651 36.228l-0.159-0.263c7.021 10.901 16.493 19.654 27.674 25.63l0.399 0.195c11.017 5.946 24.113 9.441 38.025 9.441 0.049 0 0.097 0 0.146 0h208.538z" />
<glyph unicode="&#xe905;" d="M742.999 324.321v509.777c1.673-21.204 2.498-42.459 3.572-63.663s1.998-42.459 2.797-63.763q2.173-63.663 2.897-127.376c0.45-21.204 0.45-42.459 0.549-63.763s0.325-42.459 0-63.663q0-48.902-0.899-97.829 20.73 32.468 41.909 64.587c9.691 15.11 19.98 29.971 29.971 44.831s19.98 29.496 30.295 44.082z" />
<glyph unicode="&#xe906;" d="M973.225 704.2c0.674 1.948 7.143 18.307 18.382 41.085 2.897 6.094 6.144 12.713 9.815 19.556 1.773 3.522 3.671 7.043 5.57 10.665 1.049 1.748 1.898 3.621 2.897 5.495l0.674 1.249 0.225 0.624 1.324 2.797c0.774 1.948 1.898 3.871 2.498 5.819l1.449 4.995c0.748 3.034 1.415 6.805 1.857 10.644l0.042 0.445c0.1 1.31 0.157 2.838 0.157 4.379 0 6.57-1.035 12.899-2.95 18.832l0.121-0.433c-2.601 7.961-6.315 14.869-11.032 20.962l0.117-0.157c-4.946 6.064-10.631 11.266-16.982 15.559l-0.276 0.176c-5.911 3.945-12.73 7.21-20 9.444l-0.554 0.147c-1.773 0.425-3.572 0.974-5.22 1.349s-3.596 0.4-5.27 0.724c-3.092 0.541-6.813 0.952-10.592 1.14l-0.223 0.009c-28.647 2.173-47.903 5.37-47.903 5.37h54.222c0.040 0 0.087 0 0.135 0 13.933 0 27.048-3.504 38.511-9.679l-0.433 0.213c11.569-6.175 21.033-14.927 27.871-25.532l0.177-0.293c6.581-10.179 10.493-22.619 10.493-35.973 0-12.922-3.663-24.989-10.008-35.219l0.165 0.286z" />
<glyph unicode="&#xe907;" d="M483.453 14.199c-0.155 0.106-0.342 0.178-0.544 0.199h-0.005c-9.624 5.208-17.44 12.663-22.928 21.689l-0.149 0.264-124.354 205.15v463.223c1.449-19.256 2.348-38.612 3.222-57.868s1.998-38.612 2.498-57.968c1.449-38.612 2.498-77.1 3.022-115.737s1.049-77.225 1.124-115.837v-57.968l-0.45-55.596q33.942-57.619 66.76-115.712c11.139-19.781 22.178-39.436 32.868-59.417l16.159-29.821c2.74-5.246 5.93-9.767 9.634-13.809l-0.043 0.048c3.803-4.173 8.141-7.764 12.928-10.692l0.259-0.147z" />
<glyph unicode="&#xe908;" d="M692.973 339.006c-1.798 22.778-2.797 45.531-4.021 68.208s-1.898 45.556-2.897 68.308l-1.723 68.233-1.049 68.208-0.4 68.308 0.325 68.208 1.124 68.233 1.499 62.114c-22.478 0.724-44.806 1.249-67.209 2.498-24.726 1.249-49.477 1.948-74.153 3.746h148.53z" />
<glyph unicode="&#xe909;" d="M285.271 608.144c-2.997 23.077-4.995 46.155-6.344 69.232s-2.498 46.055-2.997 69.157c-0.325 11.589-0.225 23.077-0.45 34.666s-0.225 23.102 0 34.591 0 23.077 0.574 34.566c0.325 9.216 0.549 18.307 0.899 27.473-15.31 0.674-30.57 1.424-45.955 2.248-18.032 1.449-36.19 2.697-54.272 4.995h108.544z" />
<glyph unicode="&#xe90a;" d="M174.005 507.941l-164.14 270.935c-6.195 9.951-9.868 22.030-9.868 34.966 0 13.351 3.912 25.788 10.651 36.228l-0.159-0.263c7.021 10.901 16.493 19.654 27.674 25.63l0.399 0.195c11.017 5.946 24.113 9.441 38.025 9.441 0.049 0 0.097 0 0.146 0h2.34c-2.091-0.125-4.004-0.348-5.884-0.669l0.315 0.044c-14.203-1.956-26.859-7.407-37.434-15.452l0.195 0.142c-7.915-6.169-14.442-13.707-19.312-22.306l-0.194-0.371c-4.748-8.686-7.54-19.028-7.54-30.021 0-0.861 0.017-1.717 0.051-2.569l-0.004 0.122c0.292-6.354 1.577-12.323 3.703-17.874l-0.132 0.392c1.052-3.382 2.357-6.31 3.956-9.045l-0.11 0.204c1.324-2.697 2.997-5.694 4.995-8.891 7.493-12.313 15.685-24.976 23.527-38.088s15.685-26.399 23.727-39.636 15.485-26.824 23.077-39.961 14.811-26.274 21.954-38.912c14.161-25.225 26.974-49.177 37.463-69.657 9.316-17.658 16.908-32.993 22.578-44.581z" />
<glyph unicode="&#xe90b;" d="M822.147 521.928c5.57 16.559 10.814 32.593 15.685 48.228v0 0c25.873 76.395 47.3 167.149 60.359 260.585l0.931 8.128v0.175c0.574 4.995 1.124 9.99 1.673 14.985h50.775c0.032 0 0.071 0 0.109 0 11.786 0 22.519-4.508 30.569-11.894l-0.033 0.030c7.742-7.091 12.603-17.218 12.688-28.482v-0.015c-0.046-7.255-2.161-14.008-5.784-19.707l0.090 0.151-42.858-71.006-6.569-6.094v-4.745l-112.39-185.369z" />
<glyph unicode="&#xe90c;" d="M819 512.937c0.674 1.773 1.224 3.522 1.798 5.195v-2.273z" />
<glyph unicode="&#xe90d;" d="M499.862 41.222l-1.773 1.024c-3.716 2.351-6.754 5.445-8.972 9.094l-0.069 0.122-10.814 17.908c2.772 9.416 5.57 18.857 8.242 28.372 0.020 0.079 0.032 0.169 0.032 0.262s-0.012 0.183-0.033 0.27l0.002-0.008c0.116 0.178 0.196 0.389 0.224 0.617l0.001 0.007c59.633 216.566 93.952 465.251 94.058 721.935v0.759c0 11.064 0.225 21.829 0.225 32.468h78.573v-604.285l-120.083-198.331c-3.977-6.196-10.092-10.724-17.282-12.569l-0.201-0.044c-2.375-0.647-5.102-1.019-7.916-1.019-5.187 0-10.079 1.263-14.386 3.498l0.174-0.082z" />
<glyph unicode="&#xe90e;" d="M251.829 442.705l-22.978 37.763c-15.385 138.536-53.881 264.894-111.689 379.871l2.92-6.41h131.746z" />
<glyph unicode="&#xe90f;" d="M822.122 521.928l-1.349-3.721c-0.574-1.648-1.124-3.422-1.773-5.195z" />
<glyph unicode="&#xe910;" d="M837.957 570.381c25.82 76.327 47.203 167.009 60.236 260.365l0.929 8.122c0.093-3.018 0.147-6.568 0.147-10.13 0-11.383-0.543-22.638-1.605-33.743l0.109 1.415c-0.899-12.937-2.772-28.048-5.22-44.182-1.449-7.967-2.498-16.259-4.471-24.651s-3.572-16.859-5.345-25.35c-4.171-16.958-8.442-33.842-13.337-49.427s-9.815-29.971-14.386-42.234c-8.716-23.127-16.184-38.437-17.058-40.186z" />
<glyph unicode="&#xe911;" d="M486.8 98.866c59.603 216.575 93.887 465.265 93.958 721.952v0.767c0 0.974 0 1.349 0 1.349s0.325-11.489 1.124-31.469c0.325-19.98 1.224-48.752 0.549-83.119-0.45-17.183-0.874-35.815-1.449-55.471s-1.449-40.485-3.022-61.915-2.997-43.682-4.995-66.135-4.471-45.331-7.318-68.108-6.269-45.556-9.391-67.934c-3.671-22.328-7.243-44.307-11.364-65.511s-8.242-41.609-12.688-60.866-8.816-37.463-12.937-54.247-8.592-31.994-12.363-45.431-7.493-25.225-10.44-34.966c-5.195-15.46-8.542-25.6-9.666-28.897z" />
<glyph unicode="&#xe912;" d="M251.829 472.326s-0.774 5.694-1.648 15.735-2.248 24.276-3.147 41.41-1.998 37.264-2.498 58.693-0.774 44.307-1.049 67.184c0.225 22.878 0.325 45.755 1.049 67.284s1.449 41.41 2.498 58.593 2.498 31.469 3.147 41.509 1.648 15.735 1.648 15.735z" />
<glyph unicode="&#xe913;" glyph-name="menu" d="M512 699.208c0.005-0.209 0.007-0.456 0.007-0.703 0-18.986-15.197-34.423-34.091-34.809l-0.036-0.001h-443.761c-18.93 0.387-34.127 15.823-34.127 34.809 0 0.247 0.003 0.494 0.008 0.74l-0.001-0.037c-0.005 0.209-0.007 0.456-0.007 0.703 0 18.986 15.197 34.423 34.091 34.809l0.036 0.001h443.761c18.93-0.387 34.127-15.823 34.127-34.809 0-0.247-0.003-0.494-0.008-0.74l0.001 0.037zM1024 450.744c0.005-0.209 0.007-0.456 0.007-0.703 0-18.986-15.197-34.423-34.091-34.809l-0.036-0.001h-955.761c-19.087 0.669-34.306 16.303-34.306 35.492s15.219 34.823 34.245 35.49l0.061 0.002h955.761c18.929-0.387 34.126-15.823 34.126-34.809 0-0.233-0.002-0.465-0.007-0.697l0.001 0.035zM1024 202.24c0.005-0.209 0.007-0.456 0.007-0.703 0-18.986-15.197-34.423-34.091-34.809l-0.036-0.001h-443.761c-19.087 0.669-34.306 16.303-34.306 35.492s15.219 34.823 34.245 35.49l0.061 0.002h443.761c18.929-0.387 34.126-15.823 34.126-34.809 0-0.233-0.002-0.465-0.007-0.697l0.001 0.035z" />
<glyph unicode="&#xe914;" glyph-name="arrow-right" d="M260.169 943.616l-33.792-33.573c-10.115-10.146-16.369-24.146-16.369-39.607s6.254-29.461 16.371-39.608l382.609-382.829-383.049-383.049c-10.098-10.154-16.339-24.151-16.339-39.607s6.242-29.453 16.342-39.609l33.57-33.57c10.138-10.133 24.141-16.4 39.607-16.4s29.469 6.267 39.607 16.4v0l457.728 456.119c10.637 10.024 17.429 24.026 17.99 39.616l0.003 0.101c-0.596 15.639-7.383 29.584-17.964 39.543l-0.029 0.027-456.485 455.68c-10.23 10.325-24.407 16.725-40.078 16.75h-0.005c-0.046 0-0.101 0-0.155 0-15.449 0-29.436-6.261-39.561-16.384v0z" />
<glyph unicode="&#xe915;" glyph-name="at" d="M512 944c-274.118 0-496-221.838-496-496 0-274.118 221.838-496 496-496 96.308 0 190.684 28.28 270.816 80.446 24.010 15.63 29.25 48.576 11.104 70.744l-20.354 24.866c-15.342 18.742-42.358 23.334-62.746 10.258-58.98-37.828-128.192-58.314-198.82-58.314-202.916 0-368 165.084-368 368s165.084 368 368 368c200.278 0 368-115.238 368-320 0-77.572-42.186-159.484-116.34-167.386-34.698 0.908-33.82 25.714-26.952 60.048l46.866 242.22c5.732 29.618-16.958 57.118-47.124 57.118h-89.962c0 0 0 0-0.001 0-13.857 0-25.279-10.425-26.851-23.859l-0.012-0.127-0.020-0.184c-29.394 35.802-80.896 43.55-119.942 43.55-149.16 0-275.662-124.468-275.662-302.92 0-130.606 73.57-211.74 192-211.74 53.968 0 114.738 31.274 149.982 76.666 19.044-68.208 81.226-68.206 141.42-68.206 217.816 0 300.598 143.224 300.598 294.82 0 272.694-219.954 448-496 448zM468.64 335.14c-44.498 0-72.14 31.246-72.14 81.542 0 89.986 61.558 145.458 117.26 145.458 44.584 0 71.202-30.482 71.202-81.54 0-90.122-67.75-145.46-116.322-145.46z" />
<glyph unicode="&#xe916;" glyph-name="facebook" horiz-adv-x="640" d="M558.28 384l28.44 185.32h-177.82v120.26c0 50.7 24.84 100.12 104.48 100.12h80.84v157.78s-73.36 12.52-143.5 12.52c-146.44 0-242.16-88.76-242.16-249.44v-141.24h-162.78v-185.32h162.78v-448h200.34v448z" />
<glyph unicode="&#xe917;" glyph-name="next" horiz-adv-x="1896" d="M1000.059-42.421l874.555 877.024c13.949 13.405 22.616 32.218 22.616 53.056 0 40.616-32.926 73.542-73.542 73.542-20.918 0-39.796-8.733-53.187-22.752l-0.027-0.028-822.485-824.847-822.485 824.954c-13.079 12.149-30.665 19.605-49.992 19.605-40.616 0-73.542-32.926-73.542-73.542 0-19.273 7.414-36.815 19.546-49.929l-0.044 0.049 874.555-877.131c13.298-13.343 31.693-21.599 52.016-21.599s38.718 8.256 52.014 21.597l0.002 0.002z" />
<glyph unicode="&#xe918;" glyph-name="prev" horiz-adv-x="1896" d="M1000.059 938.421l874.662-877.024c13.949-13.405 22.616-32.218 22.616-53.056 0-40.616-32.926-73.542-73.542-73.542-20.918 0-39.796 8.733-53.187 22.752l-0.027 0.028-822.485 824.847-822.593-824.954c-13.186-12.645-31.118-20.431-50.868-20.431-40.616 0-73.542 32.926-73.542 73.542 0 19.724 7.765 37.634 20.404 50.841l-0.026-0.027 874.555 877.024c13.298 13.343 31.693 21.599 52.016 21.599s38.718-8.256 52.014-21.597l0.002-0.002z" />
</font>
</defs>
</svg>
