<svg xmlns="http://www.w3.org/2000/svg" width="15.644" height="15.644" viewBox="0 0 15.644 15.644">
  <g id="Group_1" data-name="Group 1" transform="translate(-3.048 2.518)">
    <path id="Path_19" data-name="Path 19" d="M20.689.717a.7.7,0,0,1-.69.717H.69A.7.7,0,0,1,0,.717.7.7,0,0,1,.69,0H20A.7.7,0,0,1,20.689.717Z" transform="translate(4.063 -2.518) rotate(45)" fill="#fff" fill-rule="evenodd"/>
    <path id="Path_87" data-name="Path 87" d="M20.689.717A.7.7,0,0,0,20,0H.69A.7.7,0,0,0,0,.717a.7.7,0,0,0,.69.717H20A.7.7,0,0,0,20.689.717Z" transform="translate(18.692 -1.504) rotate(135)" fill="#fff" fill-rule="evenodd"/>
  </g>
</svg>
