<svg xmlns="http://www.w3.org/2000/svg" width="69.492" height="69.492" viewBox="0 0 69.492 69.492">
  <g id="advisor" transform="translate(0.5 0.5)">
    <path id="Path_33" data-name="Path 33" d="M62.363,259.6l-2.765-.96a6.677,6.677,0,0,0,2.543-5.243v-2.026a6.687,6.687,0,0,0-13.374,0V253.4a6.677,6.677,0,0,0,2.544,5.243l-2.765.96a9.107,9.107,0,0,0-4.332,3.186H36.745v-2.948a9.125,9.125,0,0,0-6.128-8.614l-2.765-.96a6.677,6.677,0,0,0,2.544-5.243V243a6.687,6.687,0,1,0-13.374,0v2.026a6.678,6.678,0,0,0,2.543,5.243l-2.765.96a9.125,9.125,0,0,0-6.128,8.614v2.948H1.013A1.013,1.013,0,0,0,0,263.8v8.375a1.013,1.013,0,0,0,1.013,1.013H43.161a.925.925,0,0,1,.27,0H67.478a1.013,1.013,0,0,0,1.013-1.013v-3.961a9.126,9.126,0,0,0-6.128-8.614Zm-11.569-8.229a4.661,4.661,0,1,1,9.321,0V253.4a4.661,4.661,0,1,1-9.321,0ZM19.047,243a4.661,4.661,0,1,1,9.321,0v2.026a4.661,4.661,0,1,1-9.321,0Zm6.786,8.714.984.342-3.11,5.4-3.11-5.4.984-.342ZM12.7,259.839a7.1,7.1,0,0,1,4.766-6.7l1.185-.411,4.181,7.255a1.013,1.013,0,0,0,1.756,0l4.181-7.255,1.185.411a7.1,7.1,0,0,1,4.766,6.7v2.948H12.7ZM2.026,264.813H43.079a9.086,9.086,0,0,0-.66,3.4v2.948H2.026Zm64.439,6.349H44.445v-2.948a7.1,7.1,0,0,1,4.766-6.7l4.118-1.43H57.58l4.118,1.43a7.1,7.1,0,0,1,4.766,6.7Zm0,0" transform="translate(0.001 -204.697)" fill="#005cdb" stroke="#005cdb" stroke-width="1"/>
    <path id="Path_34" data-name="Path 34" d="M62.074,7.295H51.782a1.013,1.013,0,0,0,0,2.026H62.074a4.4,4.4,0,0,1,4.39,4.391V27.761a4.4,4.4,0,0,1-4.39,4.39H48.16a1.013,1.013,0,0,0-1.013,1.013v4.309l-5.025-5.025a1.013,1.013,0,0,0-.716-.3H33.165a4.4,4.4,0,0,1-4.391-4.39V13.712a4.4,4.4,0,0,1,4.391-4.39H47.045a1.013,1.013,0,1,0,0-2.026h-5.3V6.417A6.424,6.424,0,0,0,35.326,0H6.416A6.424,6.424,0,0,0,0,6.417v2.24a1.013,1.013,0,1,0,2.026,0V6.417a4.4,4.4,0,0,1,4.39-4.39h28.91a4.4,4.4,0,0,1,4.39,4.39v.878H33.165a6.424,6.424,0,0,0-6.417,6.417V24.857h-10.6A1.013,1.013,0,0,0,15.13,25.87v4.309l-5.025-5.025a1.013,1.013,0,0,0-.716-.3H6.416a4.4,4.4,0,0,1-4.39-4.39v-7.1a1.013,1.013,0,1,0-2.026,0v7.1a6.424,6.424,0,0,0,6.417,6.417H8.969l6.458,6.458a1.013,1.013,0,0,0,1.73-.716V26.883h9.591v.878a6.424,6.424,0,0,0,6.417,6.416h7.821l6.458,6.458a1.013,1.013,0,0,0,1.73-.716V34.178h12.9a6.424,6.424,0,0,0,6.417-6.416V13.712a6.424,6.424,0,0,0-6.417-6.417Zm0,0" transform="translate(0.001 0)" fill="#fff" stroke="#fff" stroke-width="1"/>
  </g>
</svg>
