<svg xmlns="http://www.w3.org/2000/svg" width="12.869" height="13.647" viewBox="0 0 12.869 13.647">
  <g id="Group_500" data-name="Group 500" transform="translate(0.56 -7.329)">
    <g id="Group_452" data-name="Group 452" transform="translate(5 7.887)">
      <g id="next_1_" data-name="next (1)" transform="translate(0 0)">
        <g id="Group_446" data-name="Group 446">
          <path id="Path_1123" data-name="Path 1123" d="M102.438,5.921,108.224.136a.482.482,0,0,1,.682.682l-5.445,5.445,5.445,5.445a.482.482,0,0,1-.682.682L102.438,6.6A.482.482,0,0,1,102.438,5.921Z" transform="translate(-102.297 0)" fill="#005cdb" stroke="#005cdb" stroke-width="1"/>
        </g>
      </g>
    </g>
    <path id="Path_1123-2" data-name="Path 1123" d="M102.438,5.921,108.224.136a.482.482,0,0,1,.682.682l-5.445,5.445,5.445,5.445a.482.482,0,0,1-.682.682L102.438,6.6A.482.482,0,0,1,102.438,5.921Z" transform="translate(-102.297 7.887)" fill="#005cdb" stroke="#005cdb" stroke-width="1"/>
  </g>
</svg>
