<svg xmlns="http://www.w3.org/2000/svg" width="12.869" height="13.647" viewBox="0 0 12.869 13.647">
  <g id="Group_501" data-name="Group 501" transform="translate(-297.44 -7.329)">
    <g id="Group_449" data-name="Group 449" transform="translate(298 7.887)">
      <g id="next_1_" data-name="next (1)" transform="translate(0 0)">
        <g id="Group_446" data-name="Group 446">
          <path id="Path_1123" data-name="Path 1123" d="M108.905,5.921,103.12.136a.482.482,0,0,0-.682.682l5.445,5.445-5.445,5.445a.482.482,0,0,0,.682.682L108.905,6.6A.482.482,0,0,0,108.905,5.921Z" transform="translate(-102.297 0)" fill="#005cdb" stroke="#005cdb" stroke-width="1"/>
        </g>
      </g>
    </g>
    <path id="Path_1123-2" data-name="Path 1123" d="M108.905,5.921,103.12.136a.482.482,0,0,0-.682.682l5.445,5.445-5.445,5.445a.482.482,0,0,0,.682.682L108.905,6.6A.482.482,0,0,0,108.905,5.921Z" transform="translate(200.703 7.887)" fill="#005cdb" stroke="#005cdb" stroke-width="1"/>
  </g>
</svg>
