<svg id="instagram_3_" data-name="instagram (3)" xmlns="http://www.w3.org/2000/svg" width="17.398" height="17.401" viewBox="0 0 17.398 17.401">
  <path id="Path_99" data-name="Path 99" d="M17.8,5.116A6.358,6.358,0,0,0,17.4,3,4.457,4.457,0,0,0,14.851.459a6.375,6.375,0,0,0-2.111-.4C11.809.01,11.513,0,9.151,0S6.493.01,5.564.051a6.36,6.36,0,0,0-2.111.4A4.246,4.246,0,0,0,1.91,1.462,4.284,4.284,0,0,0,.907,3,6.375,6.375,0,0,0,.5,5.112C.459,6.044.449,6.34.449,8.7S.459,11.36.5,12.288A6.358,6.358,0,0,0,.9,14.4,4.457,4.457,0,0,0,3.45,16.945a6.376,6.376,0,0,0,2.111.4c.928.041,1.224.051,3.586.051s2.658-.01,3.586-.051a6.357,6.357,0,0,0,2.111-.4A4.451,4.451,0,0,0,17.391,14.4a6.38,6.38,0,0,0,.4-2.111c.041-.928.051-1.224.051-3.586s0-2.658-.044-3.586Zm-1.567,7.1a4.769,4.769,0,0,1-.3,1.615,2.887,2.887,0,0,1-1.652,1.652,4.786,4.786,0,0,1-1.615.3c-.918.041-1.193.051-3.515.051s-2.6-.01-3.515-.051a4.767,4.767,0,0,1-1.615-.3,2.678,2.678,0,0,1-1-.649,2.705,2.705,0,0,1-.649-1,4.787,4.787,0,0,1-.3-1.615c-.041-.918-.051-1.193-.051-3.515s.01-2.6.051-3.515a4.767,4.767,0,0,1,.3-1.615,2.645,2.645,0,0,1,.653-1,2.7,2.7,0,0,1,1-.649,4.79,4.79,0,0,1,1.615-.3c.918-.041,1.193-.051,3.515-.051s2.6.01,3.515.051a4.77,4.77,0,0,1,1.615.3,2.676,2.676,0,0,1,1,.649,2.7,2.7,0,0,1,.649,1,4.789,4.789,0,0,1,.3,1.615c.041.918.051,1.193.051,3.515s-.01,2.594-.051,3.511Zm0,0" transform="translate(-0.449 0)" fill="#005cdb"/>
  <path id="Path_100" data-name="Path 100" d="M129.419,124.5a4.47,4.47,0,1,0,4.47,4.47A4.471,4.471,0,0,0,129.419,124.5Zm0,7.37a2.9,2.9,0,1,1,2.9-2.9A2.9,2.9,0,0,1,129.419,131.87Zm0,0" transform="translate(-120.717 -120.268)" fill="#005cdb"/>
  <path id="Path_101" data-name="Path 101" d="M364.537,89.645a1.044,1.044,0,1,1-1.044-1.044A1.044,1.044,0,0,1,364.537,89.645Zm0,0" transform="translate(-350.144 -85.59)" fill="#005cdb"/>
</svg>
