<svg xmlns="http://www.w3.org/2000/svg" width="25" height="13.867" viewBox="0 0 25 13.867">
  <g id="Group_1" data-name="Group 1" transform="translate(0 0)">
    <path id="Path_18" data-name="Path 18" d="M12.5.867a.85.85,0,0,1-.833.867H.833A.85.85,0,0,1,0,.867.85.85,0,0,1,.833,0H11.667A.85.85,0,0,1,12.5.867Z" fill="#fff" fill-rule="evenodd"/>
    <path id="Path_19" data-name="Path 19" d="M25,6.933a.85.85,0,0,1-.833.867H.833a.867.867,0,0,1,0-1.733H24.167A.85.85,0,0,1,25,6.933Z" fill="#fff" fill-rule="evenodd"/>
    <path id="Path_20" data-name="Path 20" d="M25,13a.85.85,0,0,1-.833.867H13.333a.867.867,0,0,1,0-1.733H24.167A.85.85,0,0,1,25,13Z" fill="#fff" fill-rule="evenodd"/>
  </g>
</svg>
