<svg xmlns="http://www.w3.org/2000/svg" width="16.247" height="22.179" viewBox="0 0 16.247 22.179">
  <g id="pin_4_" data-name="pin (4)" transform="matrix(1, -0.017, 0.017, 1, -70.562, 1.509)">
    <g id="Group_133" data-name="Group 133" transform="translate(70.573)">
      <path id="Path_92" data-name="Path 92" d="M78.506,0a7.942,7.942,0,0,0-7.933,7.933c0,5.429,7.1,13.4,7.4,13.735a.715.715,0,0,0,1.063,0c.3-.337,7.4-8.306,7.4-13.735A7.942,7.942,0,0,0,78.506,0Zm0,11.925A3.991,3.991,0,1,1,82.5,7.933,4,4,0,0,1,78.506,11.925Z" transform="translate(-70.573)" fill="#005cdb"/>
    </g>
  </g>
</svg>
