<svg xmlns="http://www.w3.org/2000/svg" width="65.839" height="65.871" viewBox="0 0 65.839 65.871">
  <g id="process" transform="translate(0 0)">
    <g id="Group_44" data-name="Group 44" transform="translate(0 0)">
      <g id="Group_43" data-name="Group 43">
        <path id="Path_45" data-name="Path 45" d="M27.886,11.8l-1.92-.847c-.087-.322-.181-.627-.287-.922L26.747,8.2a1.1,1.1,0,0,0,.009-1.088,14.6,14.6,0,0,0-1.871-2.616,1.092,1.092,0,0,0-1.066-.338L21.8,4.615q-.353-.282-.737-.544l-.2-2.138a1.1,1.1,0,0,0-.634-.9A13.965,13.965,0,0,0,17.22.025a1.094,1.094,0,0,0-1.059.359L14.752,2.02h-.846L12.5.384A1.093,1.093,0,0,0,11.437.025,13.98,13.98,0,0,0,8.424,1.037a1.1,1.1,0,0,0-.634.9l-.2,2.136c-.255.174-.5.356-.737.544l-2.02-.462a1.091,1.091,0,0,0-1.066.338A14.579,14.579,0,0,0,1.9,7.107,1.1,1.1,0,0,0,1.91,8.2l1.067,1.837c-.105.294-.2.6-.287.922L.77,11.8a1.1,1.1,0,0,0-.655,1.006v2.988A1.1,1.1,0,0,0,.77,16.8l1.92.847c.087.322.181.627.287.922L1.91,20.406A1.1,1.1,0,0,0,1.9,21.494,14.6,14.6,0,0,0,3.772,24.11a1.1,1.1,0,0,0,1.066.338l2.019-.462q.353.282.737.544l.2,2.138a1.1,1.1,0,0,0,.634.9,13.964,13.964,0,0,0,3.013,1.012,1.1,1.1,0,0,0,1.059-.359L13.9,26.581h.846l1.409,1.636a1.1,1.1,0,0,0,.834.382,1.074,1.074,0,0,0,.226-.024,13.98,13.98,0,0,0,3.013-1.012,1.1,1.1,0,0,0,.634-.9l.2-2.136c.255-.174.5-.356.737-.544l2.019.462a1.094,1.094,0,0,0,1.066-.338,14.579,14.579,0,0,0,1.871-2.616,1.1,1.1,0,0,0-.009-1.088L25.68,18.569c.105-.294.2-.6.287-.922l1.92-.846a1.1,1.1,0,0,0,.655-1.006V12.807A1.1,1.1,0,0,0,27.886,11.8Zm-1.544,3.278-1.756.774a1.1,1.1,0,0,0-.627.76,10.11,10.11,0,0,1-.509,1.632,1.1,1.1,0,0,0,.064.973l1.006,1.735a12.472,12.472,0,0,1-.86,1.2l-1.9-.435a1.09,1.09,0,0,0-.974.247,10.037,10.037,0,0,1-1.349,1,1.1,1.1,0,0,0-.516.835l-.185,2.018a12.167,12.167,0,0,1-1.345.456l-1.3-1.51a1.1,1.1,0,0,0-.834-.382H13.4a1.1,1.1,0,0,0-.834.382l-1.3,1.51a12.184,12.184,0,0,1-1.346-.456L9.736,23.8a1.1,1.1,0,0,0-.516-.833,9.914,9.914,0,0,1-1.348-1A1.091,1.091,0,0,0,6.9,21.72L5,22.155a12.5,12.5,0,0,1-.86-1.2l1.006-1.735a1.1,1.1,0,0,0,.064-.973A10.109,10.109,0,0,1,4.7,16.614a1.1,1.1,0,0,0-.627-.76l-1.756-.774V13.523l1.756-.774a1.1,1.1,0,0,0,.627-.76,10.109,10.109,0,0,1,.509-1.632,1.1,1.1,0,0,0-.064-.973L4.137,7.649A12.47,12.47,0,0,1,5,6.447l1.9.435a1.1,1.1,0,0,0,.974-.247,10.037,10.037,0,0,1,1.349-1A1.1,1.1,0,0,0,9.737,4.8l.185-2.018a12.166,12.166,0,0,1,1.345-.456l1.3,1.51a1.1,1.1,0,0,0,.834.382h1.854a1.1,1.1,0,0,0,.834-.382l1.3-1.51a12.184,12.184,0,0,1,1.346.456L18.92,4.8a1.1,1.1,0,0,0,.516.833,9.915,9.915,0,0,1,1.348,1,1.094,1.094,0,0,0,.974.247l1.9-.435a12.472,12.472,0,0,1,.86,1.2L23.513,9.383a1.1,1.1,0,0,0-.064.973,10.11,10.11,0,0,1,.509,1.632,1.1,1.1,0,0,0,.627.76l1.756.774v1.555Z" transform="translate(-0.115 -0.001)" fill="#fff"/>
      </g>
    </g>
    <g id="Group_46" data-name="Group 46" transform="translate(6.514 6.6)">
      <g id="Group_45" data-name="Group 45">
        <path id="Path_46" data-name="Path 46" d="M55.191,48a7.7,7.7,0,1,0,7.7,7.7A7.7,7.7,0,0,0,55.191,48Zm0,13.2a5.5,5.5,0,1,1,5.5-5.5A5.5,5.5,0,0,1,55.191,61.2Z" transform="translate(-47.491 -48.005)" fill="#005cdb"/>
      </g>
    </g>
    <g id="Group_48" data-name="Group 48" transform="translate(41.783 0)">
      <g id="Group_47" data-name="Group 47">
        <path id="Path_47" data-name="Path 47" d="M327.407,9.848l-1.519-.67c-.059-.213-.123-.417-.192-.616l.846-1.459a1.1,1.1,0,0,0,.009-1.089A12.433,12.433,0,0,0,324.968,3.8a1.092,1.092,0,0,0-1.064-.338l-1.6.365q-.235-.184-.483-.357l-.155-1.695a1.1,1.1,0,0,0-.634-.9,11.908,11.908,0,0,0-2.551-.856,1.093,1.093,0,0,0-1.059.359l-1.119,1.3h-.537l-1.119-1.3a1.091,1.091,0,0,0-1.059-.359,11.9,11.9,0,0,0-2.551.856,1.1,1.1,0,0,0-.634.9l-.155,1.695q-.248.172-.483.357l-1.6-.365A1.1,1.1,0,0,0,307.1,3.8a12.348,12.348,0,0,0-1.582,2.213,1.1,1.1,0,0,0,.009,1.088l.845,1.458q-.1.3-.192.617l-1.519.67a1.1,1.1,0,0,0-.656,1.006v2.49a1.1,1.1,0,0,0,.656,1.006l1.519.67c.059.213.124.417.192.616l-.846,1.459a1.1,1.1,0,0,0-.009,1.089A12.423,12.423,0,0,0,307.1,20.4a1.094,1.094,0,0,0,1.066.338l1.6-.366c.157.123.319.243.484.358l.155,1.695a1.1,1.1,0,0,0,.634.9,11.909,11.909,0,0,0,2.551.856,1.1,1.1,0,0,0,1.059-.359l1.119-1.3h.537l1.119,1.3a1.1,1.1,0,0,0,.834.382,1.073,1.073,0,0,0,.226-.024,11.9,11.9,0,0,0,2.551-.856,1.1,1.1,0,0,0,.634-.9l.155-1.695q.248-.172.483-.357l1.6.365a1.094,1.094,0,0,0,1.064-.338,12.433,12.433,0,0,0,1.583-2.212,1.1,1.1,0,0,0-.009-1.089l-.846-1.459c.069-.2.133-.4.192-.616l1.519-.67a1.1,1.1,0,0,0,.656-1.006v-2.49A1.1,1.1,0,0,0,327.407,9.848Zm-1.544,2.78-1.355.6a1.1,1.1,0,0,0-.628.763,8.211,8.211,0,0,1-.415,1.327,1.1,1.1,0,0,0,.064.974l.783,1.349q-.266.412-.574.8l-1.474-.337a1.088,1.088,0,0,0-.972.247,8.137,8.137,0,0,1-1.1.811,1.1,1.1,0,0,0-.518.836l-.143,1.57c-.3.116-.592.217-.887.3l-1.008-1.17a1.1,1.1,0,0,0-.833-.382h-1.545a1.1,1.1,0,0,0-.833.382l-1.008,1.17c-.3-.084-.592-.185-.887-.3L312.392,20a1.1,1.1,0,0,0-.518-.836,8.072,8.072,0,0,1-1.1-.811,1.107,1.107,0,0,0-.974-.248l-1.473.337c-.205-.259-.4-.527-.574-.8l.783-1.349a1.1,1.1,0,0,0,.065-.974,8.216,8.216,0,0,1-.415-1.327,1.1,1.1,0,0,0-.628-.763l-1.355-.6V11.571l1.355-.6a1.1,1.1,0,0,0,.628-.763,8.269,8.269,0,0,1,.415-1.329,1.1,1.1,0,0,0-.065-.973l-.782-1.349c.176-.274.367-.542.573-.8l1.474.337a1.094,1.094,0,0,0,.972-.247,8.139,8.139,0,0,1,1.1-.811,1.1,1.1,0,0,0,.518-.836l.143-1.57c.3-.116.592-.217.887-.3l1.008,1.17a1.1,1.1,0,0,0,.834.382h1.545a1.1,1.1,0,0,0,.834-.382l1.008-1.17c.3.084.592.185.887.3l.143,1.57a1.1,1.1,0,0,0,.518.836,8.138,8.138,0,0,1,1.1.811,1.092,1.092,0,0,0,.972.247l1.474-.337q.308.39.574.8l-.783,1.349a1.1,1.1,0,0,0-.064.974,8.216,8.216,0,0,1,.415,1.327,1.1,1.1,0,0,0,.628.763l1.355.6Z" transform="translate(-304.007 0.001)" fill="#fff"/>
      </g>
    </g>
    <g id="Group_50" data-name="Group 50" transform="translate(48.311 6.6)">
      <g id="Group_49" data-name="Group 49">
        <path id="Path_48" data-name="Path 48" d="M356.991,48a5.5,5.5,0,1,0,5.5,5.5A5.5,5.5,0,0,0,356.991,48Zm0,8.8a3.3,3.3,0,1,1,3.3-3.3A3.3,3.3,0,0,1,356.991,56.8Z" transform="translate(-351.491 -48.005)" fill="#005cdb"/>
      </g>
    </g>
    <g id="Group_52" data-name="Group 52" transform="translate(33.037 33.124)">
      <g id="Group_51" data-name="Group 51">
        <path id="Path_49" data-name="Path 49" d="M272.276,254.338,270.682,254c-.066-.276-.14-.552-.222-.826l1.222-1.1a1.1,1.1,0,0,0,.278-1.25,16.529,16.529,0,0,0-2.02-3.461,1.1,1.1,0,0,0-1.222-.383l-1.537.5c-.2-.207-.4-.41-.606-.606l.5-1.536a1.1,1.1,0,0,0-.382-1.221,16.462,16.462,0,0,0-3.462-2.023,1.105,1.105,0,0,0-1.25.278l-1.1,1.223c-.274-.084-.55-.158-.826-.223l-.335-1.594a1.1,1.1,0,0,0-1.076-.873H254.9a1.1,1.1,0,0,0-1.076.873l-.335,1.594c-.276.066-.552.14-.826.222l-1.1-1.222a1.1,1.1,0,0,0-1.25-.278,16.529,16.529,0,0,0-3.461,2.02,1.1,1.1,0,0,0-.383,1.222l.5,1.537c-.207.2-.41.4-.606.606l-1.536-.5a1.107,1.107,0,0,0-1.221.382,16.461,16.461,0,0,0-2.023,3.462,1.1,1.1,0,0,0,.278,1.25l1.223,1.1c-.084.274-.158.55-.223.826l-1.594.335a1.1,1.1,0,0,0-.873,1.076v3.751a1.1,1.1,0,0,0,.873,1.076l1.594.335c.066.276.14.552.222.826l-1.222,1.1a1.1,1.1,0,0,0-.278,1.25,16.528,16.528,0,0,0,2.02,3.461,1.1,1.1,0,0,0,1.222.383l1.537-.5c.2.207.4.41.606.606l-.5,1.536a1.1,1.1,0,0,0,.382,1.221,16.462,16.462,0,0,0,3.462,2.023,1.1,1.1,0,0,0,1.25-.278l1.1-1.223c.274.084.55.158.826.223l.335,1.594a1.1,1.1,0,0,0,1.076.873h3.751a1.1,1.1,0,0,0,1.076-.873l.335-1.594c.276-.066.552-.14.826-.222l1.1,1.222a1.1,1.1,0,0,0,1.25.278,16.53,16.53,0,0,0,3.461-2.02,1.1,1.1,0,0,0,.383-1.222l-.5-1.537c.207-.2.41-.4.606-.606l1.536.5a1.1,1.1,0,0,0,1.221-.382,16.461,16.461,0,0,0,2.023-3.462,1.1,1.1,0,0,0-.278-1.25l-1.223-1.1c.084-.274.158-.55.223-.826l1.594-.335a1.1,1.1,0,0,0,.873-1.076v-3.751A1.1,1.1,0,0,0,272.276,254.338Zm-1.327,3.935-1.423.3a1.1,1.1,0,0,0-.856.881,11.962,11.962,0,0,1-.517,1.917,1.1,1.1,0,0,0,.3,1.191l1.154,1.033a14.457,14.457,0,0,1-.972,1.656l-1.453-.478a1.1,1.1,0,0,0-1.184.334,12.021,12.021,0,0,1-1.407,1.408,1.1,1.1,0,0,0-.333,1.183l.478,1.452a14.368,14.368,0,0,1-1.656.972l-1.034-1.154a1.105,1.105,0,0,0-1.192-.3,11.858,11.858,0,0,1-1.915.517,1.1,1.1,0,0,0-.881.856l-.3,1.423h-1.966l-.3-1.423a1.1,1.1,0,0,0-.881-.856,11.973,11.973,0,0,1-1.917-.517h0a1.108,1.108,0,0,0-1.191.3l-1.033,1.154a14.449,14.449,0,0,1-1.656-.972l.478-1.453a1.1,1.1,0,0,0-.334-1.184,12.011,12.011,0,0,1-1.408-1.407,1.105,1.105,0,0,0-1.183-.333l-1.452.478a14.362,14.362,0,0,1-.972-1.656l1.154-1.034a1.1,1.1,0,0,0,.3-1.192,11.844,11.844,0,0,1-.517-1.915,1.1,1.1,0,0,0-.856-.881l-1.423-.3v-1.966l1.423-.3a1.1,1.1,0,0,0,.856-.881,11.967,11.967,0,0,1,.517-1.917,1.1,1.1,0,0,0-.3-1.191l-1.154-1.033a14.449,14.449,0,0,1,.972-1.656l1.453.478a1.1,1.1,0,0,0,1.184-.334,12.012,12.012,0,0,1,1.407-1.408,1.1,1.1,0,0,0,.333-1.183l-.478-1.452a14.355,14.355,0,0,1,1.656-.972l1.034,1.154a1.1,1.1,0,0,0,1.192.3,11.847,11.847,0,0,1,1.915-.517,1.1,1.1,0,0,0,.881-.856l.3-1.423h1.966l.3,1.423a1.1,1.1,0,0,0,.881.856,11.961,11.961,0,0,1,1.917.517,1.1,1.1,0,0,0,1.191-.3l1.033-1.154a14.448,14.448,0,0,1,1.656.972l-.478,1.453a1.1,1.1,0,0,0,.334,1.184A12.014,12.014,0,0,1,266,249.473a1.109,1.109,0,0,0,1.183.333l1.452-.478a14.364,14.364,0,0,1,.972,1.656l-1.154,1.034a1.1,1.1,0,0,0-.3,1.192,11.848,11.848,0,0,1,.517,1.915,1.1,1.1,0,0,0,.856.881l1.423.3Z" transform="translate(-240.402 -240.916)" fill="#fff"/>
      </g>
    </g>
    <g id="Group_54" data-name="Group 54" transform="translate(39.512 39.598)">
      <g id="Group_53" data-name="Group 53">
        <path id="Path_50" data-name="Path 50" d="M297.39,288.005a9.9,9.9,0,1,0,9.9,9.9A9.9,9.9,0,0,0,297.39,288.005Zm0,17.6a7.7,7.7,0,1,1,7.7-7.7A7.709,7.709,0,0,1,297.39,305.6Z" transform="translate(-287.491 -288.005)" fill="#005cdb"/>
      </g>
    </g>
    <g id="Group_56" data-name="Group 56" transform="translate(30.712 12.1)">
      <g id="Group_55" data-name="Group 55">
        <rect id="Rectangle_8" data-name="Rectangle 8" width="8.799" height="2.2" fill="#005cdb"/>
      </g>
    </g>
    <g id="Group_58" data-name="Group 58" transform="translate(5.414 29.699)">
      <g id="Group_57" data-name="Group 57">
        <path id="Path_51" data-name="Path 51" d="M64.7,234.271a1.1,1.1,0,0,0-.579-.579h0l-7.7-3.3A1.1,1.1,0,0,0,54.89,231.4v2.2h-13.2V216h-2.2v18.7a1.1,1.1,0,0,0,1.1,1.1h14.3V238a1.1,1.1,0,0,0,1.1,1.1h0a1.084,1.084,0,0,0,.433-.089l7.7-3.3A1.1,1.1,0,0,0,64.7,234.271Zm-7.611,2.064v-3.263L60.9,234.7Z" transform="translate(-39.491 -216.004)" fill="#005cdb"/>
      </g>
    </g>
    <g id="Group_60" data-name="Group 60" transform="translate(44.234 45.493)">
      <g id="Group_59" data-name="Group 59">
        <path id="Path_52" data-name="Path 52" d="M330.566,330.88l-4.728,5.675-2.448-2.448-1.555,1.555,3.3,3.3a1.1,1.1,0,0,0,.778.322h.049a1.1,1.1,0,0,0,.8-.394l5.5-6.6Z" transform="translate(-321.834 -330.88)" fill="#005cdb"/>
      </g>
    </g>
  </g>
</svg>
