<svg id="programmer" xmlns="http://www.w3.org/2000/svg" width="61.076" height="60.446" viewBox="0 0 61.076 60.446">
  <path id="Path_53" data-name="Path 53" d="M16.593,25.186A12.593,12.593,0,1,1,29.186,12.593,12.607,12.607,0,0,1,16.593,25.186Zm0-21.408a8.815,8.815,0,1,0,8.815,8.815A8.825,8.825,0,0,0,16.593,3.778Z" transform="translate(6.704)" fill="#fff"/>
  <path id="Path_54" data-name="Path 54" d="M22.669,35.927H1.639A1.89,1.89,0,0,1-.25,34.038V23.963A11.977,11.977,0,0,1,11.713,12H34.381a11.9,11.9,0,0,1,9.331,4.46,1.89,1.89,0,0,1-2.947,2.367,8.132,8.132,0,0,0-6.385-3.047H11.713a8.2,8.2,0,0,0-8.185,8.185v8.183H22.669a1.889,1.889,0,1,1,0,3.778Z" transform="translate(0.25 18.223)" fill="#fff"/>
  <path id="Path_55" data-name="Path 55" d="M17.89,36.151a1.77,1.77,0,0,1-.426-.05,1.89,1.89,0,0,1-1.418-2.264l3.778-16.371a1.889,1.889,0,0,1,3.682.849L19.729,34.685A1.884,1.884,0,0,1,17.89,36.151Z" transform="translate(24.926 24.296)" fill="#005cdb"/>
  <path id="Path_56" data-name="Path 56" d="M21.89,32.112a1.889,1.889,0,0,1-1.264-3.294l4.737-4.261-4.737-4.261a1.89,1.89,0,0,1,2.529-2.811l6.3,5.667a1.893,1.893,0,0,1,0,2.811l-6.3,5.667a1.886,1.886,0,0,1-1.264.484Z" transform="translate(31.001 25.816)" fill="#005cdb"/>
  <path id="Path_57" data-name="Path 57" d="M19.185,32.111a1.886,1.886,0,0,1-1.264-.484l-6.3-5.667a1.893,1.893,0,0,1,0-2.811l6.3-5.667a1.89,1.89,0,0,1,2.529,2.811l-4.737,4.261,4.737,4.261a1.889,1.889,0,0,1-1.264,3.294Z" transform="translate(17.334 25.817)" fill="#005cdb"/>
</svg>
