<svg id="support" xmlns="http://www.w3.org/2000/svg" width="65.871" height="65.871" viewBox="0 0 65.871 65.871">
  <path id="Path_61" data-name="Path 61" d="M11.585,50.94a5.371,5.371,0,0,0-2.6.662A30.376,30.376,0,0,1,38.982,3.175a1.287,1.287,0,0,0,.51-2.522A33.181,33.181,0,0,0,32.935,0,32.935,32.935,0,0,0,7.087,53.346a5.406,5.406,0,1,0,4.5-2.406Zm2,7.4a2.83,2.83,0,1,1,.829-2A2.811,2.811,0,0,1,13.586,58.345Zm0,0" transform="translate(0 0.001)" fill="#fff"/>
  <path id="Path_62" data-name="Path 62" d="M230.859,40.45a5.392,5.392,0,1,0-1.9,1.745,30.376,30.376,0,0,1-29.934,48.44,1.287,1.287,0,0,0-.505,2.523,33.2,33.2,0,0,0,6.494.64A32.936,32.936,0,0,0,230.859,40.45Zm-6.5-.994a2.831,2.831,0,1,1,2,.829A2.812,2.812,0,0,1,224.361,39.456Zm0,0" transform="translate(-172.076 -27.927)" fill="#fff"/>
  <path id="Path_63" data-name="Path 63" d="M92.092,119.544a1.287,1.287,0,0,0,1.287,1.287h8.044a1.286,1.286,0,0,0,1.287-1.287V117.05a20.147,20.147,0,0,0,4.829-2l1.761,1.761a1.286,1.286,0,0,0,1.82,0l5.686-5.69a1.287,1.287,0,0,0,0-1.819l-1.759-1.759a20.147,20.147,0,0,0,2-4.829h2.485a1.286,1.286,0,0,0,1.287-1.287V93.381a1.286,1.286,0,0,0-1.287-1.287h-2.485a20.15,20.15,0,0,0-2-4.828l1.749-1.749a1.287,1.287,0,0,0,0-1.82l-5.69-5.686a1.287,1.287,0,0,0-1.819,0l-1.747,1.747a20.147,20.147,0,0,0-4.829-2V75.287A1.286,1.286,0,0,0,101.423,74H93.379a1.287,1.287,0,0,0-1.287,1.287v2.472a20.13,20.13,0,0,0-4.828,2l-1.747-1.747a1.287,1.287,0,0,0-1.819,0L78.008,83.7a1.286,1.286,0,0,0,0,1.82l1.749,1.749a20.144,20.144,0,0,0-2,4.828h-2.48a1.286,1.286,0,0,0-1.287,1.286l0,8.044a1.286,1.286,0,0,0,1.287,1.287h2.485a20.147,20.147,0,0,0,2,4.829L78,109.3a1.287,1.287,0,0,0,0,1.819l5.686,5.69a1.287,1.287,0,0,0,.91.377h0a1.286,1.286,0,0,0,.91-.377l1.76-1.761a20.164,20.164,0,0,0,4.829,2Zm-4.324-7.2a1.287,1.287,0,0,0-1.608.171l-1.566,1.566-3.867-3.87,1.565-1.565a1.286,1.286,0,0,0,.171-1.608,17.61,17.61,0,0,1-2.437-5.881,1.287,1.287,0,0,0-1.258-1.016h-2.21l0-5.471h2.207a1.286,1.286,0,0,0,1.258-1.016,17.611,17.611,0,0,1,2.437-5.881,1.286,1.286,0,0,0-.171-1.608l-1.555-1.555,3.87-3.867,1.553,1.554a1.287,1.287,0,0,0,1.608.171,17.6,17.6,0,0,1,5.881-2.437,1.287,1.287,0,0,0,1.016-1.258v-2.2h5.471v2.2a1.286,1.286,0,0,0,1.016,1.258,17.617,17.617,0,0,1,5.881,2.437,1.285,1.285,0,0,0,1.608-.171L110.2,80.74l3.87,3.867-1.555,1.555a1.286,1.286,0,0,0-.171,1.608,17.622,17.622,0,0,1,2.437,5.881,1.286,1.286,0,0,0,1.258,1.016h2.211v5.471h-2.211a1.287,1.287,0,0,0-1.258,1.016,17.607,17.607,0,0,1-2.437,5.881,1.287,1.287,0,0,0,.171,1.608l1.565,1.565-3.867,3.87-1.566-1.566a1.286,1.286,0,0,0-1.608-.171,17.622,17.622,0,0,1-5.881,2.437,1.286,1.286,0,0,0-1.016,1.258v2.22H94.665v-2.22a1.287,1.287,0,0,0-1.016-1.258A17.611,17.611,0,0,1,87.768,112.343Zm0,0" transform="translate(-64.466 -64.479)" fill="#005cdb"/>
  <path id="Path_64" data-name="Path 64" d="M194.632,184A10.631,10.631,0,1,0,184,194.632,10.643,10.643,0,0,0,194.632,184Zm-18.688,0A8.058,8.058,0,1,1,184,192.059,8.066,8.066,0,0,1,175.944,184Zm0,0" transform="translate(-151.066 -151.066)" fill="#fff"/>
</svg>
