<svg id="team" xmlns="http://www.w3.org/2000/svg" width="64.567" height="64.567" viewBox="0 0 64.567 64.567">
  <g id="Group_82" data-name="Group 82" transform="translate(25.827)">
    <g id="Group_81" data-name="Group 81">
      <path id="Path_67" data-name="Path 67" d="M198.457,0a6.457,6.457,0,1,0,6.457,6.457A6.457,6.457,0,0,0,198.457,0Zm0,10.761a4.3,4.3,0,1,1,4.3-4.3A4.3,4.3,0,0,1,198.457,10.761Z" transform="translate(-192 0)" fill="#fff"/>
    </g>
  </g>
  <g id="Group_84" data-name="Group 84" transform="translate(22.599 13.99)">
    <g id="Group_83" data-name="Group 83">
      <path id="Path_68" data-name="Path 68" d="M181.99,104h-.254l-.227.113a8.578,8.578,0,0,1-7.647,0l-.227-.113h-.254A5.387,5.387,0,0,0,168,109.381v6.457a3.228,3.228,0,0,0,3.228,3.228h12.913a3.228,3.228,0,0,0,3.228-3.228v-6.457A5.387,5.387,0,0,0,181.99,104Zm3.228,11.837a1.076,1.076,0,0,1-1.076,1.076H171.228a1.076,1.076,0,0,1-1.076-1.076v-6.457a3.228,3.228,0,0,1,3-3.22,10.769,10.769,0,0,0,9.067,0,3.228,3.228,0,0,1,3,3.22Z" transform="translate(-168 -104)" fill="#fff"/>
    </g>
  </g>
  <g id="Group_86" data-name="Group 86" transform="translate(48.425 35.512)">
    <g id="Group_85" data-name="Group 85">
      <path id="Path_69" data-name="Path 69" d="M366.457,264a6.457,6.457,0,1,0,6.457,6.457A6.457,6.457,0,0,0,366.457,264Zm0,10.761a4.3,4.3,0,1,1,4.3-4.3A4.3,4.3,0,0,1,366.457,274.761Z" transform="translate(-360 -264)" fill="#fff"/>
    </g>
  </g>
  <g id="Group_88" data-name="Group 88" transform="translate(45.197 49.502)">
    <g id="Group_87" data-name="Group 87">
      <path id="Path_70" data-name="Path 70" d="M349.99,368h-.254l-.227.108a8.579,8.579,0,0,1-7.647,0l-.227-.108h-.254A5.387,5.387,0,0,0,336,373.381v6.457a3.228,3.228,0,0,0,3.228,3.228h12.913a3.228,3.228,0,0,0,3.228-3.228v-6.457A5.387,5.387,0,0,0,349.99,368Zm3.228,11.837a1.076,1.076,0,0,1-1.076,1.076H339.228a1.076,1.076,0,0,1-1.076-1.076v-6.457a3.228,3.228,0,0,1,3-3.22,10.769,10.769,0,0,0,9.067,0,3.228,3.228,0,0,1,3,3.22Z" transform="translate(-336 -368)" fill="#fff"/>
    </g>
  </g>
  <g id="Group_90" data-name="Group 90" transform="translate(3.228 35.512)">
    <g id="Group_89" data-name="Group 89">
      <path id="Path_71" data-name="Path 71" d="M30.457,264a6.457,6.457,0,1,0,6.457,6.457A6.457,6.457,0,0,0,30.457,264Zm0,10.761a4.3,4.3,0,1,1,4.3-4.3A4.3,4.3,0,0,1,30.457,274.761Z" transform="translate(-24 -264)" fill="#fff"/>
    </g>
  </g>
  <g id="Group_92" data-name="Group 92" transform="translate(0 49.502)">
    <g id="Group_91" data-name="Group 91">
      <path id="Path_72" data-name="Path 72" d="M13.99,368h-.254l-.227.108a8.579,8.579,0,0,1-7.647,0L5.635,368H5.381A5.387,5.387,0,0,0,0,373.381v6.457a3.228,3.228,0,0,0,3.228,3.228H16.142a3.228,3.228,0,0,0,3.228-3.228v-6.457A5.387,5.387,0,0,0,13.99,368Zm3.228,11.837a1.076,1.076,0,0,1-1.076,1.076H3.228a1.076,1.076,0,0,1-1.076-1.076v-6.457a3.228,3.228,0,0,1,3-3.22,10.769,10.769,0,0,0,9.067,0,3.228,3.228,0,0,1,3,3.22Z" transform="translate(0 -368)" fill="#fff"/>
    </g>
  </g>
  <g id="Group_94" data-name="Group 94" transform="translate(21.522 52.729)">
    <g id="Group_93" data-name="Group 93">
      <path id="Path_73" data-name="Path 73" d="M181.436,393.916l0,0a1.076,1.076,0,0,0-1.412-.568h0a23.87,23.87,0,0,1-15.349,1.057l1.007-.3a1.076,1.076,0,0,0-.6-2.066l-4.3,1.262c-.016,0-.028.018-.043.024a1.067,1.067,0,0,0-.278.154.927.927,0,0,0-.108.068,1.042,1.042,0,0,0-.264.366,1.078,1.078,0,0,0-.082.444,3.325,3.325,0,0,0,.108.43c.006.015,0,.032.012.047l2.152,4.118a1.077,1.077,0,1,0,1.909-1l-.876-1.674a25.9,25.9,0,0,0,17.561-.956A1.076,1.076,0,0,0,181.436,393.916Z" transform="translate(-159.998 -391.995)" fill="#005cdb"/>
    </g>
  </g>
  <g id="Group_96" data-name="Group 96" transform="translate(40.892 8.424)">
    <g id="Group_95" data-name="Group 95">
      <path id="Path_74" data-name="Path 74" d="M324.129,82.493a1.076,1.076,0,0,0-1.522,0l-1.523,1.523A25.788,25.788,0,0,0,305.5,62.708a1.076,1.076,0,0,0-.844,1.98,23.639,23.639,0,0,1,14.234,19.018l-1.214-1.214a1.076,1.076,0,0,0-1.522,1.522l3.228,3.228a1.076,1.076,0,0,0,1.522,0l0,0,3.228-3.228A1.076,1.076,0,0,0,324.129,82.493Z" transform="translate(-303.998 -62.622)" fill="#005cdb"/>
    </g>
  </g>
  <g id="Group_98" data-name="Group 98" transform="translate(6.457 6.475)">
    <g id="Group_97" data-name="Group 97">
      <path id="Path_75" data-name="Path 75" d="M65.187,50.978a1,1,0,0,0-.028-.186c0-.01-.012-.016-.016-.027s0-.018,0-.027a1.033,1.033,0,0,0-.1-.149,1.087,1.087,0,0,0-.123-.178,1.01,1.01,0,0,0-.21-.143.947.947,0,0,0-.121-.087l-4.3-1.966a1.076,1.076,0,0,0-.893,1.956l2.229,1.019A25.787,25.787,0,0,0,48,73.943a1.076,1.076,0,0,0,2.152,0A23.638,23.638,0,0,1,61.8,53.557l-.778,1.626a1.076,1.076,0,0,0,.5,1.434,1.059,1.059,0,0,0,.466.108,1.076,1.076,0,0,0,.969-.61l2.152-4.491a.049.049,0,0,1,.009-.033,1.035,1.035,0,0,0,.058-.228,1.114,1.114,0,0,0,.041-.178A1.073,1.073,0,0,0,65.187,50.978Z" transform="translate(-48 -48.134)" fill="#005cdb"/>
    </g>
  </g>
</svg>
