<svg id="video-conference_1_" data-name="video-conference (1)" xmlns="http://www.w3.org/2000/svg" width="59.039" height="59.039" viewBox="0 0 59.039 59.039">
  <g id="Group_100" data-name="Group 100">
    <g id="Group_99" data-name="Group 99">
      <path id="Path_76" data-name="Path 76" d="M43.9,42.667a1.23,1.23,0,1,0,1.23,1.23A1.23,1.23,0,0,0,43.9,42.667Z" transform="translate(-37.746 -37.747)" fill="#fff"/>
      <path id="Path_77" data-name="Path 77" d="M131.69,233.013h17.22a1.23,1.23,0,0,0,1.23-1.23V229.16l5.468,3.646a1.224,1.224,0,0,0,.681.207,1.263,1.263,0,0,0,.583-.145,1.231,1.231,0,0,0,.649-1.085v-17.22a1.23,1.23,0,0,0-1.914-1.023l-5.468,3.646v-2.622a1.23,1.23,0,0,0-1.23-1.23H131.69c-3.587,0-3.69,8.834-3.69,9.84S128.1,233.013,131.69,233.013Zm0-17.22h15.99v3.69a1.23,1.23,0,0,0,1.914,1.023l5.468-3.646v12.624l-5.468-3.646a1.23,1.23,0,0,0-1.914,1.023v3.692l-15.768.052c-.489-.352-1.451-2.974-1.451-7.434S131.422,216.091,131.69,215.793Z" transform="translate(-113.24 -188.734)" fill="#005cdb"/>
      <path id="Path_78" data-name="Path 78" d="M86.563,42.667a1.23,1.23,0,1,0,1.23,1.23A1.23,1.23,0,0,0,86.563,42.667Z" transform="translate(-75.493 -37.747)" fill="#fff"/>
      <path id="Path_79" data-name="Path 79" d="M52.889,0H6.15A6.157,6.157,0,0,0,0,6.15V52.889a6.157,6.157,0,0,0,6.15,6.15H52.889a6.157,6.157,0,0,0,6.15-6.15V6.15A6.157,6.157,0,0,0,52.889,0Zm3.69,52.889a3.694,3.694,0,0,1-3.69,3.69H6.15a3.694,3.694,0,0,1-3.69-3.69V12.3H56.579V52.889Zm0-43.049H2.46V6.15A3.694,3.694,0,0,1,6.15,2.46H52.889a3.694,3.694,0,0,1,3.69,3.69V9.84Z" transform="translate(0)" fill="#fff"/>
      <path id="Path_80" data-name="Path 80" d="M129.23,42.667a1.23,1.23,0,1,0,1.23,1.23A1.23,1.23,0,0,0,129.23,42.667Z" transform="translate(-113.24 -37.747)" fill="#fff"/>
    </g>
  </g>
</svg>
