<svg xmlns="http://www.w3.org/2000/svg" width="57.662" height="57.435" viewBox="0 0 57.662 57.435">
  <g id="XMLID_1258_" transform="translate(-123.043 5)">
    <g id="XMLID_1850_" transform="translate(123.043 -5)">
      <g id="growth" transform="translate(0 0)">
        <path id="Path_102" data-name="Path 102" d="M10.96,316.6a.845.845,0,0,0,.845-.845V294.286A2.293,2.293,0,0,0,9.513,292H2.291A2.293,2.293,0,0,0,0,294.286v21.471a.845.845,0,0,0,.845.845ZM1.689,294.286a.6.6,0,0,1,.6-.6H9.513a.6.6,0,0,1,.6.6v20.626H1.689Zm0,0" transform="translate(0 -259.167)" fill="#fff"/>
        <path id="Path_103" data-name="Path 103" d="M138.021,241.7a2.293,2.293,0,0,0-2.291,2.291v27.135a.844.844,0,0,0,.845.845H146.69a.844.844,0,0,0,.845-.845V243.99a2.293,2.293,0,0,0-2.291-2.291Zm7.824,2.291v26.29h-8.426V243.99a.6.6,0,0,1,.6-.6h7.222a.6.6,0,0,1,.6.6Zm0,0" transform="translate(-120.444 -214.535)" fill="#fff"/>
        <path id="Path_104" data-name="Path 104" d="M283.261,226.5V193.7a2.294,2.294,0,0,0-2.291-2.291h-7.222a2.294,2.294,0,0,0-2.291,2.291v32.8a.845.845,0,0,0,.845.845h10.115A.845.845,0,0,0,283.261,226.5Zm-1.689-.845h-8.426V193.7a.6.6,0,0,1,.6-.6h7.222a.6.6,0,0,1,.6.6v31.954Zm0,0" transform="translate(-240.885 -169.906)" fill="#fff"/>
        <path id="Path_105" data-name="Path 105" d="M408.033,182.712h10.115a.845.845,0,0,0,.845-.845V143.4a2.293,2.293,0,0,0-2.291-2.291h-7.222a2.293,2.293,0,0,0-2.291,2.291v38.463A.844.844,0,0,0,408.033,182.712Zm.845-39.308a.6.6,0,0,1,.6-.6H416.7a.6.6,0,0,1,.6.6v37.619h-8.425Zm0,0" transform="translate(-361.33 -125.277)" fill="#fff"/>
        <path id="Path_106" data-name="Path 106" d="M139.367,12.269a1.763,1.763,0,0,0,3.12-.449l2.887-8.676A1.763,1.763,0,0,0,143.764.826L134.626.5a1.762,1.762,0,0,0-1.51,2.767l.954,1.374a84.1,84.1,0,0,1-32.435,10.285.845.845,0,0,0,.088,1.684.89.89,0,0,0,.09,0,85.288,85.288,0,0,0,33.9-10.974.853.853,0,0,0,.26-1.206L134.5,2.306a.073.073,0,0,1,.062-.116l9.138.324a.074.074,0,0,1,.067.1l-2.887,8.676a.074.074,0,0,1-.13.019l-1.307-1.882a.844.844,0,0,0-1.134-.239,76.194,76.194,0,0,1-9.779,4.964A.845.845,0,0,0,129.2,15.7a79.779,79.779,0,0,0,9.315-4.665Zm0,0" transform="translate(-89.518 -0.501)" fill="#005cdb"/>
        <path id="Path_107" data-name="Path 107" d="M28.121,132.827a.845.845,0,0,0-.111-1.685c-1.833.121-3.679.182-5.485.182a.844.844,0,0,0-.845.845v6.069a.845.845,0,0,0,.845.845A94.286,94.286,0,0,0,55.506,133a.845.845,0,0,0-.6-1.58,92.675,92.675,0,0,1-31.539,5.968v-4.379c1.572-.016,3.167-.077,4.752-.182Zm0,0" transform="translate(-19.238 -116.427)" fill="#005cdb"/>
      </g>
    </g>
  </g>
</svg>
