<svg xmlns="http://www.w3.org/2000/svg" width="47.524" height="41.769" viewBox="0 0 47.524 41.769">
  <path id="work_1_" data-name="work (1)" d="M46.141,5.57H33.508V4.177A4.182,4.182,0,0,0,29.332,0H18.193a4.182,4.182,0,0,0-4.177,4.177V5.569H1.393A1.4,1.4,0,0,0,0,6.962V37.592a4.182,4.182,0,0,0,4.177,4.177h39.17a4.182,4.182,0,0,0,4.177-4.177V6.985A1.352,1.352,0,0,0,46.141,5.57ZM16.8,4.177a1.394,1.394,0,0,1,1.392-1.392H29.332a1.394,1.394,0,0,1,1.392,1.392V5.569H16.8ZM44.2,8.354,39.877,21.325a1.39,1.39,0,0,1-1.321.952H30.724V20.885a1.392,1.392,0,0,0-1.392-1.392H18.193A1.392,1.392,0,0,0,16.8,20.885v1.392H8.969a1.39,1.39,0,0,1-1.321-.952L3.324,8.354ZM27.939,22.277v2.785H19.585V22.277Zm16.8,15.315a1.394,1.394,0,0,1-1.392,1.392H4.177a1.394,1.394,0,0,1-1.392-1.392V15.541l2.222,6.664a4.171,4.171,0,0,0,3.962,2.856H16.8v1.392a1.392,1.392,0,0,0,1.392,1.392H29.332a1.392,1.392,0,0,0,1.392-1.392V25.062h7.832a4.171,4.171,0,0,0,3.962-2.856l2.222-6.664Zm0,0" transform="translate(0)" fill="#005cdb"/>
</svg>
