<?xml version="1.0" encoding="UTF-8"?>
<svg width="25px" height="25px" viewBox="0 0 25 25" version="1.1" xmlns="http://www.w3.org/2000/svg" xmlns:xlink="http://www.w3.org/1999/xlink">
    <!-- Generator: Sketch 53.2 (72643) - https://sketchapp.com -->
    <title>Group 12</title>
    <desc>Created with Sketch.</desc>
    <defs>
        <polygon id="path-1" points="0 0.00741091752 24.6364711 0.00741091752 24.6364711 24.9999959 0 24.9999959"></polygon>
    </defs>
    <g id="Page-1" stroke="none" stroke-width="1" fill="none" fill-rule="evenodd">
        <g id="elaqe" transform="translate(-251.000000, -408.000000)">
            <g id="text-nomre" transform="translate(249.000000, 335.000000)">
                <g id="Group-12" transform="translate(2.000000, 73.000000)">
                    <g id="Group-3" transform="translate(0.176056, 0.000000)">
                        <mask id="mask-2" fill="white">
                            <use xlink:href="#path-1"></use>
                        </mask>
                        <g id="Clip-2"></g>
                        <path d="M12.2773065,8.7830069 C11.9654172,8.77538621 11.7588169,8.95383448 11.7382487,9.21331724 C11.7166605,9.4855931 11.88651,9.69317931 12.1622603,9.74331724 C13.6656455,10.016869 14.6168839,10.9033172 15.0160777,12.3979724 C15.1005945,12.7144897 15.3375202,12.8811448 15.6162283,12.810869 C15.8797397,12.7444207 16.0189237,12.4752483 15.9425663,12.1680759 C15.6643341,11.0488 15.0678893,10.1501103 14.1231102,9.49990345 C13.5529111,9.10748966 12.9210413,8.87283448 12.2773065,8.7830069 M12.2337902,6.26635172 C11.943795,6.26093793 11.7242079,6.45907586 11.710677,6.71938621 C11.6970102,6.98248966 11.8895017,7.19848966 12.1587586,7.22962759 C12.3101476,7.24711034 12.4617407,7.26752414 12.6110559,7.29773103 C14.6424837,7.70866207 16.1242127,8.8518 17.0405362,10.7376621 C17.2965682,11.2645241 17.4517309,11.8267655 17.5573259,12.4042483 C17.6038679,12.6588345 17.8096863,12.8022828 18.0649364,12.7830069 C18.2895211,12.7660069 18.4731394,12.5796966 18.4880301,12.342731 C18.4929937,12.2638 18.4827946,12.1817655 18.4666119,12.1039034 C17.9668888,9.69517931 16.6488218,7.93169655 14.4421729,6.87683448 C13.7366994,6.5395931 12.9883895,6.34866207 12.2337902,6.26635172 M12.1800068,3.94793793 C11.8294288,3.93476552 11.6254123,4.05686897 11.5735328,4.31386897 C11.5084284,4.63628276 11.7154366,4.87297241 12.0826391,4.91386897 C12.4304973,4.9525931 12.7817552,4.98186897 13.123188,5.05524828 C16.2554415,5.72845517 18.4266654,7.56735172 19.6087441,10.591731 C19.8595066,11.2332138 20.0106576,11.9026621 20.1079233,12.5853862 C20.14549,12.8493517 20.4003662,13.0290759 20.6526586,12.9835241 C20.9078067,12.9374552 21.0805459,12.6875586 21.0404293,12.4249724 C21.0196571,12.2890414 21.0075542,12.1515586 20.9820223,12.0166276 C20.5377824,9.66811034 19.4568451,7.69011034 17.6315755,6.15752414 C16.0502351,4.82976552 14.2172482,4.1248 12.1800068,3.94793793 M7.32066731,12.8132138 C7.42272657,12.7503862 7.51536863,12.696731 7.60464497,12.6377655 C7.88838465,12.4503517 8.18150753,12.2749034 8.44831666,12.0651448 C8.54721418,11.9873517 8.62323167,11.8321793 8.63890432,11.7034207 C8.66633997,11.4781103 8.66263429,11.2424897 8.63084701,11.0171793 C8.46708305,9.85752414 8.15294998,8.73221379 7.83276542,7.61024828 C7.60998252,6.82969655 6.72976396,6.41207586 5.98250801,6.71331724 C5.30549004,6.98621379 4.76371248,7.43162759 4.3820272,8.06724828 C3.7496474,9.12038621 3.67702963,10.2622138 3.87669451,11.4416966 C4.0821389,12.6551103 4.59110928,13.7430759 5.25456241,14.7614552 C6.16082273,16.1525241 7.31447984,17.304869 8.62020593,18.305869 C9.86007965,19.2563517 11.1579184,20.1089724 12.6274764,20.655869 C13.6353541,21.0309724 14.6661117,21.2815586 15.7488169,21.0906276 C17.0900699,20.8542138 18.0204682,20.0875586 18.5041107,18.7951448 C18.7890403,18.033731 18.3465682,17.1855586 17.5725566,16.9910069 C16.8221389,16.8023517 16.0658737,16.6369034 15.3098465,16.4721103 C14.7730325,16.3550759 14.2320029,16.2615241 13.6780884,16.2985241 C13.4625469,16.3129379 13.2804585,16.3862828 13.1650384,16.5821448 C13.040473,16.7934897 12.9153978,17.0046621 12.7977678,17.2199724 C12.7000602,17.3988345 12.6128237,17.5835586 12.5213375,17.7649379 C10.2488703,16.6833862 8.53670908,15.0262828 7.32066731,12.8132138 M24.6364711,12.5066966 C24.6362331,19.4185241 19.1408762,24.9866621 12.3242224,24.9999724 C5.5019932,25.0133172 -0.0395998057,19.3474207 0.000210781933,12.4271793 C0.0395454104,5.59507586 5.5591763,-0.0294758621 12.411221,0.00759310345 C19.1447518,0.0439724138 24.6367091,5.63011034 24.6364711,12.5066966" id="Fill-1" fill="#FEFEFE" mask="url(#mask-2)"></path>
                    </g>
                    <path d="M7.5860882,12.670097 C8.8001727,14.8986473 10.5094964,16.5673082 12.7782765,17.6564606 C12.8696129,17.4738125 12.9566726,17.2877614 13.0542202,17.1076828 C13.1716575,16.8908663 13.296562,16.6782166 13.4208894,16.4653933 C13.5361544,16.2681264 13.7179107,16.1942685 13.9330993,16.1797539 C14.4861068,16.1425298 15.0262505,16.2367359 15.5622194,16.3545544 C16.3169747,16.520535 17.0720016,16.6871407 17.8211905,16.8770809 C18.5939687,17.0730283 19.0356823,17.927134 18.7512193,18.6938742 C18.2684026,19.9952943 17.3394939,20.7673126 16.000471,21.0054149 C14.9195048,21.1976469 13.8904349,20.9453077 12.8842077,20.567615 C11.4170899,20.0168579 10.1213763,19.1583075 8.88349888,18.201141 C7.57991087,17.1931732 6.42817675,16.0327673 5.52340039,14.6319672 C4.86099969,13.6064638 4.35286273,12.5108528 4.14778869,11.2889854 C3.94845074,10.1012516 4.02091567,8.95140172 4.65225997,7.89089663 C5.03335421,7.2508295 5.57424463,6.80233456 6.25015402,6.52749426 C6.99618637,6.22414556 7.87496361,6.64468769 8.09734777,7.43073444 C8.41700804,8.56051387 8.73066068,9.69369626 8.89412254,10.8614637 C8.92589171,11.0883502 8.92959133,11.3256192 8.90216666,11.5525057 C8.88651967,11.6821997 8.8106606,11.8384576 8.71189107,11.9167949 C8.44555277,12.1280209 8.15287593,12.3046965 7.86960086,12.4933866 C7.78050464,12.5527646 7.68798034,12.6068299 7.5860882,12.670097" id="Fill-4" fill="#1C1B1A"></path>
                    <path d="M12.4155957,3.92952123 C14.4576656,4.10413355 16.2949628,4.80013164 17.8800853,6.11100069 C19.7096809,7.62409184 20.7931802,9.57693096 21.2384731,11.8955742 C21.2640654,12.0287889 21.276197,12.1645228 21.2970185,12.2986907 C21.3372301,12.5579707 21.1640815,12.8046885 20.9083287,12.8501715 C20.6554042,12.8951438 20.3999581,12.7177058 20.3622682,12.457098 C20.2648061,11.7830584 20.1132968,11.1221257 19.8619399,10.4887688 C18.6770596,7.50289475 16.5006556,5.68738964 13.3610123,5.02274618 C13.0187704,4.95026624 12.6666799,4.92139682 12.3179973,4.88316527 C11.9499245,4.84278893 11.7424256,4.60911006 11.8076843,4.29079749 C11.8596868,4.03706662 12.0641869,3.91651637 12.4155957,3.92952123" id="Fill-6" fill="#1C1B1A"></path>
                    <path d="M12.6647969,6.42867826 C13.4094734,6.50985358 14.147943,6.69815176 14.8441397,7.03074272 C17.0217714,8.07102467 18.322506,9.81022375 18.8156579,12.1857326 C18.8316277,12.262521 18.8416592,12.3434242 18.8367944,12.4212668 C18.822066,12.6549647 18.6408958,12.8387059 18.4192643,12.8554375 C18.1673707,12.8744815 17.9642588,12.7330114 17.9182953,12.4819358 C17.8141225,11.9124163 17.6609666,11.357928 17.4083349,10.8383311 C16.5040609,8.97847429 15.0418165,7.85109975 13.0371016,7.44583528 C12.8897499,7.41604493 12.7401503,7.39591263 12.590752,7.37867095 C12.3250358,7.3479624 12.1350755,7.13494095 12.1485626,6.87546559 C12.1619155,6.61874481 12.3786152,6.42333912 12.6647969,6.42867826" id="Fill-8" fill="#1C1B1A"></path>
                    <path d="M12.6885777,8.92879972 C13.3320639,9.01606276 13.9636897,9.24401863 14.5336686,9.62522917 C15.4780828,10.2568729 16.0742973,11.1299054 16.352422,12.2172264 C16.42875,12.5156292 16.2896197,12.7771168 16.02621,12.841668 C15.7476095,12.9099375 15.5107753,12.7480403 15.4262912,12.4405595 C15.0272516,10.9885761 14.0763805,10.1274355 12.573576,9.8616936 C12.2979321,9.81298709 12.1281483,9.61132738 12.1497281,9.34682488 C12.1702884,9.09475025 12.3768089,8.92139659 12.6885777,8.92879972" id="Fill-10" fill="#1C1B1A"></path>
                </g>
            </g>
        </g>
    </g>
</svg>