<?xml version="1.0" encoding="UTF-8"?>
<svg width="23px" height="25px" viewBox="0 0 23 25" version="1.1" xmlns="http://www.w3.org/2000/svg" xmlns:xlink="http://www.w3.org/1999/xlink">
    <!-- Generator: Sketch 53.2 (72643) - https://sketchapp.com -->
    <title>zoom icon</title>
    <desc>Created with Sketch.</desc>
    <g id="Page-1" stroke="none" stroke-width="1" fill="none" fill-rule="evenodd">
        <g id="mehsullar_vodka_2" transform="translate(-358.000000, -452.000000)" fill="#FFFFFF" fill-rule="nonzero">
            <path d="M374.866933,469.269507 L380.408789,474.811364 C380.799313,475.201888 380.799313,475.835053 380.408789,476.225577 C380.018265,476.616101 379.3851,476.616101 378.994575,476.225577 L373.269544,470.500546 C371.739446,471.451078 369.933827,472 368,472 C362.477153,472 358,467.522847 358,462 C358,456.477153 362.477153,452 368,452 C373.522847,452 378,456.477153 378,462 C378,464.86382 376.796165,467.446468 374.866933,469.269507 Z M368,470 C372.418278,470 376,466.418278 376,462 C376,457.581722 372.418278,454 368,454 C363.581722,454 360,457.581722 360,462 C360,466.418278 363.581722,470 368,470 Z M368.5,461.052635 L371.506346,461.052635 C371.782489,461.052635 372.006346,461.276493 372.006346,461.552635 C372.006346,461.828777 371.782489,462.052635 371.506346,462.052635 L368.5,462.052635 L368.5,465.120955 C368.5,465.397097 368.276142,465.620955 368,465.620955 C367.723858,465.620955 367.5,465.397097 367.5,465.120955 L367.5,462.052635 L364.648417,462.052635 C364.372275,462.052635 364.148417,461.828777 364.148417,461.552635 C364.148417,461.276493 364.372275,461.052635 364.648417,461.052635 L367.5,461.052635 L367.5,458.263026 C367.5,457.986884 367.723858,457.763026 368,457.763026 C368.276142,457.763026 368.5,457.986884 368.5,458.263026 L368.5,461.052635 Z" id="zoom-icon"></path>
        </g>
    </g>
</svg>