<?xml version="1.0" standalone="no"?>
<!DOCTYPE svg PUBLIC "-//W3C//DTD SVG 20010904//EN"
 "http://www.w3.org/TR/2001/REC-SVG-20010904/DTD/svg10.dtd">
<svg version="1.0" xmlns="http://www.w3.org/2000/svg"
 width="783.000000pt" height="783.000000pt" viewBox="0 0 783.000000 783.000000"
 preserveAspectRatio="xMidYMid meet">
<metadata>
Created by potrace 1.14, written by Peter Selinger 2001-2017
</metadata>
<g transform="translate(0.000000,783.000000) scale(0.100000,-0.100000)"
fill="#000000" stroke="none">
<path d="M4486 5688 c-18 -40 -84 -181 -146 -313 -62 -132 -125 -267 -140
-300 -33 -72 -117 -249 -225 -480 -21 -44 -52 -111 -70 -150 -53 -113 -115
-246 -140 -300 -51 -108 -183 -391 -225 -480 -151 -325 -167 -361 -320 -685
-45 -96 -95 -202 -110 -235 -15 -33 -47 -100 -70 -150 -62 -131 -177 -379
-216 -463 l-33 -72 209 0 210 0 39 83 c21 45 117 251 214 457 96 206 196 420
222 475 26 55 72 154 102 220 31 66 84 180 119 254 35 73 64 135 64 137 0 2
34 73 75 159 41 86 75 158 75 160 0 1 27 61 61 131 63 133 112 238 156 334 14
30 46 98 70 150 43 90 62 132 132 283 16 34 50 107 76 162 26 55 75 161 110
235 34 74 84 180 110 235 26 55 60 128 76 163 l28 62 -210 0 -210 0 -33 -72z"/>
<path d="M2180 4931 c-80 -32 -262 -104 -405 -160 -143 -56 -269 -106 -280
-111 -11 -5 -130 -53 -265 -106 -135 -52 -351 -138 -480 -189 -129 -51 -347
-138 -485 -192 l-250 -99 0 -184 0 -184 105 -42 c58 -23 116 -46 130 -52 14
-5 122 -48 240 -95 118 -47 514 -203 880 -348 366 -144 730 -288 810 -319
l145 -57 3 195 c1 108 -1 199 -5 202 -7 6 -276 108 -688 261 -44 16 -89 34
-100 39 -11 4 -78 29 -150 55 -71 26 -157 57 -190 70 -66 25 -423 158 -607
226 -65 24 -114 46 -110 50 4 3 99 40 212 82 410 153 715 268 735 276 11 5
108 42 215 81 107 40 209 78 225 85 17 7 123 47 236 90 113 42 211 80 217 84
9 6 12 58 10 204 l-3 196 -145 -58z"/>
<path d="M5512 4789 l3 -200 225 -85 c124 -46 234 -88 245 -93 11 -5 191 -73
400 -151 209 -77 389 -145 400 -150 23 -10 359 -136 485 -182 47 -17 88 -33
92 -37 4 -3 -52 -28 -125 -54 -73 -27 -141 -52 -152 -57 -11 -5 -155 -59 -320
-120 -165 -61 -309 -115 -320 -120 -11 -5 -222 -84 -470 -175 -247 -92 -453
-170 -458 -174 -4 -4 -6 -96 -5 -203 l3 -196 190 75 c105 41 366 144 580 229
215 85 579 230 810 321 231 91 490 194 575 228 l155 62 3 182 2 182 -37 15
c-21 8 -51 21 -68 29 -16 7 -41 16 -55 20 -14 4 -43 16 -65 25 -22 10 -105 44
-185 75 -503 198 -627 247 -645 255 -11 5 -60 24 -110 44 -165 63 -780 307
-810 320 -16 8 -41 17 -55 21 -14 4 -43 16 -65 25 -22 10 -60 25 -85 35 -25 9
-66 26 -93 36 l-47 19 2 -201z"/>
</g>
</svg>
